<svg xmlns="http://www.w3.org/2000/svg" viewBox="0 0 214.37 46.69"><defs><style>.cls-1{fill:none;}.cls-2{fill:#f58220;}.cls-3{fill:#1c3968;}.cls-4{fill:#231f20;}</style></defs><g id="Layer_2" data-name="Layer 2"><g id="Layer_1-2" data-name="Layer 1"><path class="cls-1" d="M52.76,35.55a3.3,3.3,0,0,0,1.54-.37,4.61,4.61,0,0,0,1.19-.82l-3.17-3.85a5.86,5.86,0,0,0-1.64,1.43,2.46,2.46,0,0,0-.4,1.37,2.13,2.13,0,0,0,.7,1.54A2.37,2.37,0,0,0,52.76,35.55Z"/><path class="cls-1" d="M53.34,27a6.34,6.34,0,0,0,1-.81A2,2,0,0,0,55,24.81a1.42,1.42,0,0,0-.35-.94,1.35,1.35,0,0,0-1.09-.42,1.58,1.58,0,0,0-.84.25,1.2,1.2,0,0,0-.6,1.12,1.73,1.73,0,0,0,.34,1A13.78,13.78,0,0,0,53.34,27Z"/><path class="cls-2" d="M58.68,0A57.91,57.91,0,0,0,23.07,12.09,59,59,0,0,0,2.57,41.94c1.82-.18,3.7-.35,5.61-.48A53.63,53.63,0,0,1,87.26,13.4V7.45A58.52,58.52,0,0,0,58.68,0Z"/><path class="cls-3" d="M47.77,30.8A4.42,4.42,0,0,0,47,33.41a4.76,4.76,0,0,0,1.46,3.37,5.37,5.37,0,0,0,4.06,1.51,6.5,6.5,0,0,0,3-.68,7.08,7.08,0,0,0,1.6-1.17l1.18,1.43h4L59.25,34.2a9,9,0,0,0,1.19-2,9.21,9.21,0,0,0,.74-3.12h-2.9A5.1,5.1,0,0,1,58,30.6a4.8,4.8,0,0,1-.65,1.3L55,29a6.94,6.94,0,0,0,2.1-1.73,3.84,3.84,0,0,0,.71-2.42,3.49,3.49,0,0,0-1.19-2.73,4.39,4.39,0,0,0-3-1.06,4.93,4.93,0,0,0-3.25,1,3.54,3.54,0,0,0-1.26,2.89,4.29,4.29,0,0,0,.4,1.79,7,7,0,0,0,1.14,1.69l-.36.22A8.21,8.21,0,0,0,47.77,30.8Zm4.9-7.1a1.58,1.58,0,0,1,.84-.25,1.34,1.34,0,0,1,1.08.42,1.38,1.38,0,0,1,.36.94,1.93,1.93,0,0,1-.6,1.35,5.77,5.77,0,0,1-1,.81,14.6,14.6,0,0,1-.93-1.18,1.79,1.79,0,0,1-.33-1A1.2,1.2,0,0,1,52.67,23.7Zm-2,8.24a5.72,5.72,0,0,1,1.64-1.43l3.17,3.85a4.61,4.61,0,0,1-1.19.82,3.34,3.34,0,0,1-1.55.37,2.4,2.4,0,0,1-1.78-.7,2.16,2.16,0,0,1-.69-1.54A2.46,2.46,0,0,1,50.67,31.94Z"/><path class="cls-3" d="M32.22,22.63A4.47,4.47,0,0,1,35.74,24a5.94,5.94,0,0,1,1.09,2.23h4.44a7.3,7.3,0,0,0-1.45-3.83Q37.36,19,32.05,19a8.93,8.93,0,0,0-6.54,2.54c-2,1.95-3,4.71-3,8.31a11.24,11.24,0,0,0,2.59,7.84,9.2,9.2,0,0,0,7.14,2.85,8.65,8.65,0,0,0,6-2.11,9.22,9.22,0,0,0,2.92-5.47H36.81a6.29,6.29,0,0,1-1.1,2.38,4.22,4.22,0,0,1-3.48,1.49,4.59,4.59,0,0,1-3.68-1.73,7.88,7.88,0,0,1-1.45-5.18,9.05,9.05,0,0,1,1.37-5.36A4.4,4.4,0,0,1,32.22,22.63Z"/><polygon class="cls-3" points="85.9 39.82 85.9 19.26 81.49 19.26 81.49 27.1 74.15 27.1 73.23 27.1 73.23 19.26 68.82 19.26 68.82 27.1 65.86 27.1 65.86 30.64 68.82 30.64 68.82 39.82 73.23 39.82 73.23 30.64 81.49 30.64 81.49 39.82 85.9 39.82"/><path class="cls-3" d="M69.26,43.76c-15.52,0-31-1.32-46.56-1.32-4.83,0-9.66.13-14.49.46q-3.29.23-6.57.6L0,43.68v1.09l1.35-.13.55,0c2-.17,4-.3,5.92-.39q4.35-.2,8.7-.19c19.64,0,39.28,2.67,58.91,2.67,5.51,0,11-.21,16.53-.75V42.51A185.82,185.82,0,0,1,69.26,43.76Z"/><path class="cls-4" d="M106.93,23.15a6.11,6.11,0,0,1-2.48.44,4.39,4.39,0,0,1-4.65-4.75,4.68,4.68,0,0,1,4.91-4.94,5,5,0,0,1,2.23.42l-.29,1a4.44,4.44,0,0,0-1.89-.39c-2.21,0-3.67,1.41-3.67,3.87s1.32,3.78,3.61,3.78a4.81,4.81,0,0,0,2-.39Z"/><path class="cls-4" d="M108.45,14.18a12.34,12.34,0,0,1,2.33-.2,3.83,3.83,0,0,1,2.72.77,2.33,2.33,0,0,1,.74,1.79,2.47,2.47,0,0,1-1.77,2.4v0a2.32,2.32,0,0,1,1.38,1.89,14.62,14.62,0,0,0,.73,2.58h-1.26a12.64,12.64,0,0,1-.63-2.24c-.27-1.3-.78-1.79-1.88-1.83h-1.14v4.07h-1.22Zm1.22,4.28h1.24c1.3,0,2.12-.71,2.12-1.78s-.88-1.75-2.16-1.76a4.75,4.75,0,0,0-1.2.11Z"/><path class="cls-4" d="M120.83,19.05h-3.65v3.39h4.07v1H116v-9.4H121v1h-3.86v3h3.65Z"/><path class="cls-4" d="M124.35,20.5l-1,2.95h-1.25l3.19-9.4h1.46l3.21,9.4h-1.29l-1-2.95Zm3.08-.95-.92-2.71c-.21-.61-.35-1.17-.49-1.71h0c-.14.56-.29,1.13-.47,1.7l-.92,2.72Z"/><path class="cls-4" d="M132.08,15.09h-2.86v-1h7v1h-2.87v8.36h-1.23Z"/><path class="cls-4" d="M138.44,14.05v9.4h-1.21v-9.4Z"/><path class="cls-4" d="M142.63,23.45l-3.07-9.4h1.31l1.46,4.63c.41,1.27.76,2.42,1,3.52h0c.26-1.09.65-2.27,1.07-3.5L146,14.05h1.3L144,23.45Z"/><path class="cls-4" d="M153.22,19.05h-3.66v3.39h4.08v1h-5.29v-9.4h5.08v1h-3.87v3h3.66Z"/><path class="cls-4" d="M164.06,23.45c-.27-.26-.52-.53-.88-.92a3.84,3.84,0,0,1-2.75,1.08A2.65,2.65,0,0,1,157.55,21a3.09,3.09,0,0,1,1.84-2.75v0a3.23,3.23,0,0,1-.79-2A2.28,2.28,0,0,1,161,13.9a2,2,0,0,1,2.08,2c0,1-.57,1.78-2.07,2.51v.05c.8.92,1.69,1.95,2.29,2.62a6.92,6.92,0,0,0,.91-2.75h1.11A7.08,7.08,0,0,1,164,21.79l1.55,1.66Zm-1.48-1.61c-.56-.62-1.6-1.76-2.65-3a2.31,2.31,0,0,0-1.21,1.91,1.86,1.86,0,0,0,1.92,1.9A2.66,2.66,0,0,0,162.58,21.84Zm-2.86-5.74a2.66,2.66,0,0,0,.71,1.69c.95-.54,1.56-1,1.56-1.84a1.1,1.1,0,0,0-1.08-1.21A1.22,1.22,0,0,0,159.72,16.1Z"/><path class="cls-4" d="M170.79,14.05V18h4.54V14.05h1.23v9.4h-1.23v-4.4h-4.54v4.4h-1.22v-9.4Z"/><path class="cls-4" d="M179.88,14.05v5.57c0,2.1.94,3,2.19,3,1.4,0,2.29-.92,2.29-3V14.05h1.23v5.49c0,2.88-1.52,4.07-3.56,4.07s-3.37-1.1-3.37-4V14.05Z"/><path class="cls-4" d="M195.62,19.33c-.07-1.32-.15-2.89-.14-4.06h0c-.32,1.1-.71,2.27-1.19,3.57l-1.66,4.56h-.92l-1.52-4.48c-.44-1.32-.82-2.54-1.09-3.65h0c0,1.17-.1,2.74-.18,4.15l-.26,4h-1.15l.65-9.4h1.55l1.6,4.55a32.77,32.77,0,0,1,.95,3.17h0c.24-.95.58-2,1-3.17l1.68-4.55h1.55l.58,9.4h-1.18Z"/><path class="cls-4" d="M200.3,20.5l-1,2.95h-1.25l3.19-9.4h1.46l3.21,9.4h-1.29l-1-2.95Zm3.08-.95-.92-2.71c-.21-.61-.35-1.17-.49-1.71h0c-.14.56-.29,1.13-.47,1.7l-.92,2.72Z"/><path class="cls-4" d="M207.32,23.45v-9.4h1.32l3,4.76a25.36,25.36,0,0,1,1.69,3.05h0c-.11-1.26-.14-2.4-.14-3.86V14.05h1.14v9.4h-1.22l-3-4.77a32.21,32.21,0,0,1-1.76-3.13h0c.07,1.19.1,2.32.1,3.88v4Z"/><path class="cls-4" d="M101.58,30.8v9.4h-1.22V30.8Z"/><path class="cls-4" d="M103.7,40.2V30.8H105l3,4.75a26.22,26.22,0,0,1,1.69,3.06h0c-.11-1.26-.14-2.4-.14-3.87V30.8h1.14v9.4h-1.22l-3-4.77a32.33,32.33,0,0,1-1.76-3.14h0c.07,1.19.1,2.32.1,3.88v4Z"/><path class="cls-4" d="M119.45,39.89a5.91,5.91,0,0,1-2.48.45,4.4,4.4,0,0,1-4.65-4.76,4.68,4.68,0,0,1,4.91-4.94,5.14,5.14,0,0,1,2.23.42l-.29,1a4.49,4.49,0,0,0-1.9-.39c-2.2,0-3.67,1.41-3.67,3.88,0,2.3,1.33,3.78,3.62,3.78a4.81,4.81,0,0,0,2-.39Z"/><path class="cls-4" d="M128.71,35.4c0,3.24-2,5-4.36,5s-4.23-1.92-4.23-4.77,1.86-4.94,4.37-4.94S128.71,32.61,128.71,35.4Zm-7.29.15c0,2,1.09,3.81,3,3.81s3-1.77,3-3.9c0-1.87-1-3.83-3-3.83S121.42,33.49,121.42,35.55Z"/><path class="cls-4" d="M130.29,30.92a13.22,13.22,0,0,1,2.33-.19,3.83,3.83,0,0,1,2.72.77,2.31,2.31,0,0,1,.74,1.78,2.47,2.47,0,0,1-1.77,2.4v0a2.34,2.34,0,0,1,1.38,1.9,14.62,14.62,0,0,0,.73,2.58h-1.26a13.15,13.15,0,0,1-.63-2.25c-.28-1.29-.78-1.78-1.88-1.82h-1.14V40.2h-1.22Zm1.22,4.28h1.24c1.29,0,2.12-.71,2.12-1.78s-.88-1.74-2.16-1.76a4.6,4.6,0,0,0-1.2.12Z"/><path class="cls-4" d="M137.8,30.91a13.85,13.85,0,0,1,2.33-.18,3.84,3.84,0,0,1,2.63.78,2.53,2.53,0,0,1,.83,2,2.71,2.71,0,0,1-.73,2,3.87,3.87,0,0,1-2.87,1,4.19,4.19,0,0,1-1-.09V40.2H137.8ZM139,35.44a4.09,4.09,0,0,0,1,.1c1.46,0,2.35-.71,2.35-2s-.87-1.84-2.21-1.84a4.88,4.88,0,0,0-1.15.1Z"/><path class="cls-4" d="M153.26,35.4c0,3.24-2,5-4.37,5s-4.22-1.92-4.22-4.77,1.85-4.94,4.36-4.94S153.26,32.61,153.26,35.4Zm-7.3.15c0,2,1.09,3.81,3,3.81s3-1.77,3-3.9c0-1.87-1-3.83-3-3.83S146,33.49,146,35.55Z"/><path class="cls-4" d="M154.84,30.92a13.13,13.13,0,0,1,2.33-.19,3.86,3.86,0,0,1,2.72.77,2.34,2.34,0,0,1,.74,1.78,2.47,2.47,0,0,1-1.78,2.4v0a2.33,2.33,0,0,1,1.38,1.9A15.59,15.59,0,0,0,161,40.2h-1.25a11.44,11.44,0,0,1-.63-2.25c-.28-1.29-.78-1.78-1.89-1.82h-1.14V40.2h-1.21Zm1.21,4.28h1.24c1.3,0,2.12-.71,2.12-1.78s-.88-1.74-2.16-1.76a4.66,4.66,0,0,0-1.2.12Z"/><path class="cls-4" d="M163.93,37.24l-1,3H161.7l3.2-9.4h1.46l3.21,9.4h-1.3l-1-3Zm3.09-1-.92-2.7c-.21-.62-.35-1.17-.49-1.72h0c-.14.56-.29,1.13-.47,1.7l-.92,2.72Z"/><path class="cls-4" d="M171.66,31.83h-2.85v-1h7v1h-2.88V40.2h-1.23Z"/><path class="cls-4" d="M181.68,35.79H178v3.39h4.07v1h-5.29V30.8h5.08v1H178v3h3.65Z"/><path class="cls-4" d="M183.68,30.92a17.68,17.68,0,0,1,2.58-.19,5.39,5.39,0,0,1,3.81,1.17,4.37,4.37,0,0,1,1.32,3.38A5,5,0,0,1,190,38.93a5.79,5.79,0,0,1-4.16,1.35,19.51,19.51,0,0,1-2.2-.11Zm1.21,8.32a8.51,8.51,0,0,0,1.23.07c2.59,0,4-1.45,4-4,0-2.22-1.24-3.63-3.8-3.63a6.87,6.87,0,0,0-1.43.13Z"/></g></g></svg>