<svg width="46" height="46" viewBox="0 0 46 46" fill="none" xmlns="http://www.w3.org/2000/svg">
<circle cx="23.1121" cy="23.0122" r="22.5" fill="#F5821F"/>
<path d="M33.5261 21.4986L32.8544 20.8217L23.4813 11.4498C23.4329 11.401 23.3753 11.3623 23.3119 11.3359C23.2484 11.3094 23.1804 11.2958 23.1116 11.2958C23.0429 11.2958 22.9748 11.3094 22.9114 11.3359C22.8479 11.3623 22.7903 11.401 22.7419 11.4498L13.3688 20.8217L12.6971 21.4986L10.7652 23.425C10.6671 23.523 10.6121 23.656 10.6121 23.7947C10.6121 23.9333 10.6671 24.0663 10.7652 24.1643C10.8633 24.2624 10.9962 24.3174 11.1349 24.3174C11.2736 24.3174 11.4066 24.2624 11.5046 24.1643L12.6971 22.9668L13.2178 22.4461L13.7385 21.9255V32.6459C13.7385 33.1982 13.958 33.7279 14.3486 34.1185C14.7392 34.5091 15.269 34.7285 15.8215 34.7285H19.4665V29.5219C19.4665 28.9696 19.686 28.4398 20.0766 28.0493C20.4672 27.6587 20.997 27.4393 21.5494 27.4393H24.6738C25.2262 27.4393 25.756 27.6587 26.1466 28.0493C26.5372 28.4398 26.7567 28.9696 26.7567 29.5219V34.7285H30.4018C30.9542 34.7285 31.484 34.5091 31.8746 34.1185C32.2652 33.7279 32.4847 33.1982 32.4847 32.6459V21.9255L33.0054 22.4461L33.5261 22.9668L34.7186 24.1643C34.767 24.2131 34.8246 24.2519 34.8881 24.2783C34.9515 24.3047 35.0196 24.3183 35.0883 24.3183C35.1571 24.3183 35.2251 24.3047 35.2886 24.2783C35.352 24.2519 35.4096 24.2131 35.458 24.1643C35.5068 24.1159 35.5456 24.0583 35.572 23.9949C35.5984 23.9314 35.6121 23.8634 35.6121 23.7947C35.6121 23.7259 35.5984 23.6579 35.572 23.5944C35.5456 23.531 35.5068 23.4734 35.458 23.425L33.5261 21.4986Z" fill="white"/>
</svg>
