<svg width="54" height="46" viewBox="0 0 54 46" fill="none" xmlns="http://www.w3.org/2000/svg">
<path d="M30.1942 18.691C29.7767 18.6894 29.3682 18.8116 29.0203 19.0424C28.6724 19.2731 28.4008 19.6018 28.24 19.987C28.0791 20.3722 28.0361 20.7965 28.1165 21.2061C28.197 21.6157 28.3971 21.9922 28.6917 22.288C28.9863 22.5837 29.3621 22.7854 29.7713 22.8675C30.1806 22.9495 30.6051 22.9082 30.9909 22.7489C31.3767 22.5895 31.7066 22.3192 31.9386 21.9723C32.1707 21.6253 32.2946 21.2172 32.2946 20.7998C32.2957 20.5233 32.2422 20.2492 32.1371 19.9934C32.0321 19.7376 31.8775 19.5051 31.6824 19.3092C31.4872 19.1132 31.2553 18.9578 30.9999 18.8517C30.7445 18.7456 30.4707 18.691 30.1942 18.691V18.691Z" fill="white"/>
<path d="M42.7886 18.691C42.3712 18.6894 41.9627 18.8116 41.6148 19.0424C41.2669 19.2731 40.9953 19.6018 40.8344 19.987C40.6735 20.3722 40.6306 20.7965 40.711 21.2061C40.7914 21.6157 40.9916 21.9922 41.2862 22.288C41.5808 22.5837 41.9565 22.7854 42.3658 22.8675C42.7751 22.9495 43.1996 22.9082 43.5854 22.7489C43.9712 22.5895 44.301 22.3192 44.5331 21.9723C44.7652 21.6253 44.8891 21.2172 44.8891 20.7998C44.8902 20.5233 44.8367 20.2492 44.7316 19.9934C44.6266 19.7376 44.472 19.5051 44.2768 19.3092C44.0817 19.1132 43.8498 18.9578 43.5944 18.8517C43.339 18.7456 43.0652 18.691 42.7886 18.691V18.691Z" fill="white"/>
<path d="M45.2892 0.962103H8.72278C7.61177 0.96429 6.51207 1.18529 5.48647 1.61247C4.46087 2.03966 3.52945 2.66467 2.74539 3.45182C1.96134 4.23897 1.34 5.17285 0.916863 6.20012C0.493721 7.2274 0.277061 8.32796 0.279252 9.43897V29.5601C0.277061 30.6707 0.493782 31.7708 0.917026 32.7977C1.34027 33.8245 1.96174 34.7578 2.7459 35.5443C3.53006 36.3308 4.46155 36.955 5.4871 37.3813C6.51265 37.8075 7.61216 38.0275 8.72278 38.0286H21.3339L25.6348 45.0302C25.6716 45.1042 25.7163 45.1741 25.7682 45.2385C25.8946 45.4584 26.0767 45.6411 26.2962 45.7682C26.5157 45.8952 26.7649 45.9621 27.0185 45.9621C27.2721 45.9621 27.5212 45.8952 27.7408 45.7682C27.9603 45.6411 28.1424 45.4584 28.2688 45.2385C28.3277 45.1747 28.3756 45.1014 28.4105 45.0218L32.7114 38.0203H45.2892C46.4016 38.0225 47.5035 37.8053 48.5319 37.3811C49.5602 36.9569 50.4949 36.3341 51.2822 35.5482C52.0696 34.7624 52.6943 33.829 53.1205 32.8015C53.5467 31.774 53.7661 30.6725 53.7661 29.5601V9.43897C53.7671 8.32547 53.5486 7.22267 53.123 6.19372C52.6974 5.16476 52.073 4.22984 51.2857 3.44248C50.4983 2.65511 49.5634 2.03075 48.5344 1.60513C47.5055 1.17952 46.4027 0.961007 45.2892 0.962103V0.962103ZM12.1569 25.7842C11.6151 25.8054 11.0771 25.6861 10.5951 25.4378C10.1131 25.1895 9.70355 24.8207 9.40627 24.3673V25.4425H6.11387V11.7978H9.3896V16.999C10.1277 16.2401 11.1179 15.7776 12.1735 15.6987C16.6162 15.6987 16.7912 20.6998 16.7912 20.6998C16.8248 21.3389 16.7312 21.9783 16.5158 22.5809C16.3004 23.1835 15.9675 23.7374 15.5364 24.2103C15.1053 24.6833 14.5846 25.066 14.0045 25.3362C13.4243 25.6063 12.7963 25.7586 12.1569 25.7842V25.7842ZM22.4758 16.6156V25.4425H19.3168V17.3657C19.3168 14.5818 17.8248 14.6485 17.8248 14.6485V11.4894C22.6092 11.4894 22.4758 16.6156 22.4758 16.6156V16.6156ZM35.7287 20.7831C35.7287 25.7842 30.1942 25.7842 30.1942 25.7842C24.6096 25.7842 24.7763 20.7831 24.7763 20.7831C24.7763 15.732 30.1942 15.732 30.1942 15.732C35.9121 15.7487 35.7287 20.7998 35.7287 20.7998V20.7831ZM47.9481 25.3008C47.9978 25.957 47.9106 26.6164 47.6921 27.2371C47.4735 27.8579 47.1284 28.4264 46.6786 28.9068C46.2288 29.3872 45.6841 29.7689 45.0791 30.0277C44.474 30.2865 43.8218 30.4168 43.1637 30.4103H41.8884V27.5263H42.6719C44.9974 27.5263 44.7641 25.1341 44.7641 25.1341V24.3673C44.4033 24.7708 43.9595 25.0915 43.4632 25.3073C42.9668 25.5231 42.4296 25.629 41.8884 25.6175C37.3291 25.6175 37.3791 20.7581 37.3791 20.7581C37.3791 15.5487 42.0135 15.757 42.0135 15.757C42.5353 15.7526 43.0518 15.8622 43.5269 16.0782C44.002 16.2941 44.4243 16.6112 44.7641 17.0073V16.0654H47.9481V25.3008Z" fill="white"/>
<path d="M11.44 18.691C11.0226 18.6894 10.614 18.8116 10.2662 19.0424C9.91828 19.2731 9.64669 19.6018 9.4858 19.987C9.32491 20.3722 9.28196 20.7965 9.36239 21.2061C9.44281 21.6157 9.64299 21.9922 9.93758 22.288C10.2322 22.5837 10.6079 22.7854 11.0172 22.8675C11.4265 22.9495 11.8509 22.9082 12.2367 22.7489C12.6226 22.5895 12.9524 22.3192 13.1845 21.9723C13.4166 21.6253 13.5405 21.2172 13.5405 20.7998C13.5405 20.242 13.3194 19.7068 12.9258 19.3116C12.5321 18.9164 11.9979 18.6932 11.44 18.691V18.691Z" fill="white"/>
</svg>
