<svg width="22" height="25" viewBox="0 0 22 25" fill="none" xmlns="http://www.w3.org/2000/svg">
<path d="M2.83333 24.2H19.1667C19.7855 24.2 20.379 23.9541 20.8166 23.5166C21.2542 23.079 21.5 22.4855 21.5 21.8666V11.3666C21.5009 11.2131 21.4715 11.0609 21.4134 10.9188C21.3553 10.7766 21.2698 10.6473 21.1617 10.5383L11.8283 1.20498C11.6097 0.987688 11.314 0.865723 11.0058 0.865723C10.6976 0.865723 10.4019 0.987688 10.1833 1.20498L0.85 10.5383C0.739764 10.6464 0.652066 10.7752 0.591986 10.9174C0.531907 11.0596 0.500641 11.2123 0.5 11.3666V21.8666C0.5 22.4855 0.745832 23.079 1.18342 23.5166C1.621 23.9541 2.21449 24.2 2.83333 24.2ZM8.66667 21.8666L13.8556 22.4246L13.3333 16.0333V21.8666H8.66667ZM2.83333 11.845L11 3.67831L19.1667 11.845V21.8666H15.6667V16.0333C15.6667 15.4145 15.4208 14.821 14.9832 14.3834C14.5457 13.9458 13.9522 13.7 13.3333 13.7H8.66667C8.04783 13.7 7.45434 13.9458 7.01675 14.3834C6.57917 14.821 6.33333 15.4145 6.33333 16.0333V21.8666H2.83333V11.845Z" fill="white"/>
</svg>
