<svg width="28" height="28" viewBox="0 0 28 28" fill="none" xmlns="http://www.w3.org/2000/svg">
<path d="M13.6327 17.9414C13.6524 17.9666 13.6777 17.987 13.7064 18.001C13.7352 18.0151 13.7668 18.0223 13.7988 18.0223C13.8308 18.0223 13.8624 18.0151 13.8912 18.001C13.92 17.987 13.9452 17.9666 13.9649 17.9414L16.9181 14.2052C17.0262 14.0681 16.9286 13.865 16.752 13.865H14.7981V4.94238C14.7981 4.82637 14.7032 4.73145 14.5872 4.73145H13.0052C12.8892 4.73145 12.7942 4.82637 12.7942 4.94238V13.8624H10.8457C10.669 13.8624 10.5715 14.0654 10.6796 14.2025L13.6327 17.9414ZM23.4492 17.0186H21.8672C21.7512 17.0186 21.6562 17.1135 21.6562 17.2295V21.29H5.94141V17.2295C5.94141 17.1135 5.84648 17.0186 5.73047 17.0186H4.14844C4.03242 17.0186 3.9375 17.1135 3.9375 17.2295V22.4502C3.9375 22.9169 4.31455 23.2939 4.78125 23.2939H22.8164C23.2831 23.2939 23.6602 22.9169 23.6602 22.4502V17.2295C23.6602 17.1135 23.5652 17.0186 23.4492 17.0186Z" fill="#0A4B90"/>
</svg>
