<svg width="49" height="46" viewBox="0 0 49 46" fill="none" xmlns="http://www.w3.org/2000/svg">
<path d="M44.2228 20.5554L42.9328 19.2555L24.9328 1.25786C24.8399 1.16415 24.7293 1.08976 24.6074 1.039C24.4856 0.98824 24.3549 0.962105 24.2228 0.962105C24.0908 0.962105 23.9601 0.98824 23.8383 1.039C23.7164 1.08976 23.6058 1.16415 23.5128 1.25786L5.51284 19.2555L4.22284 20.5554L0.512842 24.2549C0.324538 24.4432 0.21875 24.6985 0.21875 24.9648C0.21875 25.2311 0.324538 25.4864 0.512842 25.6747C0.701145 25.863 0.95654 25.9688 1.22284 25.9688C1.48914 25.9688 1.74454 25.863 1.93284 25.6747L4.22284 23.375L5.22284 22.3751L6.22284 21.3753V41.9626C6.22284 43.0234 6.64427 44.0406 7.39441 44.7907C8.14456 45.5407 9.16198 45.9621 10.2228 45.9621H17.2228V35.9634C17.2228 34.9027 17.6443 33.8854 18.3944 33.1353C19.1446 32.3853 20.162 31.9639 21.2228 31.9639H27.2228C28.2837 31.9639 29.3011 32.3853 30.0513 33.1353C30.8014 33.8854 31.2228 34.9027 31.2228 35.9634V45.9621H38.2228C39.2837 45.9621 40.3011 45.5407 41.0513 44.7907C41.8014 44.0406 42.2228 43.0234 42.2228 41.9626V21.3753L43.2228 22.3751L44.2228 23.375L46.5128 25.6747C46.6058 25.7684 46.7164 25.8428 46.8383 25.8936C46.9601 25.9443 47.0908 25.9705 47.2228 25.9705C47.3549 25.9705 47.4856 25.9443 47.6074 25.8936C47.7293 25.8428 47.8399 25.7684 47.9328 25.6747C48.0266 25.5818 48.101 25.4712 48.1517 25.3493C48.2025 25.2275 48.2286 25.0968 48.2286 24.9648C48.2286 24.8328 48.2025 24.7021 48.1517 24.5803C48.101 24.4584 48.0266 24.3479 47.9328 24.2549L44.2228 20.5554Z" fill="white"/>
</svg>
