<svg width="25" height="46" viewBox="0 0 25 46" fill="none" xmlns="http://www.w3.org/2000/svg">
<path d="M19.2626 8.46421H24.0321V0.962105H16.9222C15.4985 0.984469 14.0972 1.32028 12.8181 1.94564C11.5389 2.57101 10.4133 3.47056 9.52125 4.58032C9.52125 4.58032 7.57298 6.41473 7.54768 11.8041V17.4085H0.475708V25.3661H7.54768V45.9621H15.657V25.3914H22.6658L23.6778 17.4085H15.657V11.8041C15.6415 11.3382 15.7264 10.8745 15.9058 10.4443C16.0853 10.0141 16.3551 9.62752 16.6971 9.31076C17.0391 8.994 17.4451 8.75447 17.8878 8.60841C18.3304 8.46235 18.7993 8.41317 19.2626 8.46421Z" fill="white"/>
</svg>
