<svg width="46" height="46" viewBox="0 0 46 46" fill="none" xmlns="http://www.w3.org/2000/svg">
<circle cx="22.9373" cy="23.2291" r="22.5" fill="#F5821F"/>
<path fill-rule="evenodd" clip-rule="evenodd" d="M22.9373 10.8452C23.9285 10.8452 24.9099 11.0404 25.8256 11.4197C26.7413 11.799 27.5733 12.3549 28.2741 13.0558C28.975 13.7566 29.5309 14.5886 29.9102 15.5043C30.2895 16.42 30.4847 17.4015 30.4847 18.3926C30.4847 22.3525 24.9667 28.7243 22.9373 31.6556C20.9105 28.7243 15.3899 22.3525 15.3899 18.3926C15.3899 16.3909 16.1851 14.4712 17.6005 13.0558C19.0159 11.6404 20.9356 10.8452 22.9373 10.8452V10.8452ZM31.4373 29.3071V35.613H14.4373V29.3071H16.6162V33.4367H29.2585V29.3071H31.4373ZM22.9373 15.2561C23.5563 15.2561 24.1613 15.4397 24.6759 15.7836C25.1905 16.1275 25.5916 16.6163 25.8283 17.1882C26.065 17.7601 26.1269 18.3893 26.0059 18.9964C25.885 19.6034 25.5867 20.1609 25.1489 20.5984C24.7111 21.0359 24.1533 21.3337 23.5462 21.4541C22.9391 21.5745 22.3099 21.5122 21.7382 21.275C21.1665 21.0378 20.678 20.6364 20.3345 20.1215C19.991 19.6066 19.8079 19.0014 19.8084 18.3825C19.8084 17.9717 19.8894 17.5649 20.0466 17.1855C20.2039 16.806 20.4344 16.4612 20.725 16.1709C21.0156 15.8805 21.3605 15.6503 21.7401 15.4933C22.1197 15.3364 22.5265 15.2558 22.9373 15.2561V15.2561Z" fill="white"/>
</svg>
