<svg width="120" height="38" viewBox="0 0 120 38" fill="none" xmlns="http://www.w3.org/2000/svg">
<g clip-path="url(#clip0_2_6792)">
<path d="M64.0826 28.8024H43.4902V27.9733L59.3757 16.8178V12.6365H48.7939V16.5838H44.1481V13.9183C44.3368 12.5703 44.0002 12.377 45.1782 11.6038C45.7851 11.207 46.7489 11.2528 47.8351 11.2528H60.3395C61.4206 11.2528 62.5272 11.5021 62.9913 11.6038C64.0877 11.8378 64.0163 13.5521 64.0163 13.9183V16.2278C64.0163 16.6754 63.6084 17.1892 62.7924 17.764L49.0591 27.429H64.0826V28.8024Z" fill="black"/>
<path d="M92.6712 28.8025H89.489L75.6281 15.8972V28.8025H71.2832V11.2529H74.7306L88.3263 23.9344V11.2529H92.6712V28.8025Z" fill="black"/>
<path d="M120 14.5899C120 16.0549 120 25.9081 120 25.9081C120 27.8513 119.041 28.7924 115.66 28.7924H103.517C100.57 28.7924 99.096 28.1718 99.096 26.9357C99.096 26.7881 99.1164 26.5694 99.1572 26.2795C99.1929 25.9895 99.2133 25.7809 99.2133 25.6487H104.247V27.3223H114.93V23.9955H106.516C104.236 23.9955 102.1 24.2498 100.59 23.736C99.0807 23.2172 98.5605 22.0625 98.5605 21.2842V13.893C98.5605 12.8553 99.198 11.9447 100.891 11.5581C102.171 11.2682 105.639 11.2529 105.639 11.2529H116.445C120.096 11.2529 120 13.1859 120 14.5899ZM114.925 22.4796V12.9265C110.876 12.84 108.52 12.7942 107.852 12.7993C103.038 12.8349 102.283 13.6844 102.207 15.6683V19.6055C102.237 22.5559 104.083 22.5559 107.852 22.4796H114.925Z" fill="black"/>
<path d="M17.2219 29.4535C10.1129 29.7435 6.48199 25.3942 3.17231 22.4133C3.17231 22.4642 3.16211 22.51 3.16211 22.5608C3.16211 29.6773 9.90895 35.4509 17.6706 35.4509C25.4323 35.4509 31.2765 29.6824 31.2765 22.5608C31.2765 22.5151 31.2663 22.4642 31.2663 22.4133C27.9158 24.9415 25.0447 29.133 17.2219 29.4535Z" fill="url(#paint0_linear_2_6792)"/>
<path d="M16.2373 36.6921C11.9638 37.1296 7.91977 35.7968 5.74731 34.3624C3.32498 32.7549 1.59619 30.7253 0.943436 28.2531C0.29068 25.791 0.0509966 23.212 0.0509966 19.8191C0.0509966 19.8191 0.0305979 1.32842 0 0.870605L6.42047 3.43437L6.12979 19.5698C6.12979 19.5698 6.12979 25.089 6.12979 25.2366C6.12979 34.6269 15.9925 35.0033 17.1297 35.0033C22.5303 35.0084 19.2053 36.392 16.2373 36.6921Z" fill="black"/>
<path d="M28.1305 4.23301L28.2835 12.5754L28.3855 18.3083C28.3855 18.3083 28.003 25.791 28.003 25.8063C27.7837 27.724 27.5134 28.5634 26.7485 30.0335C24.2293 34.0012 19.864 35.0999 14.2849 36.1173C13.7342 36.2191 12.087 36.5955 10.9141 36.4225C12.495 36.804 14.2696 37.038 16.1106 37.0889C16.233 37.1143 16.4268 37.1296 16.7838 37.1296C20.7207 37.1296 25.4328 35.9901 27.901 34.5658C30.3285 33.1619 32.302 31.6562 33.0568 29.4586C33.8268 27.2001 34.2144 23.7105 34.2144 18.995C34.2144 18.995 34.2297 1.26738 34.2603 0.870605L28.1305 4.23301Z" fill="url(#paint1_linear_2_6792)"/>
</g>
<mask id="mask0_2_6792" style="mask-type:alpha" maskUnits="userSpaceOnUse" x="0" y="0" width="120" height="38">
<g clip-path="url(#clip1_2_6792)">
<mask id="mask1_2_6792" style="mask-type:alpha" maskUnits="userSpaceOnUse" x="0" y="0" width="120" height="38">
<path d="M64.0826 28.8024H43.4902V27.9733L59.3757 16.8178V12.6365H48.7939V16.5838H44.1481V13.9183C44.3368 12.5703 44.0002 12.377 45.1782 11.6038C45.7851 11.207 46.7489 11.2528 47.8351 11.2528H60.3395C61.4206 11.2528 62.5272 11.5021 62.9913 11.6038C64.0877 11.8378 64.0163 13.5521 64.0163 13.9183V16.2278C64.0163 16.6754 63.6084 17.1892 62.7924 17.764L49.0591 27.429H64.0826V28.8024Z" fill="black"/>
<path d="M92.6712 28.8025H89.489L75.6281 15.8972V28.8025H71.2832V11.2529H74.7306L88.3263 23.9344V11.2529H92.6712V28.8025Z" fill="black"/>
<path d="M120 14.5899C120 16.0549 120 25.9081 120 25.9081C120 27.8513 119.041 28.7924 115.66 28.7924H103.517C100.57 28.7924 99.096 28.1718 99.096 26.9357C99.096 26.7881 99.1164 26.5694 99.1572 26.2795C99.1929 25.9895 99.2133 25.7809 99.2133 25.6487H104.247V27.3223H114.93V23.9955H106.516C104.236 23.9955 102.1 24.2498 100.59 23.736C99.0807 23.2172 98.5605 22.0625 98.5605 21.2842V13.893C98.5605 12.8553 99.198 11.9447 100.891 11.5581C102.171 11.2682 105.639 11.2529 105.639 11.2529H116.445C120.096 11.2529 120 13.1859 120 14.5899ZM114.925 22.4796V12.9265C110.876 12.84 108.52 12.7942 107.852 12.7993C103.038 12.8349 102.283 13.6844 102.207 15.6683V19.6055C102.237 22.5559 104.083 22.5559 107.852 22.4796H114.925Z" fill="black"/>
<path d="M17.2219 29.4535C10.1129 29.7435 6.48199 25.3942 3.17231 22.4133C3.17231 22.4642 3.16211 22.51 3.16211 22.5608C3.16211 29.6773 9.90895 35.4509 17.6706 35.4509C25.4323 35.4509 31.2765 29.6824 31.2765 22.5608C31.2765 22.5151 31.2663 22.4642 31.2663 22.4133C27.9158 24.9415 25.0447 29.133 17.2219 29.4535Z" fill="url(#paint2_linear_2_6792)"/>
<path d="M16.2373 36.6921C11.9638 37.1296 7.91977 35.7968 5.74731 34.3624C3.32498 32.7549 1.59619 30.7253 0.943436 28.2531C0.29068 25.791 0.0509966 23.212 0.0509966 19.8191C0.0509966 19.8191 0.0305979 1.32842 0 0.870605L6.42047 3.43437L6.12979 19.5698C6.12979 19.5698 6.12979 25.089 6.12979 25.2366C6.12979 34.6269 15.9925 35.0033 17.1297 35.0033C22.5303 35.0084 19.2053 36.392 16.2373 36.6921Z" fill="black"/>
<path d="M28.1305 4.23301L28.2835 12.5754L28.3855 18.3083C28.3855 18.3083 28.003 25.791 28.003 25.8063C27.7837 27.724 27.5134 28.5634 26.7485 30.0335C24.2293 34.0012 19.864 35.0999 14.2849 36.1173C13.7342 36.2191 12.087 36.5955 10.9141 36.4225C12.495 36.804 14.2696 37.038 16.1106 37.0889C16.233 37.1143 16.4268 37.1296 16.7838 37.1296C20.7207 37.1296 25.4328 35.9901 27.901 34.5658C30.3285 33.1619 32.302 31.6562 33.0568 29.4586C33.8268 27.2001 34.2144 23.7105 34.2144 18.995C34.2144 18.995 34.2297 1.26738 34.2603 0.870605L28.1305 4.23301Z" fill="url(#paint3_linear_2_6792)"/>
</mask>
<g mask="url(#mask1_2_6792)">
<rect x="41.9062" y="11.2512" width="79.1004" height="18.6641" fill="white"/>
</g>
</g>
</mask>
<g mask="url(#mask0_2_6792)">
</g>
<g clip-path="url(#clip2_2_6792)">
<path d="M64.0826 28.8024H43.4902V27.9733L59.3757 16.8178V12.6365H48.7939V16.5838H44.1481V13.9183C44.3368 12.5703 44.0002 12.377 45.1782 11.6038C45.7851 11.207 46.7489 11.2528 47.8351 11.2528H60.3395C61.4206 11.2528 62.5272 11.5021 62.9913 11.6038C64.0877 11.8378 64.0163 13.5521 64.0163 13.9183V16.2278C64.0163 16.6754 63.6084 17.1892 62.7924 17.764L49.0591 27.429H64.0826V28.8024Z" fill="black"/>
<path d="M92.6712 28.8025H89.489L75.6281 15.8972V28.8025H71.2832V11.2529H74.7306L88.3263 23.9344V11.2529H92.6712V28.8025Z" fill="black"/>
<path d="M120 14.5899C120 16.0549 120 25.9081 120 25.9081C120 27.8513 119.041 28.7924 115.66 28.7924H103.517C100.57 28.7924 99.096 28.1718 99.096 26.9357C99.096 26.7881 99.1164 26.5694 99.1572 26.2795C99.1929 25.9895 99.2133 25.7809 99.2133 25.6487H104.247V27.3223H114.93V23.9955H106.516C104.236 23.9955 102.1 24.2498 100.59 23.736C99.0807 23.2172 98.5605 22.0625 98.5605 21.2842V13.893C98.5605 12.8553 99.198 11.9447 100.891 11.5581C102.171 11.2682 105.639 11.2529 105.639 11.2529H116.445C120.096 11.2529 120 13.1859 120 14.5899ZM114.925 22.4796V12.9265C110.876 12.84 108.52 12.7942 107.852 12.7993C103.038 12.8349 102.283 13.6844 102.207 15.6683V19.6055C102.237 22.5559 104.083 22.5559 107.852 22.4796H114.925Z" fill="black"/>
<path d="M17.2219 29.4535C10.1129 29.7435 6.48199 25.3942 3.17231 22.4133C3.17231 22.4642 3.16211 22.51 3.16211 22.5608C3.16211 29.6773 9.90895 35.4509 17.6706 35.4509C25.4323 35.4509 31.2765 29.6824 31.2765 22.5608C31.2765 22.5151 31.2663 22.4642 31.2663 22.4133C27.9158 24.9415 25.0447 29.133 17.2219 29.4535Z" fill="url(#paint4_linear_2_6792)"/>
<path d="M16.2373 36.6921C11.9638 37.1296 7.91977 35.7968 5.74731 34.3624C3.32498 32.7549 1.59619 30.7253 0.943436 28.2531C0.29068 25.791 0.0509966 23.212 0.0509966 19.8191C0.0509966 19.8191 0.0305979 1.32842 0 0.870605L6.42047 3.43437L6.12979 19.5698C6.12979 19.5698 6.12979 25.089 6.12979 25.2366C6.12979 34.6269 15.9925 35.0033 17.1297 35.0033C22.5303 35.0084 19.2053 36.392 16.2373 36.6921Z" fill="black"/>
<path d="M28.1305 4.23301L28.2835 12.5754L28.3855 18.3083C28.3855 18.3083 28.003 25.791 28.003 25.8063C27.7837 27.724 27.5134 28.5634 26.7485 30.0335C24.2293 34.0012 19.864 35.0999 14.2849 36.1173C13.7342 36.2191 12.087 36.5955 10.9141 36.4225C12.495 36.804 14.2696 37.038 16.1106 37.0889C16.233 37.1143 16.4268 37.1296 16.7838 37.1296C20.7207 37.1296 25.4328 35.9901 27.901 34.5658C30.3285 33.1619 32.302 31.6562 33.0568 29.4586C33.8268 27.2001 34.2144 23.7105 34.2144 18.995C34.2144 18.995 34.2297 1.26738 34.2603 0.870605L28.1305 4.23301Z" fill="url(#paint5_linear_2_6792)"/>
</g>
<mask id="mask2_2_6792" style="mask-type:alpha" maskUnits="userSpaceOnUse" x="0" y="0" width="120" height="38">
<g clip-path="url(#clip3_2_6792)">
<mask id="mask3_2_6792" style="mask-type:alpha" maskUnits="userSpaceOnUse" x="0" y="0" width="120" height="38">
<path d="M64.0826 28.8024H43.4902V27.9733L59.3757 16.8178V12.6365H48.7939V16.5838H44.1481V13.9183C44.3368 12.5703 44.0002 12.377 45.1782 11.6038C45.7851 11.207 46.7489 11.2528 47.8351 11.2528H60.3395C61.4206 11.2528 62.5272 11.5021 62.9913 11.6038C64.0877 11.8378 64.0163 13.5521 64.0163 13.9183V16.2278C64.0163 16.6754 63.6084 17.1892 62.7924 17.764L49.0591 27.429H64.0826V28.8024Z" fill="black"/>
<path d="M92.6712 28.8025H89.489L75.6281 15.8972V28.8025H71.2832V11.2529H74.7306L88.3263 23.9344V11.2529H92.6712V28.8025Z" fill="black"/>
<path d="M120 14.5899C120 16.0549 120 25.9081 120 25.9081C120 27.8513 119.041 28.7924 115.66 28.7924H103.517C100.57 28.7924 99.096 28.1718 99.096 26.9357C99.096 26.7881 99.1164 26.5694 99.1572 26.2795C99.1929 25.9895 99.2133 25.7809 99.2133 25.6487H104.247V27.3223H114.93V23.9955H106.516C104.236 23.9955 102.1 24.2498 100.59 23.736C99.0807 23.2172 98.5605 22.0625 98.5605 21.2842V13.893C98.5605 12.8553 99.198 11.9447 100.891 11.5581C102.171 11.2682 105.639 11.2529 105.639 11.2529H116.445C120.096 11.2529 120 13.1859 120 14.5899ZM114.925 22.4796V12.9265C110.876 12.84 108.52 12.7942 107.852 12.7993C103.038 12.8349 102.283 13.6844 102.207 15.6683V19.6055C102.237 22.5559 104.083 22.5559 107.852 22.4796H114.925Z" fill="black"/>
<path d="M17.2219 29.4535C10.1129 29.7435 6.48199 25.3942 3.17231 22.4133C3.17231 22.4642 3.16211 22.51 3.16211 22.5608C3.16211 29.6773 9.90895 35.4509 17.6706 35.4509C25.4323 35.4509 31.2765 29.6824 31.2765 22.5608C31.2765 22.5151 31.2663 22.4642 31.2663 22.4133C27.9158 24.9415 25.0447 29.133 17.2219 29.4535Z" fill="url(#paint6_linear_2_6792)"/>
<path d="M16.2373 36.6921C11.9638 37.1296 7.91977 35.7968 5.74731 34.3624C3.32498 32.7549 1.59619 30.7253 0.943436 28.2531C0.29068 25.791 0.0509966 23.212 0.0509966 19.8191C0.0509966 19.8191 0.0305979 1.32842 0 0.870605L6.42047 3.43437L6.12979 19.5698C6.12979 19.5698 6.12979 25.089 6.12979 25.2366C6.12979 34.6269 15.9925 35.0033 17.1297 35.0033C22.5303 35.0084 19.2053 36.392 16.2373 36.6921Z" fill="black"/>
<path d="M28.1305 4.23301L28.2835 12.5754L28.3855 18.3083C28.3855 18.3083 28.003 25.791 28.003 25.8063C27.7837 27.724 27.5134 28.5634 26.7485 30.0335C24.2293 34.0012 19.864 35.0999 14.2849 36.1173C13.7342 36.2191 12.087 36.5955 10.9141 36.4225C12.495 36.804 14.2696 37.038 16.1106 37.0889C16.233 37.1143 16.4268 37.1296 16.7838 37.1296C20.7207 37.1296 25.4328 35.9901 27.901 34.5658C30.3285 33.1619 32.302 31.6562 33.0568 29.4586C33.8268 27.2001 34.2144 23.7105 34.2144 18.995C34.2144 18.995 34.2297 1.26738 34.2603 0.870605L28.1305 4.23301Z" fill="url(#paint7_linear_2_6792)"/>
</mask>
<g mask="url(#mask3_2_6792)">
<rect x="41.9062" y="11.2512" width="79.1004" height="18.6641" fill="white"/>
</g>
</g>
</mask>
<g mask="url(#mask2_2_6792)">
</g>
<mask id="mask4_2_6792" style="mask-type:alpha" maskUnits="userSpaceOnUse" x="0" y="0" width="120" height="38">
<g clip-path="url(#clip4_2_6792)">
<path d="M64.0826 28.8024H43.4902V27.9733L59.3757 16.8178V12.6365H48.7939V16.5838H44.1481V13.9183C44.3368 12.5703 44.0002 12.377 45.1782 11.6038C45.7851 11.207 46.7489 11.2528 47.8351 11.2528H60.3395C61.4206 11.2528 62.5272 11.5021 62.9913 11.6038C64.0877 11.8378 64.0163 13.5521 64.0163 13.9183V16.2278C64.0163 16.6754 63.6084 17.1892 62.7924 17.764L49.0591 27.429H64.0826V28.8024Z" fill="black"/>
<path d="M92.6712 28.8025H89.489L75.6281 15.8972V28.8025H71.2832V11.2529H74.7306L88.3263 23.9344V11.2529H92.6712V28.8025Z" fill="black"/>
<path d="M120 14.5899C120 16.0549 120 25.9081 120 25.9081C120 27.8513 119.041 28.7924 115.66 28.7924H103.517C100.57 28.7924 99.096 28.1718 99.096 26.9357C99.096 26.7881 99.1164 26.5694 99.1572 26.2795C99.1929 25.9895 99.2133 25.7809 99.2133 25.6487H104.247V27.3223H114.93V23.9955H106.516C104.236 23.9955 102.1 24.2498 100.59 23.736C99.0807 23.2172 98.5605 22.0625 98.5605 21.2842V13.893C98.5605 12.8553 99.198 11.9447 100.891 11.5581C102.171 11.2682 105.639 11.2529 105.639 11.2529H116.445C120.096 11.2529 120 13.1859 120 14.5899ZM114.925 22.4796V12.9265C110.876 12.84 108.52 12.7942 107.852 12.7993C103.038 12.8349 102.283 13.6844 102.207 15.6683V19.6055C102.237 22.5559 104.083 22.5559 107.852 22.4796H114.925Z" fill="black"/>
<path d="M17.2219 29.4535C10.1129 29.7435 6.48199 25.3942 3.17231 22.4133C3.17231 22.4642 3.16211 22.51 3.16211 22.5608C3.16211 29.6773 9.90895 35.4509 17.6706 35.4509C25.4323 35.4509 31.2765 29.6824 31.2765 22.5608C31.2765 22.5151 31.2663 22.4642 31.2663 22.4133C27.9158 24.9415 25.0447 29.133 17.2219 29.4535Z" fill="url(#paint8_linear_2_6792)"/>
<path d="M16.2373 36.6921C11.9638 37.1296 7.91977 35.7968 5.74731 34.3624C3.32498 32.7549 1.59619 30.7253 0.943436 28.2531C0.29068 25.791 0.0509966 23.212 0.0509966 19.8191C0.0509966 19.8191 0.0305979 1.32842 0 0.870605L6.42047 3.43437L6.12979 19.5698C6.12979 19.5698 6.12979 25.089 6.12979 25.2366C6.12979 34.6269 15.9925 35.0033 17.1297 35.0033C22.5303 35.0084 19.2053 36.392 16.2373 36.6921Z" fill="black"/>
<path d="M28.1305 4.23301L28.2835 12.5754L28.3855 18.3083C28.3855 18.3083 28.003 25.791 28.003 25.8063C27.7837 27.724 27.5134 28.5634 26.7485 30.0335C24.2293 34.0012 19.864 35.0999 14.2849 36.1173C13.7342 36.2191 12.087 36.5955 10.9141 36.4225C12.495 36.804 14.2696 37.038 16.1106 37.0889C16.233 37.1143 16.4268 37.1296 16.7838 37.1296C20.7207 37.1296 25.4328 35.9901 27.901 34.5658C30.3285 33.1619 32.302 31.6562 33.0568 29.4586C33.8268 27.2001 34.2144 23.7105 34.2144 18.995C34.2144 18.995 34.2297 1.26738 34.2603 0.870605L28.1305 4.23301Z" fill="url(#paint9_linear_2_6792)"/>
</g>
<mask id="mask5_2_6792" style="mask-type:alpha" maskUnits="userSpaceOnUse" x="0" y="0" width="120" height="38">
<g clip-path="url(#clip5_2_6792)">
<mask id="mask6_2_6792" style="mask-type:alpha" maskUnits="userSpaceOnUse" x="0" y="0" width="120" height="38">
<path d="M64.0826 28.8024H43.4902V27.9733L59.3757 16.8178V12.6365H48.7939V16.5838H44.1481V13.9183C44.3368 12.5703 44.0002 12.377 45.1782 11.6038C45.7851 11.207 46.7489 11.2528 47.8351 11.2528H60.3395C61.4206 11.2528 62.5272 11.5021 62.9913 11.6038C64.0877 11.8378 64.0163 13.5521 64.0163 13.9183V16.2278C64.0163 16.6754 63.6084 17.1892 62.7924 17.764L49.0591 27.429H64.0826V28.8024Z" fill="black"/>
<path d="M92.6712 28.8025H89.489L75.6281 15.8972V28.8025H71.2832V11.2529H74.7306L88.3263 23.9344V11.2529H92.6712V28.8025Z" fill="black"/>
<path d="M120 14.5899C120 16.0549 120 25.9081 120 25.9081C120 27.8513 119.041 28.7924 115.66 28.7924H103.517C100.57 28.7924 99.096 28.1718 99.096 26.9357C99.096 26.7881 99.1164 26.5694 99.1572 26.2795C99.1929 25.9895 99.2133 25.7809 99.2133 25.6487H104.247V27.3223H114.93V23.9955H106.516C104.236 23.9955 102.1 24.2498 100.59 23.736C99.0807 23.2172 98.5605 22.0625 98.5605 21.2842V13.893C98.5605 12.8553 99.198 11.9447 100.891 11.5581C102.171 11.2682 105.639 11.2529 105.639 11.2529H116.445C120.096 11.2529 120 13.1859 120 14.5899ZM114.925 22.4796V12.9265C110.876 12.84 108.52 12.7942 107.852 12.7993C103.038 12.8349 102.283 13.6844 102.207 15.6683V19.6055C102.237 22.5559 104.083 22.5559 107.852 22.4796H114.925Z" fill="black"/>
<path d="M17.2219 29.4535C10.1129 29.7435 6.48199 25.3942 3.17231 22.4133C3.17231 22.4642 3.16211 22.51 3.16211 22.5608C3.16211 29.6773 9.90895 35.4509 17.6706 35.4509C25.4323 35.4509 31.2765 29.6824 31.2765 22.5608C31.2765 22.5151 31.2663 22.4642 31.2663 22.4133C27.9158 24.9415 25.0447 29.133 17.2219 29.4535Z" fill="url(#paint10_linear_2_6792)"/>
<path d="M16.2373 36.6921C11.9638 37.1296 7.91977 35.7968 5.74731 34.3624C3.32498 32.7549 1.59619 30.7253 0.943436 28.2531C0.29068 25.791 0.0509966 23.212 0.0509966 19.8191C0.0509966 19.8191 0.0305979 1.32842 0 0.870605L6.42047 3.43437L6.12979 19.5698C6.12979 19.5698 6.12979 25.089 6.12979 25.2366C6.12979 34.6269 15.9925 35.0033 17.1297 35.0033C22.5303 35.0084 19.2053 36.392 16.2373 36.6921Z" fill="black"/>
<path d="M28.1305 4.23301L28.2835 12.5754L28.3855 18.3083C28.3855 18.3083 28.003 25.791 28.003 25.8063C27.7837 27.724 27.5134 28.5634 26.7485 30.0335C24.2293 34.0012 19.864 35.0999 14.2849 36.1173C13.7342 36.2191 12.087 36.5955 10.9141 36.4225C12.495 36.804 14.2696 37.038 16.1106 37.0889C16.233 37.1143 16.4268 37.1296 16.7838 37.1296C20.7207 37.1296 25.4328 35.9901 27.901 34.5658C30.3285 33.1619 32.302 31.6562 33.0568 29.4586C33.8268 27.2001 34.2144 23.7105 34.2144 18.995C34.2144 18.995 34.2297 1.26738 34.2603 0.870605L28.1305 4.23301Z" fill="url(#paint11_linear_2_6792)"/>
</mask>
<g mask="url(#mask6_2_6792)">
<rect x="41.9062" y="11.2512" width="79.1004" height="18.6641" fill="white"/>
</g>
</g>
</mask>
<g mask="url(#mask5_2_6792)">
</g>
</mask>
<g mask="url(#mask4_2_6792)">
<rect x="41.5352" y="8.24609" width="89.16" height="28.8835" fill="white"/>
</g>
<defs>
<linearGradient id="paint0_linear_2_6792" x1="3.16415" y1="28.9319" x2="31.2774" y2="28.9319" gradientUnits="userSpaceOnUse">
<stop stop-color="#00707F"/>
<stop offset="0.8606" stop-color="#31C4EE"/>
</linearGradient>
<linearGradient id="paint1_linear_2_6792" x1="30.8522" y1="-0.039074" x2="20.4285" y2="38.9608" gradientUnits="userSpaceOnUse">
<stop offset="0.4121" stop-color="#ED1C24"/>
<stop offset="0.9879" stop-color="#FFF200"/>
</linearGradient>
<linearGradient id="paint2_linear_2_6792" x1="3.16415" y1="28.9319" x2="31.2774" y2="28.9319" gradientUnits="userSpaceOnUse">
<stop stop-color="#00707F"/>
<stop offset="0.8606" stop-color="#31C4EE"/>
</linearGradient>
<linearGradient id="paint3_linear_2_6792" x1="30.8522" y1="-0.039074" x2="20.4285" y2="38.9608" gradientUnits="userSpaceOnUse">
<stop offset="0.4121" stop-color="#ED1C24"/>
<stop offset="0.9879" stop-color="#FFF200"/>
</linearGradient>
<linearGradient id="paint4_linear_2_6792" x1="3.16415" y1="28.9319" x2="31.2774" y2="28.9319" gradientUnits="userSpaceOnUse">
<stop stop-color="#00707F"/>
<stop offset="0.8606" stop-color="#31C4EE"/>
</linearGradient>
<linearGradient id="paint5_linear_2_6792" x1="30.8522" y1="-0.039074" x2="20.4285" y2="38.9608" gradientUnits="userSpaceOnUse">
<stop offset="0.4121" stop-color="#ED1C24"/>
<stop offset="0.9879" stop-color="#FFF200"/>
</linearGradient>
<linearGradient id="paint6_linear_2_6792" x1="3.16415" y1="28.9319" x2="31.2774" y2="28.9319" gradientUnits="userSpaceOnUse">
<stop stop-color="#00707F"/>
<stop offset="0.8606" stop-color="#31C4EE"/>
</linearGradient>
<linearGradient id="paint7_linear_2_6792" x1="30.8522" y1="-0.039074" x2="20.4285" y2="38.9608" gradientUnits="userSpaceOnUse">
<stop offset="0.4121" stop-color="#ED1C24"/>
<stop offset="0.9879" stop-color="#FFF200"/>
</linearGradient>
<linearGradient id="paint8_linear_2_6792" x1="3.16415" y1="28.9319" x2="31.2774" y2="28.9319" gradientUnits="userSpaceOnUse">
<stop stop-color="#00707F"/>
<stop offset="0.8606" stop-color="#31C4EE"/>
</linearGradient>
<linearGradient id="paint9_linear_2_6792" x1="30.8522" y1="-0.039074" x2="20.4285" y2="38.9608" gradientUnits="userSpaceOnUse">
<stop offset="0.4121" stop-color="#ED1C24"/>
<stop offset="0.9879" stop-color="#FFF200"/>
</linearGradient>
<linearGradient id="paint10_linear_2_6792" x1="3.16415" y1="28.9319" x2="31.2774" y2="28.9319" gradientUnits="userSpaceOnUse">
<stop stop-color="#00707F"/>
<stop offset="0.8606" stop-color="#31C4EE"/>
</linearGradient>
<linearGradient id="paint11_linear_2_6792" x1="30.8522" y1="-0.039074" x2="20.4285" y2="38.9608" gradientUnits="userSpaceOnUse">
<stop offset="0.4121" stop-color="#ED1C24"/>
<stop offset="0.9879" stop-color="#FFF200"/>
</linearGradient>
<clipPath id="clip0_2_6792">
<rect width="120" height="36.259" fill="white" transform="translate(0 0.870605)"/>
</clipPath>
<clipPath id="clip1_2_6792">
<rect width="120" height="36.259" fill="white" transform="translate(0 0.870605)"/>
</clipPath>
<clipPath id="clip2_2_6792">
<rect width="120" height="36.259" fill="white" transform="translate(0 0.870605)"/>
</clipPath>
<clipPath id="clip3_2_6792">
<rect width="120" height="36.259" fill="white" transform="translate(0 0.870605)"/>
</clipPath>
<clipPath id="clip4_2_6792">
<rect width="120" height="36.259" fill="white" transform="translate(0 0.870605)"/>
</clipPath>
<clipPath id="clip5_2_6792">
<rect width="120" height="36.259" fill="white" transform="translate(0 0.870605)"/>
</clipPath>
</defs>
</svg>
