<svg width="101" height="31" viewBox="0 0 101 31" fill="none" xmlns="http://www.w3.org/2000/svg">
<g clip-path="url(#clip0_16_2549)">
<mask id="mask0_16_2549" style="mask-type:alpha" maskUnits="userSpaceOnUse" x="0" y="0" width="101" height="31">
<path d="M53.9015 23.6441H36.7412V22.9423L49.9791 13.4992V9.9597H41.1609V13.3011H37.2894V11.0448C37.4467 9.90372 37.1662 9.7401 38.1479 9.08559C38.6536 8.74972 39.4568 8.78847 40.362 8.78847H50.7823C51.6832 8.78847 52.6054 8.99947 52.9921 9.08559C53.9058 9.28366 53.8463 10.7348 53.8463 11.0448V12.9997C53.8463 13.3787 53.5063 13.8136 52.8264 14.3001L41.3819 22.4815H53.9015V23.6441Z" fill="black"/>
<path d="M77.7256 23.6441H75.0738L63.5231 12.7198V23.6441H59.9023V8.78845H62.7751L74.1049 19.5233V8.78845H77.7256V23.6441Z" fill="black"/>
<path d="M100.5 11.6132C100.5 12.8533 100.5 21.194 100.5 21.194C100.5 22.8389 99.7006 23.6355 96.8831 23.6355H86.7645C84.3082 23.6355 83.08 23.1102 83.08 22.0638C83.08 21.9389 83.097 21.7538 83.131 21.5083C83.1608 21.2629 83.1778 21.0864 83.1778 20.9744H87.3722V22.3911H96.2754V19.5749H89.2633C87.3637 19.5749 85.5831 19.7902 84.3252 19.3553C83.0673 18.9161 82.6338 17.9387 82.6338 17.2799V11.0233C82.6338 10.1448 83.165 9.37407 84.5759 9.04681C85.6426 8.80137 88.5324 8.78845 88.5324 8.78845H97.5375C100.58 8.78845 100.5 10.4247 100.5 11.6132ZM96.2711 18.2918V10.2051C92.8968 10.1319 90.9335 10.0932 90.3768 10.0975C86.365 10.1276 85.7361 10.8467 85.6723 12.526V15.8589C85.6978 18.3564 87.2362 18.3564 90.3768 18.2918H96.2711Z" fill="black"/>
<path d="M14.8512 24.1953C8.92713 24.4408 5.90133 20.7591 3.14327 18.2358C3.14327 18.2789 3.13477 18.3177 3.13477 18.3607C3.13477 24.3848 8.75714 29.2721 15.2252 29.2721C21.6933 29.2721 26.5634 24.3891 26.5634 18.3607C26.5634 18.322 26.5549 18.2789 26.5549 18.2358C23.7629 20.3759 21.3703 23.924 14.8512 24.1953Z" fill="url(#paint0_linear_16_2549)"/>
<path d="M14.0311 30.3228C10.4698 30.6931 7.0998 29.5649 5.28943 28.3506C3.27081 26.9899 1.83016 25.2718 1.2862 23.1791C0.742234 21.095 0.542497 18.9119 0.542497 16.0398C0.542497 16.0398 0.525498 0.387539 0.5 0L5.85039 2.17022L5.60816 15.8288C5.60816 15.8288 5.60816 20.5008 5.60816 20.6257C5.60816 28.5745 13.8271 28.8932 14.7748 28.8932C19.2752 28.8975 16.5044 30.0687 14.0311 30.3228Z" fill="black"/>
<path d="M23.9418 2.84626L24.0692 9.90807L24.1542 14.7609C24.1542 14.7609 23.8355 21.095 23.8355 21.1079C23.6528 22.7313 23.4275 23.4418 22.7901 24.6862C20.6907 28.0449 17.053 28.975 12.4038 29.8362C11.9448 29.9223 10.5722 30.2409 9.59473 30.0945C10.9121 30.4175 12.391 30.6156 13.9252 30.6586C14.0272 30.6802 14.1887 30.6931 14.4861 30.6931C17.7669 30.6931 21.6937 29.7285 23.7505 28.5229C25.7734 27.3344 27.418 26.0598 28.047 24.1996C28.6887 22.2878 29.0117 19.3339 29.0117 15.3422C29.0117 15.3422 29.0244 0.335867 29.0499 0L23.9418 2.84626Z" fill="url(#paint1_linear_16_2549)"/>
</mask>
<g mask="url(#mask0_16_2549)">
<rect x="-6.38477" y="-4.78345" width="113.769" height="41.9911" fill="#666666"/>
</g>
</g>
<defs>
<linearGradient id="paint0_linear_16_2549" x1="3.13647" y1="23.7538" x2="26.5642" y2="23.7538" gradientUnits="userSpaceOnUse">
<stop stop-color="#00707F"/>
<stop offset="0.8606" stop-color="#31C4EE"/>
</linearGradient>
<linearGradient id="paint1_linear_16_2549" x1="26.2099" y1="-0.77004" x2="17.2658" y2="32.1733" gradientUnits="userSpaceOnUse">
<stop offset="0.4121" stop-color="#ED1C24"/>
<stop offset="0.9879" stop-color="#FFF200"/>
</linearGradient>
<clipPath id="clip0_16_2549">
<rect width="100" height="30.6931" fill="white" transform="translate(0.5)"/>
</clipPath>
</defs>
</svg>
