<svg width="1022" height="1022" viewBox="0 0 1022 1022" fill="none" xmlns="http://www.w3.org/2000/svg">
<path d="M116.322 835.783L117.199 835.062C118.156 836.226 119.118 837.386 120.086 838.541L119.217 839.273C118.246 838.112 117.283 836.952 116.322 835.783ZM113.457 832.27C112.506 831.092 111.564 829.916 110.623 828.731L111.512 828.024C112.449 829.205 113.391 830.381 114.338 831.553L113.457 832.27ZM122.138 842.732L123.003 841.995C123.98 843.143 124.958 844.281 125.946 845.42L125.085 846.161C124.098 845.022 123.115 843.879 122.138 842.732ZM107.823 825.172C106.891 823.978 105.97 822.785 105.053 821.588L105.955 820.897C106.871 822.094 107.793 823.287 108.72 824.476L107.823 825.172ZM128.064 849.556L128.916 848.805C129.909 849.931 130.908 851.052 131.911 852.169L131.072 852.927C130.06 851.809 129.061 850.687 128.064 849.556ZM102.309 817.975C101.398 816.764 100.496 815.555 99.5994 814.341L100.509 813.67C101.401 814.878 102.303 816.088 103.21 817.293L102.309 817.975ZM134.109 856.291L134.944 855.528C135.962 856.642 136.984 857.752 138.008 858.853L137.182 859.626C136.155 858.511 135.127 857.405 134.109 856.291ZM96.9244 810.688C96.0378 809.466 95.1562 808.24 94.2847 807.006L95.2064 806.349C96.0788 807.575 96.9604 808.801 97.847 810.022L96.9244 810.688ZM140.286 862.917L141.108 862.14C142.146 863.237 143.185 864.325 144.234 865.405L143.42 866.193C142.367 865.108 141.324 864.015 140.286 862.917ZM91.6701 803.303C90.8036 802.065 89.9422 800.822 89.095 799.576L90.0292 798.935C90.8814 800.176 91.7387 801.414 92.6001 802.657L91.6701 803.303ZM146.574 869.443L147.384 868.651C148.438 869.726 149.497 870.798 150.566 871.862L149.764 872.664C148.701 871.597 147.632 870.524 146.574 869.443ZM86.5501 795.825C85.7038 794.569 84.8718 793.311 84.0397 792.053L84.9863 791.426C85.8183 792.685 86.6513 793.934 87.4925 795.193L86.5501 795.825ZM152.981 875.856L153.778 875.048C154.852 876.107 155.936 877.158 157.016 878.204L156.232 879.018C155.138 877.975 154.059 876.92 152.981 875.856ZM81.5544 788.261C80.7324 786.994 79.9204 785.719 79.1085 784.444L80.0625 783.837C80.8702 785.107 81.6822 786.382 82.5001 787.643L81.5544 788.261ZM159.5 882.158L160.279 881.34C161.379 882.378 162.474 883.412 163.574 884.441L162.802 885.27C161.694 884.231 160.599 883.197 159.5 882.158ZM76.7021 780.604C75.9002 779.321 75.1127 778.034 74.325 776.748L75.2914 776.156C76.0791 777.442 76.8625 778.724 77.6643 780.007L76.7021 780.604ZM166.128 888.337L166.895 887.503C168.011 888.52 169.126 889.537 170.242 890.545L169.483 891.389C168.358 890.371 167.243 889.354 166.128 888.337ZM71.9823 772.872C71.2048 771.577 70.4373 770.274 69.6699 768.971L70.6436 768.399C71.4069 769.697 72.1703 770.994 72.9478 772.289L71.9823 772.872ZM172.865 894.402L173.615 893.557C174.746 894.552 175.877 895.548 177.019 896.535L176.277 897.39C175.131 896.398 173.996 895.397 172.865 894.402ZM67.401 765.052C66.6486 763.736 65.9004 762.426 65.1623 761.107L66.1486 760.55C66.8876 761.859 67.6307 763.174 68.384 764.48L67.401 765.052ZM179.711 900.342L180.449 899.482C181.6 900.461 182.747 901.435 183.905 902.4L183.175 903.27C182.014 902.3 180.862 901.321 179.711 900.342ZM62.9622 757.148C62.2342 755.821 61.5103 754.499 60.7965 753.169L61.7901 752.63C62.509 753.956 63.2278 755.283 63.9568 756.6L62.9622 757.148ZM186.658 906.158L187.383 905.283C188.55 906.24 189.713 907.192 190.887 908.136L190.175 909.017C188.997 908.078 187.829 907.121 186.658 906.158ZM58.6652 749.17C57.9614 747.831 57.2578 746.493 56.5683 745.151L57.5784 744.633C58.273 745.97 58.9675 747.308 59.6671 748.641L58.6652 749.17ZM193.708 911.855L194.412 910.964C195.596 911.899 196.779 912.835 197.968 913.757L197.274 914.649C196.085 913.727 194.892 912.79 193.708 911.855ZM54.5057 741.112C53.8263 739.762 53.1519 738.408 52.4816 737.059L53.4992 736.56C54.1644 737.913 54.8397 739.258 55.5191 740.608L54.5057 741.112ZM200.861 917.417L201.547 916.515C202.746 917.429 203.946 918.343 205.151 919.243L204.469 920.15C203.264 919.25 202.064 918.336 200.861 917.417ZM50.492 732.986C49.8369 731.624 49.1818 730.262 48.5409 728.898L49.5659 728.418C50.2068 729.783 50.8577 731.139 51.5128 732.501L50.492 732.986ZM208.117 922.86L208.786 921.947C210.001 922.839 211.217 923.731 212.438 924.61L211.774 925.528C210.548 924.644 209.333 923.752 208.117 922.86ZM46.6241 724.79C45.9933 723.417 45.3625 722.043 44.746 720.667L45.7833 720.202C46.3999 721.579 47.0266 722.947 47.6574 724.32L46.6241 724.79ZM215.456 928.167L216.113 927.239C217.344 928.109 218.576 928.98 219.813 929.837L219.166 930.766C217.929 929.909 216.692 929.043 215.456 928.167ZM42.9072 716.52C42.3007 715.136 41.6992 713.747 41.1019 712.363L42.1467 711.918C42.7389 713.305 43.3414 714.685 43.9437 716.065L42.9072 716.52ZM222.901 933.345L223.54 932.406C224.787 933.255 226.035 934.104 227.288 934.94L226.659 935.88C225.401 935.039 224.148 934.194 222.901 933.345ZM39.3352 708.191C38.7488 706.79 38.1717 705.389 37.5996 703.985L38.6517 703.558C39.2197 704.958 39.7969 706.358 40.3832 707.76L39.3352 708.191ZM230.433 938.384L231.055 937.434C232.318 938.261 233.577 939.083 234.847 939.897L234.235 940.848C232.965 940.034 231.697 939.211 230.433 938.384ZM35.9025 699.764C35.3446 698.356 34.7876 696.939 34.2439 695.528L35.2993 695.116C35.843 696.527 36.3959 697.939 36.9588 699.342L35.9025 699.764ZM238.058 943.287L238.665 942.331C239.941 943.132 241.216 943.933 242.502 944.725L241.907 945.687C240.617 944.899 239.332 944.097 238.058 943.287ZM32.6198 691.272C32.0862 689.853 31.5576 688.429 31.0383 687.007L32.101 686.614C32.6204 688.037 33.1499 689.451 33.6835 690.87L32.6198 691.272ZM245.765 948.055L246.355 947.089C247.642 947.872 248.938 948.647 250.23 949.417L249.653 950.39C248.352 949.619 247.055 948.844 245.765 948.055ZM29.4912 682.722C28.9819 681.291 28.4818 679.861 27.9867 678.427L29.057 678.053C29.5479 679.482 30.053 680.908 30.5623 682.339L29.4912 682.722ZM253.555 952.688L254.128 951.71C255.43 952.472 256.738 953.22 258.047 953.968L257.487 954.952C256.17 954.203 254.857 953.45 253.555 952.688ZM26.5199 674.126C26.0391 672.689 25.5633 671.247 25.0917 669.811L26.1693 669.456C26.6409 670.893 27.1126 672.329 27.5934 673.767L26.5199 674.126ZM261.432 957.181L261.988 956.192C263.302 956.927 264.622 957.657 265.947 958.375L265.405 959.37C264.075 958.647 262.747 957.916 261.432 957.181ZM23.6978 665.475C23.2412 664.027 22.7888 662.583 22.3465 661.13L23.4315 660.796C23.8747 662.239 24.3221 663.687 24.7795 665.126L23.6978 665.475ZM269.385 961.527L269.923 960.527C271.249 961.236 272.571 961.939 273.903 962.634L273.378 963.64C272.037 962.944 270.711 962.236 269.385 961.527ZM21.033 656.78C20.6049 655.324 20.1768 653.869 19.7579 652.414L20.8453 652.103C21.2642 653.557 21.6881 655.008 22.112 656.458L21.033 656.78ZM277.376 965.716L277.891 964.709C279.229 965.391 280.567 966.072 281.906 966.745L281.399 967.762C280.056 967.084 278.718 966.403 277.376 965.716ZM18.5297 648.044C18.1251 646.587 17.7254 645.125 17.3359 643.654L18.4306 643.362C18.8211 644.823 19.2166 646.28 19.6212 647.738L18.5297 648.044ZM285.445 969.764L285.943 968.746C287.292 969.41 288.642 970.065 289.993 970.711L289.504 971.729C288.153 971.084 286.799 970.424 285.445 969.764ZM16.1796 639.259C15.7993 637.789 15.4282 636.321 15.0662 634.853L16.1683 634.581C16.5303 636.048 16.9065 637.512 17.2827 638.977L16.1796 639.259ZM293.589 973.666L294.07 972.637C295.43 973.274 296.792 973.903 298.159 974.527L297.688 975.557C296.316 974.936 294.95 974.303 293.589 973.666ZM13.9911 630.433C13.6392 628.958 13.2915 627.487 12.9538 626.008L14.0582 625.758C14.3968 627.228 14.7396 628.703 15.0924 630.17L13.9911 630.433ZM301.802 977.426L302.265 976.395C303.637 977.006 305.01 977.617 306.389 978.215L305.935 979.255C304.553 978.643 303.175 978.037 301.802 977.426ZM11.9582 621.581C11.6297 620.103 11.3154 618.622 11.0011 617.14L12.1089 616.905C12.419 618.381 12.7383 619.859 13.0668 621.337L11.9582 621.581ZM310.081 981.04L310.526 979.998C311.906 980.587 313.29 981.171 314.685 981.747L314.249 982.789C312.855 982.213 311.466 981.624 310.081 981.04ZM10.0867 612.689C9.78669 611.205 9.49585 609.721 9.21002 608.233L10.3251 608.017C10.6068 609.5 10.8977 610.984 11.2028 612.464L10.0867 612.689ZM318.421 984.502L318.848 983.449C320.24 984.011 321.636 984.569 323.038 985.122L322.62 986.175C321.223 985.627 319.822 985.064 318.421 984.502ZM8.37087 603.771C8.09927 602.28 7.83182 600.793 7.57444 599.299L8.69193 599.106C8.95021 600.592 9.21262 602.082 9.48926 603.569L8.37087 603.771ZM326.83 987.822L327.235 986.763C328.638 987.307 330.042 987.833 331.45 988.364L331.055 989.424C329.646 988.893 328.238 988.362 326.83 987.822ZM6.81562 594.822C6.56742 593.328 6.32842 591.835 6.09949 590.334L7.22021 590.156C7.45003 591.648 7.68904 593.14 7.93724 594.634L6.81562 594.822ZM335.296 990.995L335.687 989.93C337.102 990.448 338.513 990.951 339.933 991.455L339.551 992.521C338.131 992.017 336.715 991.509 335.296 990.995ZM5.42511 585.847C5.20537 584.346 4.9948 582.847 4.78838 581.353L5.91149 581.198C6.11791 582.692 6.32841 584.191 6.54906 585.682L5.42511 585.847ZM343.819 994.012L344.188 992.94C345.61 993.426 347.032 993.911 348.459 994.393L348.099 995.466C346.672 994.984 345.245 994.503 343.819 994.012ZM4.1893 576.854C3.9971 575.357 3.81498 573.851 3.63287 572.345L4.75833 572.214C4.9363 573.714 5.11928 575.211 5.31147 576.708L4.1893 576.854ZM352.397 996.88L352.748 995.807C354.177 996.27 355.611 996.729 357.045 997.179L356.703 998.263C355.264 997.808 353.826 997.344 352.397 996.88ZM3.11321 567.84C2.94946 566.336 2.7857 564.832 2.63618 563.325L3.76486 563.208C3.91942 564.711 4.07901 566.21 4.24275 567.714L3.11321 567.84ZM361.019 999.596L361.352 998.511C362.793 998.948 364.233 999.384 365.675 999.812L365.351 1000.9C363.909 1000.47 362.464 1000.04 361.019 999.596ZM2.19679 558.805C2.05646 557.298 1.92534 555.793 1.79923 554.283L2.9302 554.189C3.05721 555.69 3.18842 557.195 3.32875 558.701L2.19679 558.805ZM369.696 1002.16L370.007 1001.07C371.454 1001.49 372.903 1001.89 374.351 1002.3L374.05 1003.39C372.602 1002.98 371.149 1002.57 369.696 1002.16ZM1.44339 549.762C1.3315 548.249 1.22793 546.746 1.12523 545.234L2.25447 545.159C2.35303 546.666 2.4566 548.168 2.56938 549.672L1.44339 549.762ZM378.422 1004.57L378.714 1003.48C380.168 1003.87 381.624 1004.25 383.08 1004.63L382.797 1005.72C381.337 1005.34 379.872 1004.96 378.422 1004.57ZM0.85294 540.712C0.768606 539.201 0.689304 537.687 0.618299 536.183L1.74989 536.131C1.8209 537.635 1.90107 539.14 1.98541 540.65L0.85294 540.712ZM387.181 1006.83L387.45 1005.73C388.913 1006.09 390.375 1006.45 391.838 1006.8L391.577 1007.9C390.114 1007.55 388.647 1007.19 387.181 1006.83ZM0.417205 531.644C0.35628 530.131 0.304522 528.62 0.261965 527.109L1.39174 527.075C1.4343 528.586 1.4911 530.093 1.54788 531.601L0.417205 531.644ZM395.983 1008.93L396.239 1007.83C397.708 1008.16 399.178 1008.49 400.644 1008.82L400.396 1009.92C398.931 1009.6 397.457 1009.27 395.983 1008.93ZM0.148544 522.574C0.115171 521.064 0.0959957 519.551 0.0718077 518.042L1.20896 518.028C1.22396 519.536 1.25322 521.04 1.28659 522.55L0.148544 522.574ZM404.827 1010.88L405.065 1009.77C406.537 1010.08 408.014 1010.39 409.491 1010.69L409.267 1011.8C407.781 1011.49 406.304 1011.19 404.827 1010.88ZM0.0368644 513.51C0.0360853 511.999 0.0353302 510.488 0.0395915 508.972L1.17494 508.976C1.16654 510.486 1.16317 511.992 1.16899 513.5L0.0368644 513.51ZM413.701 1012.67L413.917 1011.56C415.395 1011.84 416.875 1012.12 418.355 1012.39L418.149 1013.51C416.668 1013.24 415.185 1012.95 413.701 1012.67ZM0.0881975 504.439C0.110827 502.925 0.137614 501.417 0.169428 499.904L1.30299 499.926C1.26703 501.434 1.24024 502.942 1.2185 504.447L0.0881975 504.439ZM422.609 1014.31L422.806 1013.19C424.287 1013.45 425.779 1013.7 427.262 1013.94L427.074 1015.06C425.582 1014.82 424.095 1014.56 422.609 1014.31ZM0.296513 495.373C0.346695 493.863 0.396947 492.352 0.460457 490.847L1.59634 490.892C1.53283 492.397 1.48267 493.908 1.43338 495.41L0.296513 495.373ZM431.546 1015.78L431.725 1014.66C433.214 1014.89 434.703 1015.12 436.193 1015.34L436.027 1016.46C434.528 1016.24 433.039 1016.02 431.546 1015.78ZM0.661897 486.314C0.739632 484.806 0.817401 483.298 0.90432 481.79L2.03847 481.854C1.95155 483.362 1.86967 484.865 1.79697 486.369L0.661897 486.314ZM440.508 1017.1L440.664 1015.98C442.16 1016.18 443.651 1016.38 445.144 1016.58L444.997 1017.7C443.504 1017.51 442.004 1017.31 440.508 1017.1ZM1.1885 477.266C1.28964 475.755 1.39493 474.25 1.5094 472.745L2.63671 472.831C2.52224 474.336 2.41281 475.837 2.31671 477.343L1.1885 477.266ZM449.49 1018.26L449.627 1017.14C451.126 1017.31 452.62 1017.49 454.12 1017.66L453.991 1018.78C452.492 1018.62 450.992 1018.45 449.49 1018.26ZM1.88125 468.225C2.00995 466.717 2.14279 465.214 2.28482 463.712L3.41032 463.816C3.26829 465.318 3.13546 466.821 3.00766 468.32L1.88125 468.225ZM458.501 1019.26L458.615 1018.14C460.112 1018.29 461.618 1018.44 463.116 1018.58L463.01 1019.7C461.507 1019.57 460.001 1019.42 458.501 1019.26ZM2.72513 459.202C2.88138 457.697 3.04174 456.197 3.21132 454.698L4.33503 454.821C4.16545 456.32 4.01011 457.816 3.84972 459.316L2.72513 459.202ZM467.523 1020.11L467.619 1018.99C469.117 1019.11 470.621 1019.24 472.126 1019.35L472.039 1020.48C470.53 1020.36 469.026 1020.24 467.523 1020.11ZM3.73427 450.196C3.91303 448.698 4.101 447.2 4.29813 445.704L5.42417 445.85C5.23208 447.343 5.04418 448.84 4.86128 450.334L3.73427 450.196ZM476.56 1020.8L476.638 1019.67C478.139 1019.77 479.646 1019.86 481.154 1019.95L481.089 1021.08C479.578 1020.99 478.066 1020.9 476.56 1020.8ZM4.89454 441.21C5.10085 439.714 5.31635 438.219 5.53599 436.729L6.66028 436.894C6.44064 438.384 6.2302 439.875 6.01974 441.366L4.89454 441.21ZM485.613 1021.32L485.668 1020.19C487.173 1020.26 488.682 1020.33 490.187 1020.39L490.137 1021.52C488.631 1021.47 487.117 1021.4 485.613 1021.32ZM6.21924 432.248C6.45311 430.755 6.6911 429.267 6.94333 427.776L8.06078 427.963C7.81359 429.451 7.5756 430.939 7.34263 432.422L6.21924 432.248ZM494.668 1021.69L494.7 1020.56C496.207 1020.6 497.714 1020.65 499.221 1020.68L499.199 1021.82C497.691 1021.78 496.184 1021.74 494.668 1021.69ZM7.69913 423.311C7.9555 421.825 8.22612 420.336 8.49583 418.855L9.61148 419.061C9.34177 420.541 9.0762 422.027 8.81568 423.508L7.69913 423.311ZM503.738 1021.9L503.752 1020.77C505.261 1020.78 506.771 1020.8 508.276 1020.81L508.272 1021.95C506.762 1021.93 505.248 1021.92 503.738 1021.9ZM9.33338 414.408C9.61731 412.924 9.91047 411.442 10.2077 409.964L11.3216 410.188C11.0243 411.666 10.7321 413.139 10.444 414.618L9.33338 414.408ZM512.806 1021.94L512.801 1020.81C514.308 1020.8 515.821 1020.79 517.325 1020.77L517.339 1021.91C515.831 1021.92 514.322 1021.94 512.806 1021.94ZM11.127 405.534C11.4426 404.058 11.7583 402.582 12.0831 401.107L13.1901 401.354C12.8653 402.829 12.5506 404.295 12.235 405.771L11.127 405.534ZM521.88 1021.83L521.852 1020.69C523.362 1020.66 524.867 1020.62 526.378 1020.58L526.412 1021.71C524.9 1021.76 523.39 1021.79 521.88 1021.83ZM13.08 396.689C13.4182 395.22 13.7614 393.747 14.1128 392.284L15.2139 392.544C14.8625 394.007 14.5202 395.471 14.1821 396.94L13.08 396.689ZM530.947 1021.55L530.904 1020.42C532.412 1020.36 533.92 1020.3 535.424 1020.22L535.476 1021.35C533.967 1021.43 532.459 1021.5 530.947 1021.55ZM15.1824 387.882C15.5481 386.416 15.9179 384.954 16.2919 383.498L17.3861 383.781C17.0121 385.237 16.6423 386.698 16.2775 388.155L15.1824 387.882ZM540.005 1021.12L539.944 1019.99C541.455 1019.9 542.957 1019.81 544.464 1019.71L544.539 1020.84C543.027 1020.94 541.515 1021.03 540.005 1021.12ZM17.4422 379.123C17.8305 377.663 18.227 376.214 18.6335 374.756L19.726 375.057C19.3245 376.51 18.928 377.96 18.5407 379.41L17.4422 379.123ZM549.066 1020.52L548.981 1019.39C550.485 1019.28 551.994 1019.16 553.494 1019.04L553.588 1020.17C552.083 1020.29 550.569 1020.41 549.066 1020.52ZM19.8565 370.397C20.2713 368.949 20.6912 367.498 21.1194 366.056L22.2051 366.379C21.7769 367.821 21.3578 369.264 20.943 370.711L19.8565 370.397ZM558.11 1019.77L558.007 1018.64C559.508 1018.5 561.011 1018.35 562.514 1018.2L562.631 1019.33C561.123 1019.49 559.616 1019.63 558.11 1019.77ZM22.4232 361.723C22.8606 360.282 23.3122 358.838 23.7629 357.403L24.8467 357.745C24.396 359.18 23.9495 360.62 23.508 362.056L22.4232 361.723ZM567.141 1018.85L567.019 1017.73C568.519 1017.56 570.019 1017.39 571.52 1017.21L571.651 1018.33C570.15 1018.51 568.645 1018.69 567.141 1018.85ZM25.1434 353.092C25.6125 351.659 26.0816 350.226 26.5598 348.794L27.6327 349.153C27.1553 350.576 26.6863 352.009 26.2223 353.438L25.1434 353.092ZM576.161 1017.78L576.015 1016.65C577.513 1016.46 579.006 1016.26 580.51 1016.06L580.665 1017.18C579.157 1017.38 577.658 1017.58 576.161 1017.78ZM28.0112 344.517C28.5027 343.091 28.9985 341.669 29.5034 340.249L30.5745 340.627C30.0746 342.043 29.5788 343.464 29.0831 344.885L28.0112 344.517ZM585.154 1016.54L584.991 1015.41C586.486 1015.2 587.978 1014.97 589.47 1014.74L589.644 1015.85C588.151 1016.09 586.655 1016.32 585.154 1016.54ZM31.0365 335.99C31.5547 334.575 32.073 333.161 32.6004 331.747L33.6605 332.142C33.1289 333.551 32.6157 334.961 32.0974 336.376L31.0365 335.99ZM594.131 1015.14L593.948 1014.03C595.437 1013.78 596.926 1013.53 598.416 1013.27L598.608 1014.39C597.114 1014.64 595.625 1014.89 594.131 1015.14ZM34.2084 327.528C34.7491 326.12 35.294 324.718 35.8481 323.316L36.9013 323.733C36.3523 325.131 35.8033 326.529 35.2626 327.936L34.2084 327.528ZM603.081 1013.58L602.875 1012.47C604.357 1012.2 605.845 1011.92 607.333 1011.63L607.549 1012.75C606.06 1013.03 604.573 1013.31 603.081 1013.58ZM37.5278 319.122C38.0952 317.726 38.6626 316.33 39.2434 314.94L40.2856 315.376C39.7099 316.761 39.1384 318.152 38.571 319.548L37.5278 319.122ZM612.006 1011.87L611.785 1010.76C613.265 1010.46 614.746 1010.16 616.228 1009.84L616.462 1010.95C614.972 1011.26 613.486 1011.57 612.006 1011.87ZM40.9948 310.772C41.5847 309.383 42.1828 308.004 42.7861 306.621L43.8266 307.075C43.2242 308.448 42.6301 309.832 42.0411 311.212L40.9948 310.772ZM620.895 1009.99L620.651 1008.88C622.124 1008.56 623.603 1008.23 625.073 1007.89L625.322 1008.99C623.856 1009.34 622.373 1009.67 620.895 1009.99ZM44.6124 302.492C45.229 301.115 45.8446 299.747 46.4745 298.376L47.504 298.847C46.8792 300.214 46.2585 301.586 45.6428 302.954L44.6124 302.492ZM629.753 1007.96L629.49 1006.86C630.961 1006.51 632.428 1006.15 633.896 1005.78L634.169 1006.88C632.701 1007.25 631.229 1007.6 629.753 1007.96ZM48.3767 294.278C49.0148 292.917 49.6622 291.557 50.3096 290.196L51.3281 290.685C50.6766 292.04 50.0343 293.396 49.3961 294.757L48.3767 294.278ZM638.58 1005.77L638.297 1004.67C639.762 1004.29 641.228 1003.91 642.689 1003.52L642.981 1004.61C641.51 1005 640.045 1005.39 638.58 1005.77ZM52.2775 286.137C52.9382 284.783 53.6072 283.439 54.2812 282.09L55.2929 282.601C54.6197 283.94 53.9549 285.29 53.29 286.639L52.2775 286.137ZM647.362 1003.42L647.061 1002.32C648.519 1001.91 649.973 1001.5 651.428 1001.09L651.739 1002.17C650.284 1002.6 648.82 1003.01 647.362 1003.42ZM56.3249 278.061C57.0072 276.723 57.7028 275.391 58.4035 274.054L59.4093 274.579C58.7137 275.911 58.018 277.243 57.3357 278.581L56.3249 278.061ZM656.109 1000.91L655.789 999.822C657.235 999.392 658.687 998.959 660.135 998.511L660.47 999.595C659.012 1000.04 657.56 1000.48 656.109 1000.91ZM60.5171 270.069C61.2311 268.739 61.9502 267.404 62.6725 266.084L63.6672 266.625C62.9449 267.946 62.2268 269.271 61.5128 270.602L60.5171 270.069ZM664.801 998.246L664.462 997.165C665.902 996.707 667.347 996.245 668.783 995.782L669.137 996.859C667.691 997.321 666.251 997.789 664.801 998.246ZM64.8678 262.116C65.6085 260.797 66.3492 259.479 67.0981 258.17L68.0819 258.729C67.3329 260.038 66.5973 261.352 65.8567 262.671L64.8678 262.116ZM673.458 995.425L673.099 994.352C674.537 993.87 675.966 993.379 677.396 992.887L677.769 993.957C676.325 994.452 674.892 994.939 673.458 995.425ZM69.3601 254.232C70.1182 252.924 70.8847 251.627 71.6561 250.325L72.6289 250.901C71.8625 252.199 71.0961 253.497 70.3338 254.799L69.3601 254.232ZM682.056 992.45L681.678 991.384C683.104 990.879 684.527 990.359 685.95 989.839L686.342 990.901C684.914 991.425 683.487 991.94 682.056 992.45ZM73.9963 246.441C74.776 245.149 75.5691 243.863 76.3672 242.573L77.3291 243.167C76.536 244.453 75.748 245.735 74.9682 247.026L73.9963 246.441ZM690.608 989.318L690.211 988.26C691.631 987.726 693.046 987.186 694.458 986.642L694.869 987.697C693.443 988.245 692.028 988.784 690.608 989.318ZM78.7639 238.727C79.5704 237.447 80.385 236.178 81.1997 234.908L82.1506 235.519C81.3359 236.789 80.5212 238.059 79.7199 239.335L78.7639 238.727ZM699.097 986.036L698.68 984.985C700.088 984.427 701.492 983.863 702.897 983.291L703.323 984.342C701.919 984.906 700.51 985.474 699.097 986.036ZM83.6755 231.106C84.5036 229.842 85.3357 228.584 86.1771 227.326L87.117 227.955C86.2806 229.209 85.4443 230.462 84.6163 231.726L83.6755 231.106ZM707.531 982.596L707.095 981.552C708.487 980.974 709.875 980.381 711.264 979.788L711.709 980.833C710.316 981.42 708.928 982.013 707.531 982.596ZM88.7177 223.572C89.5674 222.325 90.4262 221.078 91.2891 219.836L92.2181 220.482C91.3601 221.72 90.4972 222.962 89.6526 224.206L88.7177 223.572ZM715.867 979.026L715.412 977.99C716.792 977.387 718.169 976.769 719.546 976.152L720.01 977.189C718.629 977.802 717.248 978.414 715.867 979.026ZM93.8946 216.13C94.7659 214.899 95.6463 213.668 96.5309 212.442L97.4489 213.106C96.5643 214.332 95.6847 215.553 94.8134 216.785L93.8946 216.13ZM724.135 975.3L723.66 974.272C725.029 973.644 726.394 973.003 727.759 972.362L728.239 973.386C726.878 974.033 725.508 974.669 724.135 975.3ZM99.2063 208.78C100.099 207.564 101.001 206.35 101.907 205.14L102.814 205.821C101.908 207.031 101.011 208.242 100.114 209.453L99.2063 208.78ZM732.337 971.435L731.844 970.413C733.2 969.762 734.554 969.096 735.908 968.43L736.407 969.447C735.057 970.118 733.699 970.779 732.337 971.435ZM104.648 201.526C105.562 200.326 106.486 199.127 107.418 197.939L108.31 198.633C107.387 199.822 106.459 201.016 105.55 202.212L104.648 201.526ZM740.465 967.427L739.953 966.413C741.298 965.737 742.64 965.047 743.982 964.357L744.5 965.367C743.158 966.057 741.812 966.742 740.465 967.427ZM110.214 194.372C111.15 193.188 112.095 192.006 113.049 190.833L113.929 191.544C112.985 192.718 112.036 193.896 111.105 195.075L110.214 194.372ZM748.525 963.264L747.997 962.263C749.331 961.562 750.662 960.848 751.988 960.138L752.53 961.136C751.19 961.85 749.859 962.564 748.525 963.264ZM115.909 187.314C116.867 186.147 117.833 184.989 118.804 183.827L119.674 184.556C118.708 185.714 117.742 186.871 116.784 188.039L115.909 187.314ZM756.506 958.964L755.959 957.97C757.277 957.24 758.595 956.511 759.914 955.772L760.472 956.758C759.148 957.501 757.833 958.235 756.506 958.964ZM121.734 180.362C122.713 179.21 123.701 178.068 124.688 176.927L125.543 177.668C124.555 178.81 123.568 179.951 122.594 181.099L121.734 180.362ZM764.413 954.522L763.85 953.54C765.157 952.787 766.463 952.033 767.762 951.269L768.334 952.243C767.031 953.011 765.719 953.768 764.413 954.522ZM127.678 173.513C128.679 172.378 129.683 171.256 130.692 170.131L131.536 170.889C130.527 172.015 129.523 173.137 128.527 174.268L127.678 173.513ZM772.235 949.938L771.654 948.964C772.944 948.19 774.239 947.412 775.526 946.624L776.118 947.59C774.826 948.382 773.531 949.16 772.235 949.938ZM133.741 166.779C134.762 165.668 135.789 164.553 136.815 163.448L137.644 164.219C136.614 165.32 135.592 166.43 134.57 167.541L133.741 166.779ZM779.979 945.216L779.382 944.254C780.661 943.456 781.94 942.658 783.215 941.845L783.822 942.799C782.541 943.616 781.258 944.418 779.979 945.216ZM139.924 160.139C140.967 159.045 142.011 157.95 143.062 156.866L143.88 157.654C142.828 158.739 141.79 159.829 140.752 160.919L139.924 160.139ZM787.634 940.356L787.022 939.406C788.284 938.588 789.552 937.765 790.81 936.933L791.436 937.879C790.168 938.711 788.906 939.538 787.634 940.356ZM146.225 153.622C147.285 152.548 148.345 151.473 149.418 150.405L150.221 151.206C149.152 152.27 148.093 153.345 147.033 154.419L146.225 153.622ZM795.2 935.366L794.569 934.424C795.82 933.582 797.066 932.734 798.312 931.886L798.954 932.82C797.706 933.677 796.455 934.529 795.2 935.366ZM152.641 147.214C153.717 146.159 154.799 145.101 155.888 144.053L156.676 144.866C155.586 145.915 154.51 146.969 153.433 148.023L152.641 147.214ZM802.682 930.244L802.036 929.314C803.269 928.451 804.504 927.579 805.73 926.706L806.386 927.628C805.156 928.505 803.921 929.377 802.682 930.244ZM159.166 140.918C160.264 139.88 161.366 138.846 162.468 137.813L163.241 138.639C162.134 139.667 161.037 140.697 159.943 141.74L159.166 140.918ZM810.07 924.987L809.408 924.069C810.626 923.186 811.844 922.294 813.058 921.397L813.73 922.306C812.51 923.207 811.292 924.099 810.07 924.987ZM165.805 134.74C166.92 133.722 168.038 132.709 169.162 131.691L169.919 132.53C168.796 133.538 167.678 134.551 166.572 135.57L165.805 134.74ZM817.369 919.6L816.692 918.696C817.898 917.788 819.099 916.876 820.297 915.959L820.988 916.86C819.776 917.781 818.574 918.693 817.369 919.6ZM172.533 128.691C173.659 127.697 174.795 126.704 175.934 125.716L176.68 126.572C175.541 127.56 174.411 128.549 173.284 129.543L172.533 128.691ZM824.564 914.088L823.863 913.195C825.052 912.267 826.237 911.335 827.418 910.398L828.124 911.287C826.943 912.224 825.753 913.161 824.564 914.088ZM179.361 122.763C180.509 121.785 181.661 120.812 182.822 119.84L183.553 120.709C182.397 121.677 181.245 122.649 180.102 123.623L179.361 122.763ZM831.664 908.451L830.953 907.566C832.126 906.618 833.294 905.666 834.459 904.708L834.746 904.472L835.467 905.348L835.18 905.585C834.01 906.547 832.842 907.499 831.664 908.451ZM187.029 117.816L186.308 116.939L186.454 116.819C187.573 115.899 188.697 114.983 189.819 114.077L190.535 114.958C189.413 115.864 188.289 116.779 187.175 117.696L187.029 117.816ZM838.227 901.584C839.383 900.616 840.535 899.643 841.677 898.67L842.413 899.534C841.266 900.512 840.114 901.485 838.953 902.456L838.227 901.584ZM194.07 112.126L193.364 111.237C194.55 110.296 195.735 109.363 196.93 108.432L197.63 109.325C196.436 110.256 195.251 111.189 194.07 112.126ZM845.099 895.72C846.239 894.733 847.369 893.744 848.495 892.75L849.246 893.602C848.115 894.6 846.985 895.589 845.845 896.576L845.099 895.72ZM201.196 106.561L200.505 105.66C201.708 104.738 202.91 103.826 204.115 102.919L204.796 103.828C203.595 104.732 202.394 105.644 201.196 106.561ZM851.857 889.749C852.98 888.741 854.099 887.727 855.204 886.708L855.966 887.543C854.852 888.561 853.733 889.574 852.609 890.591L851.857 889.749ZM208.426 101.122L207.754 100.213C208.973 99.3116 210.192 98.4194 211.414 97.5324L212.075 98.4496C210.858 99.3325 209.64 100.225 208.426 101.122ZM858.53 883.643C859.637 882.615 860.73 881.581 861.828 880.543L862.605 881.365C861.507 882.403 860.409 883.441 859.303 884.469L858.53 883.643ZM215.754 95.8126L215.098 94.8913C216.328 94.0142 217.563 93.1423 218.802 92.2753L219.448 93.205C218.214 94.0678 216.985 94.9356 215.754 95.8126ZM865.095 877.416C866.185 876.368 867.261 875.314 868.338 874.259L869.13 875.069C868.054 876.123 866.972 877.182 865.883 878.23L865.095 877.416ZM223.168 90.6276L222.526 89.6938C223.773 88.8369 225.025 87.9851 226.279 87.1475L226.911 88.0896C225.665 88.9281 224.415 89.7707 223.168 90.6276ZM871.551 871.077C872.619 870.012 873.679 868.938 874.738 867.863L875.546 868.66C874.486 869.735 873.426 870.809 872.353 871.878L871.551 871.077ZM230.674 85.5768L230.048 84.6306C231.312 83.7939 232.579 82.9714 233.846 82.1489L234.462 83.1034C233.2 83.9217 231.933 84.7442 230.674 85.5768ZM877.892 864.619C878.944 863.535 879.982 862.444 881.02 861.354L881.839 862.133C880.8 863.233 879.752 864.323 878.705 865.412L877.892 864.619ZM238.27 80.6644L237.663 79.7108C238.938 78.8984 240.222 78.096 241.501 77.2978L242.097 78.2598C240.82 79.0488 239.545 79.852 238.27 80.6644ZM884.114 858.057C885.14 856.952 886.166 855.846 887.183 854.731L888.017 855.498C887 856.614 885.974 857.719 884.943 858.829L884.114 858.057ZM245.951 75.8762L245.359 74.9101C246.646 74.122 247.946 73.3398 249.236 72.5659L249.818 73.5403C248.528 74.3142 247.242 75.0931 245.951 75.8762ZM890.227 851.383C891.236 850.258 892.24 849.136 893.236 848.004L894.086 848.75C893.085 849.886 892.081 851.007 891.072 852.133L890.227 851.383ZM253.715 71.2305L253.142 70.257C254.45 69.4941 255.752 68.7353 257.064 67.9775L257.626 68.9592C256.32 69.7129 255.017 70.4717 253.715 71.2305ZM896.216 844.6C897.203 843.458 898.191 842.316 899.165 841.169L900.03 841.902C899.051 843.053 898.067 844.2 897.075 845.337L896.216 844.6ZM261.562 66.7274L261.005 65.7414C262.324 65.0028 263.643 64.2642 264.965 63.5398L265.513 64.534C264.195 65.2542 262.872 65.9878 261.562 66.7274ZM902.08 837.716C903.046 836.558 904.008 835.395 904.97 834.233L905.845 834.948C904.888 836.116 903.926 837.279 902.955 838.44L902.08 837.716ZM269.484 62.3658L268.951 61.3684C270.281 60.6541 271.612 59.9398 272.951 59.2355L273.479 60.2371C272.145 60.9372 270.81 61.6465 269.484 62.3658ZM907.824 830.727C908.769 829.554 909.709 828.375 910.649 827.196L911.54 827.899C910.604 829.083 909.659 830.266 908.709 831.444L907.824 830.727ZM277.485 58.1419L276.967 57.132C278.314 56.4378 279.656 55.7478 281.007 55.0678L281.516 56.0768C280.169 56.7618 278.823 57.4468 277.485 58.1419ZM913.445 823.63C914.373 822.436 915.291 821.241 916.21 820.047L917.112 820.732C916.198 821.932 915.274 823.131 914.346 824.325L913.445 823.63ZM285.56 54.0595L285.057 53.0463C286.415 52.3765 287.769 51.7108 289.131 51.0551L289.625 52.0765C288.268 52.728 286.914 53.3938 285.56 54.0595ZM918.931 816.44C919.837 815.231 920.734 814.02 921.631 812.809L922.544 813.477C921.651 814.693 920.749 815.908 919.843 817.118L918.931 816.44ZM293.705 50.1229L293.225 49.0982C294.596 48.4527 295.961 47.8112 297.334 47.1799L297.809 48.2087C296.439 48.8451 295.07 49.4815 293.705 50.1229ZM924.297 809.156C925.176 807.934 926.057 806.703 926.927 805.481L927.855 806.136C926.984 807.368 926.103 808.599 925.219 809.825L924.297 809.156ZM301.923 46.3372L301.458 45.3001C302.84 44.6788 304.217 44.0617 305.602 43.4546L306.057 44.4908C304.676 45.1029 303.299 45.7201 301.923 46.3372ZM929.523 801.774C930.381 800.536 931.235 799.294 932.089 798.051L933.028 798.689C932.178 799.937 931.319 801.184 930.456 802.426L929.523 801.774ZM310.206 42.6922L309.76 41.6477C311.149 41.0549 312.542 40.4579 313.934 39.8793L314.37 40.9229C312.981 41.5157 311.594 42.0994 310.206 42.6922ZM934.62 794.297C935.457 793.043 936.289 791.784 937.121 790.525L938.071 791.146C937.243 792.41 936.411 793.669 935.569 794.927L934.62 794.297ZM318.567 39.1939L318.136 38.1461C319.541 37.5735 320.95 37.0058 322.363 36.4432L322.78 37.4942C321.376 38.0577 319.972 38.6212 318.567 39.1939ZM939.587 786.732C940.401 785.462 941.216 784.193 942.017 782.917L942.978 783.52C942.172 784.8 941.361 786.075 940.547 787.345L939.587 786.732ZM327.012 35.8381L326.6 34.783C328.016 34.2346 329.432 33.6954 330.852 33.1612L331.249 34.2197C329.844 34.7506 328.428 35.2898 327.012 35.8381ZM944.413 779.08C945.206 777.794 945.994 776.513 946.774 775.221L947.746 775.807C946.966 777.098 946.177 778.389 945.38 779.67L944.413 779.08ZM335.515 32.6365L335.123 31.5739C336.551 31.0498 337.978 30.5349 339.404 30.0292L339.782 31.095C338.361 31.5966 336.938 32.1165 335.515 32.6365ZM949.1 771.34C949.866 770.042 950.633 768.745 951.395 767.442L952.373 768.015C951.615 769.322 950.848 770.62 950.077 771.922L949.1 771.34ZM344.069 29.588L343.696 28.518C345.131 28.0224 346.569 27.5318 348.003 27.0453L348.362 28.1185C346.933 28.6008 345.5 29.0873 344.069 29.588ZM953.646 763.521C954.395 762.213 955.131 760.898 955.866 759.584L956.855 760.139C956.114 761.457 955.374 762.776 954.629 764.09L953.646 763.521ZM352.678 26.6885L352.324 25.6111C353.765 25.144 355.211 24.6726 356.655 24.2197L356.995 25.3003C355.555 25.7583 354.115 26.2163 352.678 26.6885ZM958.061 755.625C958.783 754.305 959.497 752.974 960.211 751.644L961.211 752.181C960.497 753.512 959.783 754.842 959.055 756.167L958.061 755.625ZM361.332 23.9464L360.997 22.8616C362.45 22.4187 363.897 21.98 365.349 21.5463L365.669 22.6343C364.227 23.0689 362.779 23.5077 361.332 23.9464ZM962.314 747.667C963.01 746.335 963.701 745.006 964.383 743.668L965.39 744.183C964.707 745.522 964.016 746.859 963.311 748.19L962.314 747.667ZM370.034 21.3667L369.723 20.2796C371.178 19.8601 372.641 19.4507 374.099 19.0454L374.405 20.1367C372.943 20.5369 371.484 20.9513 370.034 21.3667ZM966.422 739.643C967.095 738.304 967.76 736.955 968.425 735.606L969.442 736.103C968.781 737.458 968.112 738.802 967.438 740.15L966.422 739.643ZM378.778 18.9392L378.486 17.8447C379.947 17.4537 381.413 17.0677 382.883 16.6867L383.165 17.7803C381.7 18.1663 380.239 18.5482 378.778 18.9392ZM970.392 731.556C971.043 730.201 971.685 728.845 972.324 727.483L973.352 727.964C972.714 729.325 972.071 730.69 971.419 732.045L970.392 731.556ZM387.557 16.6682L387.285 15.5663C388.757 15.1996 390.229 14.842 391.696 14.4886L391.96 15.5896C390.497 15.9481 389.025 16.3056 387.557 16.6682ZM974.206 723.393C974.831 722.026 975.452 720.653 976.058 719.285L977.094 719.742C976.482 721.115 975.862 722.487 975.232 723.858L974.206 723.393ZM396.376 14.5587L396.122 13.4586C397.601 13.1203 399.076 12.7861 400.558 12.462L400.802 13.5705C399.33 13.8863 397.856 14.2204 396.376 14.5587ZM977.889 715.161C978.487 713.782 979.085 712.403 979.67 711.018L980.712 711.463C980.122 712.852 979.524 714.231 978.925 715.609L977.889 715.161ZM405.236 12.6015L405.001 11.494C406.483 11.1791 407.964 10.8733 409.449 10.5727L409.669 11.6835C408.193 11.985 406.713 12.2908 405.236 12.6015ZM981.42 706.868C981.995 705.483 982.567 704.092 983.129 702.7L984.182 703.127C983.614 704.523 983.047 705.919 982.466 707.308L981.42 706.868ZM414.121 10.809L413.906 9.6941C415.394 9.40765 416.881 9.13035 418.369 8.85309L418.575 9.96715C417.093 10.2403 415.61 10.5226 414.121 10.809ZM984.8 698.505C985.349 697.108 985.894 695.705 986.439 694.303L987.498 694.707C986.957 696.114 986.412 697.517 985.858 698.919L984.8 698.505ZM423.043 9.17298L422.85 8.05566C424.341 7.79262 425.835 7.5438 427.329 7.29498L427.512 8.41138C426.018 8.6602 424.528 8.91408 423.043 9.17298ZM988.042 690.087C988.564 688.678 989.087 687.268 989.605 685.854L990.67 686.245C990.152 687.659 989.633 689.074 989.106 690.487L988.042 690.087ZM431.985 7.69662L431.807 6.57607C433.304 6.34147 434.801 6.11606 436.301 5.89569L436.465 7.01946C434.969 7.2357 433.473 7.46112 431.985 7.69662ZM991.123 681.607C991.623 680.191 992.118 678.769 992.614 677.348L993.686 677.717C993.194 679.143 992.699 680.564 992.194 681.985L991.123 681.607ZM440.949 6.37994L440.795 5.25706C442.294 5.04587 443.797 4.84887 445.295 4.65605L445.44 5.77808C443.942 5.9709 442.444 6.1729 440.949 6.37994ZM994.06 673.076C994.538 671.653 995.007 670.22 995.471 668.791L996.55 669.137C996.085 670.575 995.611 672.003 995.133 673.435L994.06 673.076ZM449.935 5.22298L449.804 4.09772C451.305 3.91912 452.81 3.74556 454.314 3.58118L454.44 4.71059C452.932 4.86994 451.436 5.04438 449.935 5.22298ZM996.85 664.489C997.301 663.054 997.748 661.614 998.189 660.178L999.274 660.511C998.837 661.951 998.39 663.391 997.934 664.83L996.85 664.489ZM458.942 4.22571L458.825 3.09722C460.329 2.94202 461.84 2.79689 463.341 2.66006L463.444 3.79183C461.943 3.92866 460.44 4.07466 458.942 4.22571ZM999.483 655.854C999.911 654.412 1000.33 652.964 1000.74 651.517L1001.83 651.827C1001.42 653.274 1001 654.726 1000.57 656.168L999.483 655.854ZM467.957 3.39141L467.863 2.26054C469.373 2.13378 470.882 2.01621 472.385 1.90279L472.47 3.03276C470.962 3.14115 469.462 3.25962 467.957 3.39141ZM1001.97 647.172C1002.37 645.718 1002.77 644.269 1003.15 642.813L1004.24 643.105C1003.85 644.565 1003.46 646.014 1003.06 647.468L1001.97 647.172ZM476.988 2.71175L476.913 1.58267C478.42 1.48347 479.931 1.38929 481.442 1.30431L481.508 2.43252C479.997 2.5175 478.495 2.61255 476.988 2.71175ZM1004.29 638.451C1004.67 636.995 1005.04 635.534 1005.4 634.072L1006.5 634.341C1006.14 635.803 1005.76 637.268 1005.39 638.73L1004.29 638.451ZM486.027 2.19504L485.976 1.0636C487.485 0.987804 488.998 0.926226 490.51 0.86465L490.553 1.99521C489.045 2.05264 487.537 2.11924 486.027 2.19504ZM1006.47 629.684C1006.82 628.221 1007.16 626.757 1007.5 625.288L1008.61 625.544C1008.27 627.013 1007.93 628.486 1007.58 629.949L1006.47 629.684ZM495.075 1.83209L495.037 0.697386C496.548 0.654178 498.059 0.610988 499.569 0.576964L499.597 1.71075C498.091 1.74981 496.585 1.78889 495.075 1.83209ZM1008.49 620.878C1008.81 619.407 1009.13 617.937 1009.44 616.465L1010.55 616.702C1010.24 618.183 1009.92 619.654 1009.59 621.129L1008.49 620.878ZM504.124 1.63624L504.11 0.499178C505.623 0.479376 507.135 0.468745 508.643 0.462272L508.648 1.59846C507.14 1.60494 505.632 1.62058 504.124 1.63624ZM1010.35 612.039C1010.65 610.561 1010.94 609.088 1011.23 607.604L1012.34 607.819C1012.06 609.303 1011.76 610.785 1011.47 612.263L1010.35 612.039ZM513.172 1.60244L513.176 0.467164C514.686 0.474914 516.201 0.48769 517.71 0.504623L517.697 1.63902C516.188 1.62208 514.682 1.61019 513.172 1.60244ZM1012.06 603.166C1012.33 601.685 1012.6 600.2 1012.86 598.719L1013.98 598.916C1013.72 600.402 1013.45 601.887 1013.18 603.372L1012.06 603.166ZM522.222 1.72656L522.245 0.593072C523.758 0.624227 525.265 0.668711 526.781 0.714088L526.749 1.84667C525.238 1.79715 523.726 1.75682 522.222 1.72656ZM1013.61 594.263C1013.86 592.776 1014.1 591.288 1014.33 589.799L1015.45 589.973C1015.22 591.466 1014.98 592.955 1014.73 594.442L1013.61 594.263ZM531.267 2.00767L531.317 0.876861C532.827 0.935567 534.336 1.00347 535.845 1.08054L535.789 2.2155C534.277 2.13339 532.772 2.07052 531.267 2.00767ZM1015.01 585.332C1015.22 583.842 1015.44 582.351 1015.65 580.861L1016.77 581.016C1016.56 582.512 1016.35 584.007 1016.13 585.502L1015.01 585.332ZM540.3 2.44998L540.365 1.31591C541.872 1.40217 543.379 1.4976 544.889 1.59808L544.816 2.73125C543.31 2.62663 541.808 2.53624 540.3 2.44998ZM1016.25 576.381C1016.44 574.888 1016.63 573.391 1016.8 571.892L1017.93 572.03C1017.75 573.528 1017.56 575.026 1017.37 576.527L1016.25 576.381ZM549.328 3.04929L549.415 1.92203C550.919 2.03584 552.428 2.15469 553.931 2.28687L553.835 3.41321C552.332 3.28103 550.832 3.1631 549.328 3.04929ZM1017.33 567.4C1017.5 565.901 1017.65 564.405 1017.8 562.904L1018.93 563.018C1018.78 564.519 1018.61 566.023 1018.44 567.527L1017.33 567.4ZM558.335 3.80885L558.44 2.6834C559.942 2.82476 561.448 2.97116 562.949 3.1217L562.835 4.24628C561.334 4.09573 559.837 3.95021 558.335 3.80885ZM1018.25 558.409C1018.39 556.907 1018.52 555.404 1018.65 553.905L1019.78 554.001C1019.65 555.509 1019.51 557.011 1019.37 558.513L1018.25 558.409ZM567.331 4.72958L567.459 3.60178C568.959 3.77069 570.462 3.94465 571.961 4.12274L571.823 5.24967C570.33 5.06743 568.835 4.89434 567.331 4.72958ZM1019.01 549.397C1019.12 547.892 1019.23 546.392 1019.33 544.885L1020.45 544.962C1020.35 546.473 1020.25 547.979 1020.13 549.483L1019.01 549.397ZM576.312 5.80646L576.459 4.68043C577.955 4.87689 579.452 5.07336 580.948 5.279L580.792 6.40414C579.296 6.1985 577.804 5.99788 576.312 5.80646ZM1019.61 540.37C1019.7 538.863 1019.78 537.359 1019.85 535.855L1020.99 535.91C1020.91 537.418 1020.83 538.927 1020.74 540.434L1019.61 540.37ZM585.268 7.03856L585.433 5.91431C586.923 6.13329 588.417 6.35729 589.91 6.59049L589.732 7.70882C588.247 7.4857 586.758 7.25753 585.268 7.03856ZM1020.05 531.337C1020.12 529.832 1020.17 528.321 1020.22 526.819L1021.35 526.851C1021.3 528.362 1021.25 529.873 1021.19 531.383L1020.05 531.337ZM594.195 8.43005L594.383 7.3126C595.87 7.55913 597.361 7.8107 598.852 8.07145L598.654 9.18799C597.168 8.93228 595.682 8.67657 594.195 8.43005ZM1020.34 522.293C1020.38 520.786 1020.4 519.277 1020.42 517.773L1021.56 517.785C1021.54 519.299 1021.51 520.808 1021.48 522.32L1020.34 522.293ZM603.101 9.98178L603.308 8.86615C604.792 9.14023 606.277 9.41428 607.755 9.70169L607.54 10.8165C606.061 10.5291 604.582 10.2508 603.101 9.98178ZM1020.47 513.243C1020.48 511.733 1020.48 510.227 1020.47 508.715L1021.61 508.709C1021.62 510.221 1021.61 511.732 1021.6 513.247L1020.47 513.243ZM611.974 11.6879L612.199 10.574C613.677 10.8706 615.153 11.1764 616.634 11.4872L616.4 12.6002C614.92 12.2893 613.447 11.9886 611.974 11.6879ZM1020.43 504.196C1020.41 502.688 1020.38 501.178 1020.35 499.673L1021.49 499.644C1021.52 501.154 1021.55 502.668 1021.56 504.176L1020.43 504.196ZM620.809 13.5524L621.056 12.4454C622.531 12.7695 624.001 13.0978 625.47 13.4353L625.213 14.5415C623.749 14.1998 622.28 13.8715 620.809 13.5524ZM1020.24 495.147C1020.19 493.641 1020.14 492.129 1020.08 490.622L1021.21 490.579C1021.27 492.091 1021.32 493.603 1021.37 495.113L1020.24 495.147ZM629.614 15.5672L629.875 14.4661C631.343 14.8128 632.805 15.1727 634.272 15.5378L634.002 16.638C632.541 16.2688 631.078 15.918 629.614 15.5672ZM1019.88 486.101C1019.8 484.592 1019.72 483.087 1019.64 481.582L1020.77 481.52C1020.86 483.03 1020.94 484.54 1021.01 486.054L1019.88 486.101ZM638.382 17.7404L638.665 16.6461C640.125 17.0245 641.585 17.4029 643.04 17.7945L642.748 18.8879C641.293 18.4962 639.838 18.1138 638.382 17.7404ZM1019.37 477.063C1019.27 475.556 1019.16 474.053 1019.05 472.545L1020.18 472.46C1020.29 473.968 1020.4 475.48 1020.49 476.987L1019.37 477.063ZM647.106 20.0671L647.407 18.9746C648.861 19.3755 650.313 19.7856 651.761 20.1998L651.45 21.2913C649.999 20.8721 648.555 20.463 647.106 20.0671ZM1018.69 468.032C1018.56 466.532 1018.43 465.026 1018.29 463.52L1019.42 463.412C1019.56 464.918 1019.69 466.424 1019.82 467.933L1018.69 468.032ZM655.783 22.5422L656.107 21.4566C657.554 21.8799 658.995 22.3166 660.44 22.7584L660.106 23.8432C658.671 23.4023 657.225 22.9698 655.783 22.5422ZM1017.85 459.014C1017.7 457.511 1017.54 456.012 1017.38 454.508L1018.5 454.386C1018.67 455.89 1018.83 457.393 1018.98 458.9L1017.85 459.014ZM664.417 25.18L664.759 24.0961C666.198 24.5512 667.632 25.0104 669.066 25.4696L668.72 26.5485C667.286 26.0892 665.852 25.63 664.417 25.18ZM1016.86 450.012C1016.68 448.511 1016.49 447.019 1016.3 445.512L1017.42 445.366C1017.61 446.864 1017.8 448.365 1017.98 449.871L1016.86 450.012ZM672.999 27.9611L673.359 26.8882C674.791 27.3657 676.213 27.8516 677.64 28.3426L677.271 29.4146C675.85 28.9195 674.428 28.4336 672.999 27.9611ZM1015.7 441.028C1015.5 439.533 1015.29 438.034 1015.07 436.543L1016.19 436.379C1016.41 437.879 1016.62 439.374 1016.83 440.873L1015.7 441.028ZM681.53 30.8947L681.908 29.8236C683.328 30.3278 684.744 30.8362 686.163 31.3497L685.772 32.4149C684.366 31.9074 682.95 31.399 681.53 30.8947ZM1014.39 432.065C1014.16 430.573 1013.92 429.08 1013.68 427.592L1014.79 427.408C1015.04 428.902 1015.28 430.395 1015.52 431.891L1014.39 432.065ZM690.009 33.9809L690.404 32.9208C691.818 33.4475 693.221 33.9826 694.629 34.5227L694.224 35.5819C692.821 35.0377 691.418 34.5027 690.009 33.9809ZM1012.92 423.123C1012.66 421.638 1012.39 420.152 1012.12 418.661L1013.23 418.454C1013.51 419.945 1013.77 421.431 1014.03 422.926L1012.92 423.123ZM698.431 37.2147L698.849 36.1613C700.251 36.7147 701.647 37.2723 703.043 37.8391L702.616 38.8915C701.225 38.3206 699.829 37.7631 698.431 37.2147ZM1011.28 414.208C1011 412.725 1010.7 411.245 1010.4 409.761L1011.51 409.54C1011.81 411.024 1012.1 412.508 1012.39 413.996L1011.28 414.208ZM706.788 40.595L707.224 39.5526C708.614 40.1327 710.003 40.7128 711.392 41.3021L710.947 42.3435C709.559 41.7543 708.174 41.17 706.788 40.595ZM1009.49 405.319C1009.18 403.843 1008.86 402.365 1008.53 400.887L1009.64 400.643C1009.97 402.121 1010.28 403.602 1010.6 405.084L1009.49 405.319ZM715.084 44.127L715.538 43.0864C716.921 43.689 718.299 44.2958 719.672 44.9066L719.214 45.9422C717.832 45.3304 716.458 44.7287 715.084 44.127ZM1007.53 396.47C1007.19 395 1006.85 393.525 1006.5 392.058L1007.6 391.795C1007.95 393.27 1008.3 394.741 1008.64 396.22L1007.53 396.47ZM723.311 47.8006L723.782 46.771C725.149 47.3952 726.515 48.0286 727.88 48.6712L727.4 49.6999C726.04 49.0532 724.678 48.4248 723.311 47.8006ZM1005.42 387.648C1005.06 386.18 1004.68 384.716 1004.31 383.251L1005.4 382.968C1005.78 384.438 1006.15 385.906 1006.52 387.374L1005.42 387.648ZM731.472 51.6208L731.961 50.6022C733.316 51.2531 734.675 51.909 736.024 52.5732L735.526 53.5909C734.178 52.9175 732.823 52.2667 731.472 51.6208ZM1003.16 378.866C1002.77 377.405 1002.37 375.948 1001.97 374.49L1003.07 374.189C1003.47 375.646 1003.87 377.108 1004.26 378.575L1003.16 378.866ZM739.564 55.5826L740.071 54.5658C741.419 55.2391 742.757 55.9208 744.096 56.6025L743.58 57.6093C742.242 56.9276 740.903 56.2551 739.564 55.5826ZM1000.73 370.128C1000.31 368.674 999.889 367.223 999.46 365.777L1000.55 365.457C1000.98 366.908 1001.4 368.367 1001.82 369.822L1000.73 370.128ZM747.577 59.6851L748.102 58.6792C749.434 59.3742 750.765 60.0784 752.091 60.7868L751.553 61.7867C750.231 61.0834 748.909 60.3801 747.577 59.6851ZM998.155 361.427C997.712 359.984 997.265 358.536 996.807 357.097L997.888 356.757C998.345 358.206 998.797 359.65 999.239 361.102L998.155 361.427ZM755.533 63.9443L756.076 62.9494C757.4 63.6761 758.724 64.4028 760.043 65.1428L759.487 66.1318C758.178 65.3927 756.859 64.6618 755.533 63.9443ZM995.417 352.776C994.945 351.339 994.474 349.903 993.988 348.47L995.061 348.11C995.542 349.548 996.023 350.985 996.493 352.431L995.417 352.776ZM763.433 68.351L763.993 67.3671C765.301 68.1154 766.614 68.8688 767.921 69.6263L767.353 70.6093C766.05 69.8477 764.738 69.0943 763.433 68.351ZM992.521 344.169C992.03 342.74 991.525 341.314 991.016 339.883L992.082 339.505C992.591 340.936 993.091 342.365 993.591 343.795L992.521 344.169ZM771.251 72.8934L771.828 71.9204C773.129 72.6912 774.421 73.4704 775.716 74.2545L775.13 75.2266C773.84 74.4383 772.543 73.6633 771.251 72.8934ZM989.471 335.621C988.951 334.199 988.422 332.784 987.888 331.365L988.947 330.967C989.481 332.387 990.009 333.81 990.529 335.233L989.471 335.621ZM778.984 77.5806L779.579 76.6186C780.864 77.411 782.144 78.2168 783.419 79.0176L782.816 79.9787C781.545 79.1738 780.265 78.3772 778.984 77.5806ZM986.272 327.12C985.729 325.709 985.171 324.301 984.613 322.893L985.664 322.476C986.226 323.889 986.779 325.301 987.327 326.717L986.272 327.12ZM786.635 82.4034L787.247 81.4524C788.517 82.2665 789.785 83.0897 791.049 83.9171L790.428 84.8673C789.164 84.0399 787.899 83.2216 786.635 82.4034ZM982.915 318.681C982.347 317.282 981.77 315.881 981.179 314.484L982.222 314.048C982.809 315.449 983.386 316.85 983.958 318.254L982.915 318.681ZM794.198 87.3661L794.828 86.426C796.085 87.2667 797.338 88.1116 798.585 88.9607L797.947 89.8998C796.699 89.0508 795.446 88.2059 794.198 87.3661ZM979.416 310.317C978.824 308.929 978.221 307.549 977.615 306.165L978.651 305.709C979.258 307.094 979.864 308.479 980.457 309.867L979.416 310.317ZM801.669 92.4635L802.316 91.5344C803.558 92.3967 804.794 93.2633 806.026 94.1339L805.369 95.0621C804.143 94.1873 802.906 93.3208 801.669 92.4635ZM975.778 302.041C975.157 300.669 974.535 299.297 973.904 297.924L974.933 297.449C975.564 298.822 976.195 300.195 976.812 301.572L975.778 302.041ZM809.049 97.6865L809.713 96.7684C810.939 97.6523 812.16 98.5405 813.379 99.4378L812.711 100.351C811.486 99.4577 810.265 98.5696 809.049 97.6865ZM971.991 293.83C971.345 292.469 970.699 291.109 970.044 289.747L971.066 289.253C971.721 290.615 972.376 291.976 973.017 293.341L971.991 293.83ZM816.332 103.048L817.014 102.141C818.223 103.047 819.428 103.957 820.632 104.875L819.945 105.778C818.742 104.859 817.537 103.949 816.332 103.048ZM968.062 285.684C967.397 284.33 966.722 282.986 966.043 281.635L967.052 281.126C967.731 282.476 968.411 283.826 969.076 285.18L968.062 285.684ZM823.524 108.536L824.218 107.644C825.412 108.571 826.6 109.502 827.784 110.438L827.08 111.329C825.897 110.394 824.708 109.462 823.524 108.536ZM963.983 277.611C963.289 276.273 962.594 274.936 961.89 273.606L962.892 273.078C963.595 274.417 964.299 275.755 964.988 277.097L963.983 277.611ZM830.61 114.152L831.322 113.271C832.5 114.22 833.672 115.173 834.835 116.134L834.119 117.01C832.952 116.044 831.784 115.096 830.61 114.152ZM959.757 269.617C959.039 268.291 958.32 266.964 957.591 265.647L958.585 265.099C959.313 266.426 960.037 267.748 960.751 269.078L959.757 269.617ZM837.597 119.893L838.326 119.023C839.483 119.988 840.635 120.967 841.786 121.946L841.049 122.806C839.901 121.832 838.754 120.859 837.597 119.893ZM955.395 261.692C954.656 260.383 953.913 259.068 953.159 257.762L954.142 257.199C954.895 258.506 955.642 259.825 956.381 261.135L955.395 261.692ZM844.483 125.759L845.224 124.904C846.366 125.891 847.501 126.891 848.632 127.887L847.887 128.737C846.751 127.736 845.62 126.741 844.483 125.759ZM950.89 253.852C950.126 252.554 949.363 251.256 948.585 249.961L949.56 249.379C950.338 250.674 951.105 251.977 951.873 253.28L950.89 253.852ZM851.255 131.743L852.014 130.899C853.14 131.908 854.255 132.925 855.37 133.942L854.603 134.776C853.497 133.76 852.38 132.752 851.255 131.743ZM946.247 246.09C945.459 244.804 944.667 243.522 943.874 242.239L944.836 241.642C945.638 242.925 946.426 244.212 947.213 245.498L946.247 246.09ZM857.927 137.852L858.699 137.023C859.799 138.053 860.903 139.087 862.003 140.126L861.223 140.945C860.128 139.911 859.033 138.878 857.927 137.852ZM941.471 238.413C940.663 237.143 939.846 235.873 939.033 234.607L939.988 233.991C940.81 235.257 941.622 236.532 942.434 237.807L941.471 238.413ZM864.491 144.076L865.28 143.258C866.364 144.309 867.448 145.36 868.522 146.419L867.725 147.227C866.655 146.173 865.576 145.118 864.491 144.076ZM936.552 230.82C935.724 229.566 934.887 228.312 934.041 227.057L934.983 226.426C935.829 227.681 936.667 228.935 937.494 230.197L936.552 230.82ZM870.942 150.409L871.744 149.607C872.808 150.674 873.876 151.747 874.934 152.828L874.124 153.62C873.065 152.549 872.006 151.477 870.942 150.409ZM931.499 223.32C930.647 222.078 929.79 220.84 928.923 219.602L929.853 218.955C930.72 220.194 931.581 221.436 932.433 222.678L931.499 223.32ZM877.274 156.866L878.088 156.078C879.136 157.167 880.184 158.256 881.222 159.354L880.4 160.131C879.366 159.039 878.323 157.946 877.274 156.866ZM926.322 215.905C925.449 214.68 924.568 213.454 923.681 212.232L924.599 211.57C925.485 212.792 926.367 214.018 927.244 215.248L926.322 215.905ZM883.499 163.427L884.326 162.655C885.353 163.76 886.381 164.866 887.403 165.985L886.568 166.748C885.551 165.634 884.523 164.528 883.499 163.427ZM921.014 208.589C920.118 207.375 919.22 206.171 918.313 204.966L919.219 204.28C920.13 205.49 921.032 206.699 921.929 207.913L921.014 208.589ZM889.602 170.097L890.446 169.336C891.449 170.453 892.452 171.58 893.445 172.705L892.593 173.457C891.609 172.332 890.605 171.215 889.602 170.097ZM915.574 201.357C914.657 200.16 913.735 198.967 912.808 197.779L913.702 197.077C914.633 198.271 915.555 199.464 916.471 200.661L915.574 201.357ZM895.572 176.852L896.428 176.106C897.415 177.245 898.398 178.388 899.375 179.535L898.51 180.271C897.537 179.129 896.555 177.986 895.572 176.852ZM910.011 194.234C909.074 193.054 908.132 191.877 907.185 190.705L908.066 189.989C909.017 191.166 909.959 192.342 910.901 193.528L910.011 194.234ZM901.432 183.721L902.301 182.99C903.268 184.146 904.235 185.31 905.196 186.479L904.319 187.2C903.362 186.037 902.4 184.877 901.432 183.721Z" fill="#DDDDDD"/>
</svg>
