<svg width="174" height="223" viewBox="0 0 174 223" fill="none" xmlns="http://www.w3.org/2000/svg">
<g clip-path="url(#clip0_115_7434)">
<path d="M109.597 222.123L9.39062 196.947V181.125L109.597 206.301V222.123Z" stroke="#DDDDDD" stroke-miterlimit="10" stroke-linejoin="round"/>
<path d="M131.207 188.184L109.598 206.301V222.123L124.581 209.556" stroke="#DDDDDD" stroke-miterlimit="10"/>
<path d="M156.028 177.674V167.369L134.477 185.446" stroke="#DDDDDD" stroke-miterlimit="10" stroke-linejoin="round"/>
<path d="M134.715 201.063L155.355 183.757" stroke="#DDDDDD" stroke-miterlimit="10" stroke-linejoin="round"/>
<path d="M129.953 205.055L130.922 204.243" stroke="#DDDDDD" stroke-miterlimit="10"/>
<path d="M9.39062 181.125L53.6193 143.292L156.026 167.369" stroke="#DDDDDD" stroke-miterlimit="10"/>
<path d="M31.5664 152.957L32.2971 106.467C32.3053 105.737 32.9047 105.155 33.6354 105.155C34.3661 105.155 34.9655 105.746 34.9737 106.475L35.4827 149.178" stroke="#DDDDDD" stroke-miterlimit="10"/>
<path d="M0.410156 178.182L1.14087 133.471C1.14908 132.741 1.74843 132.159 2.47914 132.159C3.20985 132.159 3.8092 132.749 3.81741 133.479L4.32645 174.354" stroke="#DDDDDD" stroke-miterlimit="10"/>
<path d="M165.09 184.708H161.133L161.864 138.217C161.872 137.488 162.471 136.897 163.202 136.897C163.933 136.897 164.532 137.488 164.54 138.217L165.09 184.708Z" stroke="#DDDDDD" stroke-miterlimit="10"/>
<path d="M134.797 212.31H130.84L131.571 165.819C131.579 165.09 132.178 164.508 132.909 164.508C133.64 164.508 134.239 165.098 134.247 165.828L134.797 212.31Z" stroke="#DDDDDD" stroke-miterlimit="10"/>
<path d="M39.5913 155.327L31.5781 152.998L35.4862 149.088H46.882" stroke="#DDDDDD" stroke-miterlimit="10" stroke-linejoin="round"/>
<path d="M9.99974 180.601L0.410156 178.182L4.31824 174.272L18.7026 173.165" stroke="#DDDDDD" stroke-miterlimit="10" stroke-linejoin="round"/>
<path d="M161.133 184.708L150.812 182.97V175.657L161.207 179.715L161.133 184.708Z" stroke="#DDDDDD" stroke-miterlimit="10"/>
<path d="M130.832 211.654L123.336 209.203V201.251L130.996 205.719" stroke="#DDDDDD" stroke-miterlimit="10"/>
<path d="M173.507 26.0305L116.125 11.835L93.7966 101.821L151.178 116.016L173.507 26.0305Z" stroke="#DDDDDD" stroke-miterlimit="10"/>
<path d="M156.965 21.9375L158.04 17.6172L167.876 20.052L166.801 24.3641" stroke="#DDDDDD" stroke-miterlimit="10"/>
<path d="M159.656 18.0192L163.096 4.15647C163.548 2.33653 165.387 1.22981 167.21 1.68069C169.032 2.13158 170.141 3.96791 169.689 5.78785L166.249 19.6505" stroke="#DDDDDD" stroke-miterlimit="10"/>
<path d="M166.346 31.9861L119.668 20.4385L116.175 34.5157L162.853 46.0634L166.346 31.9861Z" stroke="#DDDDDD" stroke-miterlimit="10"/>
<path d="M123.061 33.5289L123.016 33.7119L144.733 39.0845L144.778 38.9015L123.061 33.5289Z" fill="#DDDDDD"/>
<path d="M120.594 24.7003C120.594 24.7003 123.853 27.1761 128.057 28.5943C128.057 28.5943 128.303 28.6599 128.369 28.7992C128.369 28.7992 128.41 28.9058 128.312 29.0206C128.312 29.0206 127.351 30.3241 121.357 29.5125C121.357 29.5125 121.308 29.5043 121.267 29.4387C121.267 29.4387 121.284 29.3075 121.653 29.2993C121.653 29.2993 124.937 29.4305 126.341 28.9632C126.341 28.9632 126.546 28.8156 126.275 28.7746C126.275 28.7746 123.837 27.463 120.561 25.1184C120.561 25.1184 120.471 25.0364 120.43 24.8806C120.438 24.8806 120.446 24.5527 120.594 24.7003Z" fill="#DDDDDD"/>
<path d="M137.121 31.0943C137.343 30.1925 137.581 29.2662 137.729 28.7497L137.704 28.7415C137.318 29.5367 136.21 31.4058 135.381 32.8323L134.847 32.7011C134.823 31.3403 134.757 28.9137 134.79 28.0037L134.773 27.9955C134.667 28.5694 134.412 29.6515 134.199 30.4959L133.722 32.4142L133.164 32.2748L134.387 27.3643L135.282 27.5856C135.348 29.176 135.397 31.2009 135.373 31.8813H135.381C135.603 31.3976 136.736 29.4793 137.548 28.1431L138.419 28.3562L137.195 33.2668L136.612 33.1192L137.121 31.0943Z" fill="#DDDDDD"/>
<path d="M141.56 34.3654L141.109 34.2506C141.109 34.1359 141.142 33.9227 141.215 33.603C140.944 33.9063 140.501 34.1686 139.803 33.9965C138.637 33.7096 138.276 32.4799 138.621 31.078C138.99 29.6024 139.935 28.6678 141.166 28.9712C142.127 29.2089 142.562 29.9877 142.455 30.8895L141.856 30.7419C141.856 30.2008 141.651 29.7254 141.002 29.5696C140.082 29.3401 139.516 30.1517 139.253 31.201C139.007 32.1847 139.138 33.1931 140.033 33.4144C140.912 33.6276 141.298 32.9717 141.478 32.2175L141.495 32.1684L140.394 31.8978L140.55 31.283L142.225 31.7011L141.56 34.3654Z" fill="#DDDDDD"/>
<path d="M143.747 29.6846L145.307 30.0699C146.112 30.2666 146.522 30.9471 146.292 31.8488C146.046 32.8244 145.34 33.1851 144.544 32.9883L143.616 32.7588L143.123 34.7427L142.516 34.5951L143.747 29.6846ZM143.772 32.1603L144.659 32.3817C145.184 32.5129 145.537 32.2751 145.677 31.7177C145.824 31.1356 145.562 30.7749 145.102 30.6601L144.199 30.4388L143.772 32.1603Z" fill="#DDDDDD"/>
<path d="M132.719 33.3656L132.333 34.915L132.145 34.8658L132.53 33.3164L132.719 33.3656Z" fill="#DDDDDD"/>
<path d="M132.672 35.0045L133.058 33.4551L133.304 33.5125C133.394 33.9142 133.583 34.7503 133.616 34.9389C133.649 34.7421 133.715 34.4962 133.78 34.2421L133.92 33.6682L134.1 33.7092L133.715 35.2586L133.485 35.2012C133.403 34.8323 133.206 33.9224 133.173 33.7338C133.14 33.906 133.074 34.1765 133 34.4552L132.853 35.0455L132.672 35.0045Z" fill="#DDDDDD"/>
<path d="M134.246 34.931C134.238 35.1195 134.312 35.2425 134.493 35.2835C134.681 35.3327 134.78 35.2425 134.821 35.1031C134.862 34.9555 134.813 34.8572 134.583 34.726C134.296 34.562 134.23 34.4063 134.279 34.1849C134.337 33.9472 134.525 33.7996 134.813 33.8652C135.125 33.939 135.199 34.1849 135.158 34.3981L134.969 34.3489C134.977 34.2177 134.944 34.0866 134.764 34.0456C134.616 34.0128 134.517 34.0702 134.476 34.2095C134.443 34.3489 134.493 34.4227 134.698 34.5375C135.035 34.7342 135.059 34.9228 135.01 35.1277C134.944 35.3818 134.739 35.5376 134.427 35.4638C134.107 35.3818 134.016 35.1359 134.049 34.89L134.246 34.931Z" fill="#DDDDDD"/>
<path d="M135.742 34.3244L135.34 34.226L135.389 34.0293L136.391 34.2752L136.341 34.472L135.939 34.3736L135.603 35.7263L135.414 35.6771L135.742 34.3244Z" fill="#DDDDDD"/>
<path d="M136.537 35.2428L136.372 35.915L136.184 35.8658L136.569 34.3164L137.079 34.4394C137.341 34.505 137.44 34.7181 137.382 34.9558C137.333 35.1608 137.21 35.251 137.079 35.2674C137.169 35.3247 137.235 35.4395 137.169 35.7101L137.152 35.7756C137.128 35.8822 137.087 36.0134 137.095 36.0872L136.914 36.038C136.906 35.9642 136.939 35.8494 136.972 35.6937L136.98 35.6609C137.029 35.4477 137.005 35.3493 136.783 35.292L136.537 35.2428ZM136.586 35.0542L136.857 35.1198C137.046 35.169 137.144 35.1034 137.185 34.9312C137.226 34.7755 137.161 34.6607 136.996 34.6197L136.709 34.5459L136.586 35.0542Z" fill="#DDDDDD"/>
<path d="M137.925 34.6605L137.695 35.5869C137.605 35.9394 137.744 36.0788 137.9 36.1116C138.081 36.1607 138.237 36.0788 138.327 35.7426L138.557 34.8163L138.746 34.8655L138.516 35.7836C138.393 36.2919 138.122 36.3739 137.851 36.3083C137.58 36.2427 137.383 36.0296 137.506 35.5459L137.736 34.6113L137.925 34.6605Z" fill="#DDDDDD"/>
<path d="M139.927 36.1114C140.001 35.8244 140.075 35.5375 140.116 35.3736H140.108C139.985 35.6195 139.64 36.2098 139.377 36.6606L139.213 36.6196C139.205 36.1934 139.188 35.4309 139.197 35.144H139.188C139.155 35.3244 139.073 35.6687 139.008 35.931L138.86 36.5377L138.688 36.4967L139.073 34.9473L139.353 35.0128C139.369 35.5129 139.385 36.1524 139.377 36.3655C139.451 36.2098 139.804 35.6113 140.059 35.185L140.33 35.2506L139.944 36.8L139.763 36.7508L139.927 36.1114Z" fill="#DDDDDD"/>
<path d="M141.283 36.3741L140.659 36.2184L140.527 36.7349L141.217 36.907L141.143 37.0956L140.289 36.8824L140.675 35.333L141.521 35.538L141.471 35.7347L140.815 35.5707L140.708 36.0134L141.332 36.1692L141.283 36.3741Z" fill="#DDDDDD"/>
<path d="M141.391 37.1607L141.776 35.6113L142.023 35.6687C142.113 36.0704 142.302 36.9066 142.335 37.0952C142.368 36.8984 142.433 36.6525 142.499 36.3983L142.639 35.8245L142.819 35.8655L142.433 37.4149L142.203 37.3575C142.121 36.9886 141.924 36.0786 141.891 35.8901C141.859 36.0622 141.793 36.3327 141.719 36.6115L141.571 37.2017L141.391 37.1607Z" fill="#DDDDDD"/>
<path d="M143.367 36.2102L142.965 36.1118L143.014 35.915L144.016 36.161L143.966 36.3577L143.564 36.2593L143.228 37.612L143.039 37.5628L143.367 36.2102Z" fill="#DDDDDD"/>
<path d="M144.024 37.3489C144.015 37.5375 144.089 37.6605 144.27 37.7014C144.459 37.7506 144.557 37.6604 144.598 37.5211C144.639 37.3735 144.59 37.2751 144.36 37.144C144.073 36.98 144.007 36.8243 144.057 36.6029C144.114 36.3652 144.303 36.2176 144.59 36.2832C144.902 36.357 144.976 36.6029 144.935 36.8161L144.746 36.7669C144.754 36.6357 144.722 36.5045 144.541 36.4635C144.393 36.4308 144.295 36.4881 144.254 36.6275C144.221 36.7669 144.27 36.8407 144.475 36.9554C144.812 37.1522 144.837 37.3407 144.787 37.5457C144.722 37.7998 144.516 37.9556 144.204 37.8818C143.884 37.7998 143.794 37.5539 143.827 37.3079L144.024 37.3489Z" fill="#DDDDDD"/>
<path d="M129.544 27.2085C129.503 27.184 129.454 27.1594 129.413 27.1348L128.066 32.57C128.116 32.57 128.165 32.57 128.214 32.57L129.544 27.2085Z" fill="#DDDDDD"/>
<path d="M129.796 27.3724C129.755 27.3396 129.714 27.315 129.665 27.2822L128.359 32.5453C128.409 32.5371 128.466 32.5371 128.515 32.5289L129.796 27.3724Z" fill="#DDDDDD"/>
<path d="M130.043 27.5861C130.002 27.5451 129.961 27.5123 129.92 27.4795L128.672 32.5048C128.721 32.4966 128.779 32.4802 128.828 32.4638L130.043 27.5861Z" fill="#DDDDDD"/>
<path d="M129.008 26.9629C128.958 26.9465 128.917 26.9383 128.868 26.9219L127.48 32.5129C127.53 32.5211 127.579 32.5293 127.62 32.5375L129.008 26.9629Z" fill="#DDDDDD"/>
<path d="M129.281 27.0691C129.231 27.0445 129.19 27.0281 129.141 27.0117L127.762 32.5535C127.811 32.5617 127.86 32.5617 127.918 32.5699L129.281 27.0691Z" fill="#DDDDDD"/>
<path d="M128.73 26.881C128.681 26.8728 128.632 26.8646 128.591 26.8564L127.203 32.4392C127.252 32.4556 127.293 32.472 127.343 32.4802L128.73 26.881Z" fill="#DDDDDD"/>
<path d="M130.281 27.8402C130.24 27.791 130.207 27.75 130.166 27.709L129 32.4146C129.057 32.3982 129.107 32.3736 129.164 32.349L130.281 27.8402Z" fill="#DDDDDD"/>
<path d="M130.71 28.5204C130.677 28.4548 130.645 28.381 130.612 28.3154L129.676 32.0701C129.741 32.0291 129.799 31.9881 129.856 31.9389L130.71 28.5204Z" fill="#DDDDDD"/>
<path d="M130.88 29.0287C130.856 28.9304 130.831 28.8402 130.798 28.75L130.043 31.7832C130.117 31.7177 130.183 31.6439 130.24 31.5783L130.88 29.0287Z" fill="#DDDDDD"/>
<path d="M130.502 28.1435C130.469 28.0861 130.428 28.0369 130.395 27.9795L129.328 32.2834C129.386 32.2588 129.443 32.226 129.501 32.1932L130.502 28.1435Z" fill="#DDDDDD"/>
<path d="M128.305 26.8154L126.934 32.3326C126.975 32.349 127.024 32.3736 127.065 32.39L128.444 26.8236C128.403 26.8236 128.354 26.8154 128.305 26.8154Z" fill="#DDDDDD"/>
<path d="M128.006 26.8067L126.668 32.2092C126.709 32.2338 126.758 32.2584 126.799 32.283L128.154 26.8149C128.105 26.7985 128.055 26.8067 128.006 26.8067Z" fill="#DDDDDD"/>
<path d="M127.392 26.8808L126.16 31.8406C126.201 31.8734 126.242 31.9062 126.283 31.9389L127.548 26.8398C127.49 26.8644 127.441 26.8726 127.392 26.8808Z" fill="#DDDDDD"/>
<path d="M127.703 26.824L126.406 32.0379C126.447 32.0707 126.488 32.0953 126.538 32.1281L127.859 26.8076C127.802 26.8158 127.753 26.824 127.703 26.824Z" fill="#DDDDDD"/>
<path d="M131.136 29.2009L131.308 28.5123L131.826 26.4137L131.686 26.3809L131.21 28.3156L131.07 28.8812C131.095 28.9878 131.12 29.0944 131.136 29.2009Z" fill="#DDDDDD"/>
<path d="M130.941 30.0041C130.965 29.7992 130.965 29.5942 130.941 29.3975L130.473 31.2912C130.588 31.1272 130.678 30.9469 130.752 30.7501L130.941 30.0041Z" fill="#DDDDDD"/>
<path d="M125.412 30.6271L126.151 27.6595L126.192 27.4873C126.126 27.5447 126.061 27.6021 125.995 27.6677L125.938 27.9054L125.338 30.3074L125.289 30.4877C125.314 30.5697 125.347 30.6599 125.379 30.7419L125.412 30.6271Z" fill="#DDDDDD"/>
<path d="M127.063 26.9789V26.9871L125.914 31.6107C125.955 31.6517 125.996 31.6927 126.029 31.7337L127.219 26.9297C127.178 26.9461 127.121 26.9625 127.063 26.9789Z" fill="#DDDDDD"/>
<path d="M125.307 29.8652L125.701 28.2912L125.791 27.9141C125.701 28.0288 125.627 28.1436 125.553 28.2748L125.184 29.7668C125.184 29.9144 125.2 30.0537 125.225 30.1931L125.307 29.8652Z" fill="#DDDDDD"/>
<path d="M125.595 31.1192L126.539 27.3236L126.564 27.2334C126.506 27.2744 126.441 27.3072 126.383 27.3564L126.35 27.4793L125.505 30.9061L125.488 30.9798C125.521 31.0454 125.554 31.111 125.587 31.1684L125.595 31.1192Z" fill="#DDDDDD"/>
<path d="M126.899 27.0527C126.841 27.0773 126.784 27.1019 126.726 27.1347L126.71 27.1921L125.684 31.3157V31.3239C125.716 31.373 125.757 31.4222 125.799 31.4796L126.891 27.0937L126.899 27.0527Z" fill="#DDDDDD"/>
<path d="M130.349 27.586L130.407 27.3564L130.711 26.1431L130.571 26.1104L130.284 27.2581L130.234 27.463C130.267 27.504 130.308 27.5368 130.349 27.586Z" fill="#DDDDDD"/>
<path d="M127.293 26.6843L127.621 25.3726L127.482 25.3398L127.137 26.7335C127.178 26.7171 127.235 26.7007 127.293 26.6843Z" fill="#DDDDDD"/>
<path d="M126.629 26.9469L127.056 25.2418L126.916 25.209L126.465 27.0453C126.514 27.0043 126.572 26.9797 126.629 26.9469Z" fill="#DDDDDD"/>
<path d="M126.965 26.791L127.334 25.3072L127.195 25.2744L126.801 26.8648C126.85 26.8402 126.908 26.8156 126.965 26.791Z" fill="#DDDDDD"/>
<path d="M127.605 26.6182L127.893 25.4459L127.753 25.4131L127.449 26.651C127.498 26.6428 127.548 26.6264 127.605 26.6182Z" fill="#DDDDDD"/>
<path d="M127.91 26.594L128.173 25.5201L128.033 25.4873L127.754 26.6104C127.811 26.6022 127.861 26.594 127.91 26.594Z" fill="#DDDDDD"/>
<path d="M125.479 27.9874L126.209 25.0279L126.07 24.9951L125.191 28.5284C125.265 28.3399 125.364 28.1595 125.479 27.9874Z" fill="#DDDDDD"/>
<path d="M128.206 26.5857L128.453 25.5855L128.313 25.5527L128.059 26.5939C128.108 26.5857 128.157 26.5857 128.206 26.5857Z" fill="#DDDDDD"/>
<path d="M126.274 27.1597L126.767 25.1676L126.627 25.1348L126.094 27.299C126.151 27.2498 126.217 27.2006 126.274 27.1597Z" fill="#DDDDDD"/>
<path d="M130.981 28.619L131.104 28.1354L131.547 26.3482L131.408 26.3154L130.997 27.9714L130.891 28.3977C130.923 28.4715 130.956 28.5453 130.981 28.619Z" fill="#DDDDDD"/>
<path d="M125.896 27.4713L126.487 25.1021L126.348 25.0693L125.699 27.6927C125.765 27.6189 125.831 27.5451 125.896 27.4713Z" fill="#DDDDDD"/>
<path d="M130.108 27.3478L130.149 27.1674L130.42 26.0689L130.28 26.0361L130.018 27.0937L129.977 27.2494C130.026 27.2822 130.067 27.315 130.108 27.3478Z" fill="#DDDDDD"/>
<path d="M129.854 27.1512L129.886 27.02L130.141 26.0035L130.001 25.9707L129.755 26.9545L129.73 27.0692C129.772 27.0938 129.813 27.1266 129.854 27.1512Z" fill="#DDDDDD"/>
<path d="M130.576 27.8564L130.65 27.5694L130.986 26.2086L130.847 26.1758L130.527 27.4547L130.461 27.717C130.502 27.7662 130.535 27.8072 130.576 27.8564Z" fill="#DDDDDD"/>
<path d="M130.79 28.2011L130.881 27.8322L131.267 26.2828L131.127 26.25L130.766 27.6928L130.684 28.0208C130.725 28.0781 130.757 28.1437 130.79 28.2011Z" fill="#DDDDDD"/>
<path d="M129.331 26.8568L129.347 26.8076L129.577 25.8648L129.438 25.832L129.208 26.7666C129.208 26.7666 129.208 26.7666 129.2 26.7666L129.191 26.8076C129.241 26.8158 129.29 26.8404 129.331 26.8568Z" fill="#DDDDDD"/>
<path d="M129.058 26.7498V26.7334L129.288 25.7906L129.148 25.7578L128.91 26.7088C128.968 26.7252 129.017 26.7334 129.058 26.7498Z" fill="#DDDDDD"/>
<path d="M128.788 26.6679L129.026 25.7252L128.887 25.6924L128.648 26.6433C128.689 26.6515 128.739 26.6597 128.788 26.6679Z" fill="#DDDDDD"/>
<path d="M129.6 26.9878L129.625 26.8976L129.863 25.9303L129.723 25.8975L129.485 26.8484L129.469 26.9222C129.51 26.9468 129.559 26.9632 129.6 26.9878Z" fill="#DDDDDD"/>
<path d="M128.499 26.6189L128.737 25.6597L128.598 25.627L128.352 26.6107C128.401 26.6107 128.45 26.6107 128.499 26.6189Z" fill="#DDDDDD"/>
<path d="M128.468 33.9636L128.722 32.9307L128.78 32.7012C128.73 32.7094 128.673 32.7258 128.624 32.734L128.574 32.9389L128.328 33.9227L128.468 33.9636Z" fill="#DDDDDD"/>
<path d="M128.745 34.0296L129.033 32.8901L129.098 32.6113C129.049 32.6277 128.992 32.6441 128.934 32.6605L128.869 32.9147L128.598 33.9968L128.745 34.0296Z" fill="#DDDDDD"/>
<path d="M129.026 34.1027L129.346 32.8156L129.429 32.4795C129.371 32.5041 129.314 32.5287 129.264 32.5533L129.191 32.8648L128.887 34.0781L129.026 34.1027Z" fill="#DDDDDD"/>
<path d="M129.304 34.1685L129.673 32.6929L129.78 32.2666C129.722 32.3076 129.665 32.3404 129.607 32.3732L129.509 32.7585L129.164 34.1357L129.304 34.1685Z" fill="#DDDDDD"/>
<path d="M127.48 33.7179L127.62 33.7507L127.834 32.8818L127.858 32.7752C127.809 32.7752 127.76 32.767 127.702 32.7588L127.678 32.849H127.686L127.48 33.7179Z" fill="#DDDDDD"/>
<path d="M127.902 33.824L128.123 32.9304L128.156 32.791C128.107 32.791 128.058 32.791 128.008 32.791L127.976 32.914L127.754 33.7912L127.902 33.824Z" fill="#DDDDDD"/>
<path d="M128.186 33.8901L128.425 32.9391L128.474 32.7588C128.425 32.767 128.375 32.7752 128.318 32.7752L128.277 32.9391L128.047 33.8573L128.186 33.8901Z" fill="#DDDDDD"/>
<path d="M130.152 34.3733L130.759 31.9303L131.482 29.0037L132.106 26.4869L131.966 26.4541L131.4 28.7413L131.17 29.6677C131.17 29.9218 131.145 30.176 131.079 30.4301C131.014 30.6842 130.915 30.922 130.8 31.1515L130.554 32.1271L130.004 34.3405L130.152 34.3733Z" fill="#DDDDDD"/>
<path d="M129.593 34.2345L130.02 32.5211L130.151 31.9883C130.094 32.0457 130.028 32.0949 129.962 32.144L129.847 32.6195L129.453 34.2099L129.593 34.2345Z" fill="#DDDDDD"/>
<path d="M130.429 34.4475L131.217 31.2749L131.586 29.7993L132.391 26.5611L132.251 26.5283L131.553 29.332L130.971 31.6766L130.289 34.4147L130.429 34.4475Z" fill="#DDDDDD"/>
<path d="M132.816 26.6578L130.859 34.5439L131.003 34.5794L132.96 26.6933L132.816 26.6578Z" fill="#DDDDDD"/>
<path d="M132.531 26.5856L130.574 34.4717L130.718 34.5072L132.674 26.6211L132.531 26.5856Z" fill="#DDDDDD"/>
<path d="M127.343 33.6847L127.557 32.8158L127.573 32.7502C127.524 32.742 127.474 32.7338 127.433 32.7256L127.417 32.7748L127.195 33.652L127.343 33.6847Z" fill="#DDDDDD"/>
<path d="M129.87 34.3076L130.371 32.2827L130.552 31.5449C130.486 31.6351 130.412 31.7171 130.338 31.7991L130.182 32.4139L129.723 34.2748L129.87 34.3076Z" fill="#DDDDDD"/>
<path d="M124.257 32.9143L124.987 29.9713C124.971 29.7663 124.971 29.5614 124.987 29.3564L124.117 32.8734L124.257 32.9143Z" fill="#DDDDDD"/>
<path d="M124.534 32.9884L125.117 30.6356C125.084 30.5372 125.06 30.447 125.043 30.3486L124.395 32.9556L124.534 32.9884Z" fill="#DDDDDD"/>
<path d="M124.815 33.0541L125.308 31.0784C125.275 31.0128 125.242 30.939 125.209 30.8652L124.676 33.0131L124.815 33.0541Z" fill="#DDDDDD"/>
<path d="M125.789 24.9264L123.832 32.8125L123.975 32.848L125.932 24.9619L125.789 24.9264Z" fill="#DDDDDD"/>
<path d="M125.508 24.8541L123.551 32.7402L123.694 32.7757L125.651 24.8896L125.508 24.8541Z" fill="#DDDDDD"/>
<path d="M125.23 24.7838L123.273 32.6699L123.417 32.7054L125.374 24.8193L125.23 24.7838Z" fill="#DDDDDD"/>
<path d="M125.093 33.1271L125.511 31.4384C125.47 31.381 125.438 31.3318 125.405 31.2744L124.953 33.0944L125.093 33.1271Z" fill="#DDDDDD"/>
<path d="M126.784 33.546L127.014 32.6033C126.965 32.5869 126.924 32.5623 126.883 32.5459L126.645 33.5132L126.784 33.546Z" fill="#DDDDDD"/>
<path d="M126.495 33.4722L126.741 32.4884C126.692 32.4638 126.651 32.4392 126.61 32.4229L126.355 33.4394L126.495 33.4722Z" fill="#DDDDDD"/>
<path d="M126.218 33.4061L126.48 32.3486C126.439 32.324 126.398 32.2912 126.349 32.2666L126.078 33.3733L126.218 33.4061Z" fill="#DDDDDD"/>
<path d="M125.37 33.1927L125.731 31.7253C125.69 31.6761 125.657 31.6351 125.616 31.5859L125.23 33.1599L125.37 33.1927Z" fill="#DDDDDD"/>
<path d="M127.062 33.6109L127.284 32.7173L127.292 32.6845C127.242 32.6763 127.201 32.66 127.152 32.6436L127.144 32.66L126.914 33.5781L127.062 33.6109Z" fill="#DDDDDD"/>
<path d="M125.936 33.3324L126.224 32.1765C126.183 32.1437 126.142 32.1109 126.101 32.0781L125.797 33.2996L125.936 33.3324Z" fill="#DDDDDD"/>
<path d="M125.66 33.2665L125.98 31.9794C125.939 31.9384 125.898 31.8974 125.857 31.8564L125.512 33.2337L125.66 33.2665Z" fill="#DDDDDD"/>
<path d="M157.032 69.4929L144.527 66.3994L141.674 77.8983L154.179 80.9918L157.032 69.4929Z" stroke="#DDDDDD" stroke-miterlimit="10"/>
<path d="M147.726 68.1378L145.574 67.6055L144.431 72.213L146.583 72.7453L147.726 68.1378Z" stroke="#DDDDDD" stroke-miterlimit="10"/>
<path d="M150.243 68.7631L148.395 68.3057L147.251 72.9127L149.1 73.3701L150.243 68.7631Z" stroke="#DDDDDD" stroke-miterlimit="10"/>
<path d="M152.693 69.3734L150.844 68.916L149.7 73.5235L151.549 73.9809L152.693 69.3734Z" stroke="#DDDDDD" stroke-miterlimit="10"/>
<path d="M155.542 70.0724L153.391 69.54L152.247 74.1476L154.399 74.6799L155.542 70.0724Z" stroke="#DDDDDD" stroke-miterlimit="10"/>
<path d="M146.46 73.2276L144.309 72.6953L143.165 77.3028L145.317 77.8352L146.46 73.2276Z" stroke="#DDDDDD" stroke-miterlimit="10"/>
<path d="M148.99 73.8578L147.141 73.4004L145.997 78.0079L147.846 78.4653L148.99 73.8578Z" stroke="#DDDDDD" stroke-miterlimit="10"/>
<path d="M151.431 74.4564L149.582 73.999L148.439 78.6065L150.288 79.064L151.431 74.4564Z" stroke="#DDDDDD" stroke-miterlimit="10"/>
<path d="M154.277 75.1622L152.125 74.6299L150.982 79.2374L153.134 79.7697L154.277 75.1622Z" stroke="#DDDDDD" stroke-miterlimit="10"/>
<path d="M70.3484 66.7333C79.7852 62.9108 83.0909 49.1195 77.732 35.9295C72.3732 22.7396 60.3789 15.1459 50.9422 18.9684C41.5055 22.7909 38.1997 36.5822 43.5586 49.7721C48.9175 62.962 60.9117 70.5558 70.3484 66.7333Z" stroke="#DDDDDD" stroke-miterlimit="10"/>
<path d="M68.5576 67.4685C58.6396 71.4855 46.2503 64.05 40.889 50.8595C35.5277 37.6691 39.2224 23.7162 49.1486 19.6992" stroke="#DDDDDD" stroke-miterlimit="10"/>
<path d="M41.4617 26.5282C41.4617 26.5282 22.2497 20.4946 19.0312 32.7423C19.0312 32.7423 20.5009 25.0034 28.0461 21.2242C28.0461 21.2242 42.997 13.4443 53.3255 18.0024" stroke="#DDDDDD" stroke-miterlimit="10"/>
<path d="M36.0674 27.2988L20.1067 33.7588L18.7109 39.8253L34.803 32.7423L36.0674 27.2988Z" stroke="#DDDDDD" stroke-miterlimit="10"/>
<path d="M13.8271 29.0693L12.7188 35.2506L18.7122 39.825" stroke="#DDDDDD" stroke-miterlimit="10"/>
<path d="M17.3421 27.6429C17.3421 27.6429 19.7641 20.6255 25.7823 17.5513L40.5279 12.1406L42.6215 12.4194L42.9499 13.2391L42.2849 14.2065L29.288 19.4696C29.288 19.4696 20.0679 22.675 19.1812 32.1682L15.5687 29.3973L17.1451 28.7578L17.3421 27.6429ZM17.3421 27.6429L13.8281 29.0693L20.109 33.7586" stroke="#DDDDDD" stroke-miterlimit="10"/>
<path d="M37.4807 16.1582C37.4807 16.1582 35.8058 16.9288 35.4609 18.3061" stroke="#DDDDDD" stroke-miterlimit="10"/>
<path d="M18.1133 39.3662C18.8933 43.6455 20.1987 48.1462 22.0378 52.6714C25.9459 62.2876 31.5206 70.1412 37.3171 74.9862L37.7112 73.9451L50.0348 66.7473L50.7326 66.4686C51.1431 66.3046 51.6111 66.3046 52.0052 66.5095C52.4322 66.7309 52.9001 67.1572 53.0726 67.9852C53.0726 67.9852 53.3599 69.4362 52.6867 70.0757L48.9017 72.699L48.5077 72.535L48.5487 71.6333C48.5733 70.9938 48.1628 70.42 47.5553 70.2396L46.6357 69.9691C46.2498 69.8543 45.8311 69.9117 45.4945 70.133L43.4912 71.4119C43.3434 71.5103 43.3598 71.7316 43.524 71.7972L43.8114 71.9202C44.304 72.1333 44.6981 72.5268 44.8869 73.0269L45.3221 74.15L41.1431 76.634L39.3122 74.9206C38.9427 74.5763 38.3926 74.4861 37.9328 74.6993L37.3171 74.9862" stroke="#DDDDDD" stroke-miterlimit="10"/>
<path d="M49.7811 66.8456C44.0175 62.2138 38.8861 55.3193 35.4624 46.9082C33.6972 42.5715 32.5478 38.202 31.9648 33.9883" stroke="#DDDDDD" stroke-miterlimit="10"/>
<path d="M37.4413 78.7244C30.5283 72.8465 24.2885 64.1812 20.0274 53.6961C17.7942 48.1953 16.2999 42.6781 15.5117 37.374" stroke="#DDDDDD" stroke-miterlimit="10"/>
<path d="M41.1445 76.6337C41.1445 76.6337 48.5256 83.4298 54.8064 76.4206C54.8064 76.4206 57.8278 73.0348 59.6012 68.2227" stroke="#DDDDDD" stroke-miterlimit="10"/>
<path d="M60.9868 68.4443C56.8078 80.5936 48.7617 81.356 48.7617 81.356C48.7617 81.356 53.77 84.2417 64.5665 76.4783C66.5451 75.0518 68.3432 73.3876 69.9442 71.5431C71.9311 69.2477 74.468 65.9603 75.1413 63.46" stroke="#DDDDDD" stroke-miterlimit="10"/>
<path d="M37.3153 74.9941C37.3153 74.9941 35.3038 76.1419 38.2677 79.7325C38.2677 79.7325 39.1708 81.0032 42.299 81.782C42.5781 81.8476 42.8573 81.9296 43.1282 82.0198L44.1134 82.3641C45.1643 82.733 46.1331 83.2986 46.9706 84.0446C47.5289 84.5447 48.276 84.7989 49.0232 84.7497L52.2662 84.5201C52.2662 84.5201 50.0987 83.8233 48.588 82.1837C47.8655 81.4787 47.0445 80.8802 46.1496 80.413L42.8408 78.675C42.2825 78.3799 41.7571 78.0192 41.2891 77.5847L38.8506 75.363C38.8506 75.363 37.9968 74.617 37.3153 74.9941Z" stroke="#DDDDDD" stroke-miterlimit="10"/>
<path d="M44.207 78.6016C44.207 78.6016 45.7588 79.5525 46.6865 79.9214C46.6865 79.9214 48.9279 80.7986 49.4205 82.9465" stroke="#DDDDDD" stroke-miterlimit="10"/>
<path d="M50.5273 83.709L52.6949 83.3483L52.7195 84.578L58.5734 80.0938" stroke="#DDDDDD" stroke-miterlimit="10"/>
<path d="M52.6953 83.3482L55.848 81.1348" stroke="#DDDDDD" stroke-miterlimit="10"/>
<path d="M44.5811 71.3301L45.7141 70.5758C45.8455 70.4857 46.0097 70.4693 46.1575 70.5185L47.2905 70.9202C47.4711 70.9858 47.6107 71.1169 47.6846 71.2973L47.8899 71.7973C47.9063 71.8383 47.8899 71.8875 47.857 71.9121L46.0918 73.0598C46.0426 73.0926 45.9769 73.068 45.9522 73.0188L45.7552 72.527C45.7141 72.4368 45.6485 72.363 45.5582 72.322L44.6304 71.8957C44.4005 71.7809 44.3759 71.4694 44.5811 71.3301Z" stroke="#DDDDDD" stroke-miterlimit="10"/>
<path d="M46.2344 73.4041L46.4478 73.937L48.3034 72.7975L48.0653 72.2236L46.2344 73.4041Z" stroke="#DDDDDD" stroke-miterlimit="10"/>
<path d="M46.7843 74.1585L48.533 73.0928C48.533 73.0928 49.9616 72.8796 51.8664 76.085L49.6907 77.2983C49.6907 77.2983 48.4263 74.8799 46.8089 74.3389C46.7186 74.3143 46.7104 74.1995 46.7843 74.1585Z" stroke="#DDDDDD" stroke-miterlimit="10"/>
<path d="M43.0391 75.5029C43.0391 75.5029 46.3724 78.5444 49.6812 77.2983" stroke="#DDDDDD" stroke-miterlimit="10"/>
<path d="M51.6992 70.748C51.6992 70.748 56.0507 72.7565 57.898 71.8876" stroke="#DDDDDD" stroke-miterlimit="10"/>
<path d="M52.3398 70.3047C52.3398 70.3047 54.5566 71.8377 56.3136 72.0918" stroke="#DDDDDD" stroke-miterlimit="10"/>
<path d="M51.1992 66.3535L51.7083 65.9108C51.856 65.7796 52.0695 65.7386 52.2583 65.8042C52.6524 65.9436 53.3503 66.3289 54.2206 67.3782C54.7296 67.9849 55.3044 68.5341 55.9283 69.0178C56.8397 69.731 58.0137 70.477 58.7444 70.2721" stroke="#DDDDDD" stroke-miterlimit="10"/>
</g>
<defs>
<clipPath id="clip0_115_7434">
<rect width="174" height="223" fill="white"/>
</clipPath>
</defs>
</svg>
