<svg width="200" height="136" viewBox="0 0 200 136" fill="none" xmlns="http://www.w3.org/2000/svg">
<g clip-path="url(#clip0_115_7579)">
<path d="M10.1562 64.7792V32.3042C10.1562 28.5373 14.0871 26.0618 17.4828 27.6955L40.2044 33.2103" stroke="#DDDDDD" stroke-miterlimit="10"/>
<path d="M56.106 133.46L10.1562 112.307V96.5976V89.1709" stroke="#DDDDDD" stroke-miterlimit="10"/>
<path d="M195.31 103.511L195.06 115.154C194.989 118.378 192.542 121.054 189.332 121.411L61.8553 135.358C56.5263 135.358 52.2031 131.035 52.2031 125.705V119.634" stroke="#DDDDDD" stroke-miterlimit="10"/>
<path d="M128.055 17.3864L157.468 14.8252L183.3 21.3102" stroke="#DDDDDD" stroke-miterlimit="10"/>
<path d="M82.9883 21.3105L122.111 17.9004" stroke="#DDDDDD" stroke-miterlimit="10"/>
<path d="M15.5938 27.1817L77.0312 21.8311" stroke="#DDDDDD" stroke-miterlimit="10"/>
<path d="M199.512 68.8174L52.2031 82.2012V119.435L195.517 103.775C196.922 103.625 197.999 102.47 198.064 101.057L199.512 68.8174Z" stroke="#DDDDDD" stroke-miterlimit="10"/>
<path d="M52.2031 82.2011L40.2109 33.2033L183.296 21.3105L199.512 68.8173L52.2031 82.2011Z" stroke="#DDDDDD" stroke-miterlimit="10"/>
<path d="M127.952 14.1619C127.952 10.345 126.418 6.79934 123.622 4.16681C120.825 1.53428 117.009 0.157378 113.149 0.378539L90.021 1.75544C82.6588 2.19063 76.8945 8.24758 76.8945 15.5388V26.3685C76.9159 26.6467 78.2642 26.7752 79.8908 26.6467C81.5173 26.5183 82.8157 26.183 82.7943 25.9048C82.7943 25.8905 82.7943 25.8762 82.7943 25.8691V15.5388C82.7943 11.3652 86.1258 7.89801 90.3705 7.64118L113.499 6.26427C113.67 6.25714 113.834 6.25 114.005 6.25C116.096 6.25 118.057 7.02763 119.577 8.45448C121.175 9.9598 122.052 11.9859 122.052 14.1547V22.5446C122.102 22.8228 123.429 22.9298 125.049 22.7871C126.639 22.6516 127.916 22.3163 127.952 22.0452V14.1619Z" stroke="#DDDDDD" stroke-miterlimit="10"/>
<path d="M30.8245 77.0921C30.8245 70.657 26.4942 65.3991 21.0011 64.9354V64.8926H9.59392C4.38614 65.6702 0.355469 70.8925 0.355469 77.0921C0.355469 83.2917 4.38614 88.5211 9.59392 89.2987H21.0011V89.2559C26.4942 88.7851 30.8245 83.5272 30.8245 77.0921Z" stroke="#DDDDDD" stroke-miterlimit="10"/>
<path d="M12.2109 89.299C17.7041 88.8282 22.0344 83.5275 22.0344 77.0924C22.0344 70.6573 17.7041 65.3566 12.2109 64.8857" stroke="#DDDDDD" stroke-miterlimit="10"/>
<path d="M19.1094 89.2558C24.6025 88.785 28.9328 83.527 28.9328 77.0991C28.9328 70.6712 24.6025 65.4061 19.1094 64.9424" stroke="#DDDDDD" stroke-miterlimit="10"/>
</g>
<defs>
<clipPath id="clip0_115_7579">
<rect width="200" height="135.714" fill="white"/>
</clipPath>
</defs>
</svg>
