<svg width="142" height="223" viewBox="0 0 142 223" fill="none" xmlns="http://www.w3.org/2000/svg">
<g clip-path="url(#clip0_115_6623)">
<path d="M129.445 222.473H11.2409C9.19142 222.473 7.53125 220.942 7.53125 219.052V3.9487C7.53125 2.05904 9.19142 0.52832 11.2409 0.52832H129.445C131.494 0.52832 133.155 2.05904 133.155 3.9487V219.052C133.155 220.942 131.494 222.473 129.445 222.473Z" stroke="#68829E" stroke-miterlimit="10"/>
<path d="M7.53293 218.735H2.51807C1.47617 218.735 0.628906 217.954 0.628906 216.993V4.05384C0.628906 2.71313 1.8082 1.61523 3.27373 1.61523H8.64352" stroke="#68829E" stroke-miterlimit="10"/>
<path d="M133.58 218.735H138.595C139.637 218.735 140.484 217.954 140.484 216.993V4.05384C140.484 2.71313 139.305 1.61523 137.839 1.61523H132.172" stroke="#68829E" stroke-miterlimit="10"/>
<path d="M119.6 13.6611H20.5625V89.5639H119.6V13.6611Z" stroke="#68829E" stroke-miterlimit="10"/>
<path d="M120.539 126.142H20.5625V108.143C20.5625 104.174 24.0546 100.954 28.3481 100.954H112.742C117.047 100.954 120.539 104.174 120.539 108.143V126.142V126.142Z" stroke="#68829E" stroke-miterlimit="10"/>
<path d="M52.8617 112.599H29.0469V116.769H52.8617V112.599Z" stroke="#68829E" stroke-miterlimit="10"/>
<path d="M82.4594 112.599H58.6445V116.769H82.4594V112.599Z" stroke="#68829E" stroke-miterlimit="10"/>
<path d="M112.42 112.599H88.6055V116.769H112.42V112.599Z" stroke="#68829E" stroke-miterlimit="10"/>
<path d="M52.2776 138.051H37.5078V150.37H52.2776V138.051Z" stroke="#68829E" stroke-miterlimit="10"/>
<path d="M7.53125 157.887H133.155" stroke="#68829E" stroke-miterlimit="10"/>
<path d="M7.53125 194.835H133.155" stroke="#68829E" stroke-miterlimit="10"/>
<path d="M84.5551 182.314H56.5039V190.316H84.5551V182.314Z" stroke="#68829E" stroke-miterlimit="10"/>
</g>
<defs>
<clipPath id="clip0_115_6623">
<rect width="141" height="223" fill="white" transform="translate(0.0546875)"/>
</clipPath>
</defs>
</svg>
