<svg width="80" height="265" viewBox="0 0 80 265" fill="none" xmlns="http://www.w3.org/2000/svg">
<g clip-path="url(#clip0_115_5948)">
<path d="M4.83172 258.432C2.72172 258.432 1.01172 256.722 1.01172 254.612V20.362C1.01172 18.252 2.72172 16.542 4.83172 16.542V258.432Z" stroke="#DDDDDD" stroke-miterlimit="10"/>
<path d="M75.332 17.1023V258.432C77.442 258.432 79.152 256.722 79.152 254.612V20.3623C79.152 18.4123 77.692 16.8023 75.802 16.5723" stroke="#DDDDDD" stroke-miterlimit="10"/>
<path d="M75.412 258.521H4.83203" stroke="#DDDDDD" stroke-miterlimit="10"/>
<path d="M5.43359 16.4521H69.6336" stroke="#DDDDDD" stroke-miterlimit="10"/>
<path d="M69.6014 15.572L41.7214 11.122C40.6914 10.962 39.6514 10.962 38.6214 11.122L4.94141 16.462H69.5814" stroke="#DDDDDD" stroke-miterlimit="10"/>
<path d="M60.6628 60.0118H19.4628C18.8728 60.0118 18.3828 59.5318 18.3828 58.9318V31.1718C18.3828 30.5818 18.8628 30.0918 19.4628 30.0918H60.6628C61.2528 30.0918 61.7428 30.5718 61.7428 31.1718V58.9318C61.7428 59.5218 61.2628 60.0118 60.6628 60.0118Z" stroke="#DDDDDD" stroke-miterlimit="10"/>
<path d="M56.7239 56.5518H23.4139C23.0539 56.5518 22.7539 56.2618 22.7539 55.8918V34.2118C22.7539 33.8518 23.0439 33.5518 23.4139 33.5518H56.7239C57.0839 33.5518 57.3839 33.8418 57.3839 34.2118V55.8918C57.3839 56.2518 57.0839 56.5518 56.7239 56.5518Z" stroke="#DDDDDD" stroke-miterlimit="10"/>
<path d="M65.7619 43.1114C65.7619 43.2014 65.6819 43.2814 65.5919 43.2814C65.5019 43.2814 65.4219 43.2014 65.4219 43.1114C65.4219 43.0214 65.5019 42.9414 65.5919 42.9414C65.6919 42.9414 65.7619 43.0214 65.7619 43.1114Z" fill="#DDDDDD"/>
<path d="M66.3322 43.1114C66.3322 43.2014 66.2522 43.2814 66.1622 43.2814C66.0722 43.2814 65.9922 43.2014 65.9922 43.1114C65.9922 43.0214 66.0722 42.9414 66.1622 42.9414C66.2522 42.9414 66.3322 43.0214 66.3322 43.1114Z" fill="#DDDDDD"/>
<path d="M66.9103 43.1114C66.9103 43.2014 66.8303 43.2814 66.7403 43.2814C66.6503 43.2814 66.5703 43.2014 66.5703 43.1114C66.5703 43.0214 66.6503 42.9414 66.7403 42.9414C66.8403 42.9414 66.9103 43.0214 66.9103 43.1114Z" fill="#DDDDDD"/>
<path d="M65.7619 43.6915C65.7619 43.7815 65.6819 43.8615 65.5919 43.8615C65.5019 43.8615 65.4219 43.7815 65.4219 43.6915C65.4219 43.6015 65.5019 43.5215 65.5919 43.5215C65.6919 43.5215 65.7619 43.6015 65.7619 43.6915Z" fill="#DDDDDD"/>
<path d="M65.1408 43.6915C65.1408 43.7815 65.0608 43.8615 64.9708 43.8615C64.8808 43.8615 64.8008 43.7815 64.8008 43.6915C64.8008 43.6015 64.8808 43.5215 64.9708 43.5215C65.0608 43.5215 65.1408 43.6015 65.1408 43.6915Z" fill="#DDDDDD"/>
<path d="M65.1408 44.2618C65.1408 44.3518 65.0608 44.4318 64.9708 44.4318C64.8808 44.4318 64.8008 44.3518 64.8008 44.2618C64.8008 44.1718 64.8808 44.0918 64.9708 44.0918C65.0608 44.0918 65.1408 44.1618 65.1408 44.2618Z" fill="#DDDDDD"/>
<path d="M65.1408 44.8419C65.1408 44.9319 65.0608 45.0119 64.9708 45.0119C64.8808 45.0119 64.8008 44.9319 64.8008 44.8419C64.8008 44.7519 64.8808 44.6719 64.9708 44.6719C65.0608 44.6719 65.1408 44.7519 65.1408 44.8419Z" fill="#DDDDDD"/>
<path d="M64.5509 44.8419C64.5509 44.9319 64.4709 45.0119 64.3809 45.0119C64.2909 45.0119 64.2109 44.9319 64.2109 44.8419C64.2109 44.7519 64.2909 44.6719 64.3809 44.6719C64.4709 44.6719 64.5509 44.7519 64.5509 44.8419Z" fill="#DDDDDD"/>
<path d="M64.5509 45.4415C64.5509 45.5315 64.4709 45.6115 64.3809 45.6115C64.2909 45.6115 64.2109 45.5315 64.2109 45.4415C64.2109 45.3515 64.2909 45.2715 64.3809 45.2715C64.4709 45.2715 64.5509 45.3415 64.5509 45.4415Z" fill="#DDDDDD"/>
<path d="M64.5509 46.0411C64.5509 46.1311 64.4709 46.2111 64.3809 46.2111C64.2909 46.2111 64.2109 46.1311 64.2109 46.0411C64.2109 45.9511 64.2909 45.8711 64.3809 45.8711C64.4709 45.8711 64.5509 45.9511 64.5509 46.0411Z" fill="#DDDDDD"/>
<path d="M64.5509 46.6417C64.5509 46.7317 64.4709 46.8117 64.3809 46.8117C64.2909 46.8117 64.2109 46.7317 64.2109 46.6417C64.2109 46.5517 64.2909 46.4717 64.3809 46.4717C64.4709 46.4717 64.5509 46.5517 64.5509 46.6417Z" fill="#DDDDDD"/>
<path d="M64.5509 47.2218C64.5509 47.3118 64.4709 47.3918 64.3809 47.3918C64.2909 47.3918 64.2109 47.3118 64.2109 47.2218C64.2109 47.1318 64.2909 47.0518 64.3809 47.0518C64.4709 47.0518 64.5509 47.1318 64.5509 47.2218Z" fill="#DDDDDD"/>
<path d="M68.1017 44.8419C68.1017 44.9319 68.0217 45.0119 67.9317 45.0119C67.8417 45.0119 67.7617 44.9319 67.7617 44.8419C67.7617 44.7519 67.8417 44.6719 67.9317 44.6719C68.0317 44.6719 68.1017 44.7519 68.1017 44.8419Z" fill="#DDDDDD"/>
<path d="M68.1017 45.4415C68.1017 45.5315 68.0217 45.6115 67.9317 45.6115C67.8417 45.6115 67.7617 45.5315 67.7617 45.4415C67.7617 45.3515 67.8417 45.2715 67.9317 45.2715C68.0317 45.2715 68.1017 45.3415 68.1017 45.4415Z" fill="#DDDDDD"/>
<path d="M68.1017 46.0411C68.1017 46.1311 68.0217 46.2111 67.9317 46.2111C67.8417 46.2111 67.7617 46.1311 67.7617 46.0411C67.7617 45.9511 67.8417 45.8711 67.9317 45.8711C68.0317 45.8711 68.1017 45.9511 68.1017 46.0411Z" fill="#DDDDDD"/>
<path d="M68.1017 46.6417C68.1017 46.7317 68.0217 46.8117 67.9317 46.8117C67.8417 46.8117 67.7617 46.7317 67.7617 46.6417C67.7617 46.5517 67.8417 46.4717 67.9317 46.4717C68.0317 46.4717 68.1017 46.5517 68.1017 46.6417Z" fill="#DDDDDD"/>
<path d="M68.1017 47.2218C68.1017 47.3118 68.0217 47.3918 67.9317 47.3918C67.8417 47.3918 67.7617 47.3118 67.7617 47.2218C67.7617 47.1318 67.8417 47.0518 67.9317 47.0518C68.0317 47.0518 68.1017 47.1318 68.1017 47.2218Z" fill="#DDDDDD"/>
<path d="M65.1408 45.4512C65.1408 45.5412 65.0608 45.6213 64.9708 45.6213C64.8808 45.6213 64.8008 45.5412 64.8008 45.4512C64.8008 45.3612 64.8808 45.2812 64.9708 45.2812C65.0608 45.2812 65.1408 45.3512 65.1408 45.4512Z" fill="#DDDDDD"/>
<path d="M65.1408 46.0313C65.1408 46.1213 65.0608 46.2013 64.9708 46.2013C64.8808 46.2013 64.8008 46.1213 64.8008 46.0313C64.8008 45.9413 64.8808 45.8613 64.9708 45.8613C65.0608 45.8613 65.1408 45.9413 65.1408 46.0313Z" fill="#DDDDDD"/>
<path d="M65.1408 46.6417C65.1408 46.7317 65.0608 46.8117 64.9708 46.8117C64.8808 46.8117 64.8008 46.7317 64.8008 46.6417C64.8008 46.5517 64.8808 46.4717 64.9708 46.4717C65.0608 46.4717 65.1408 46.5417 65.1408 46.6417Z" fill="#DDDDDD"/>
<path d="M65.1408 47.2315C65.1408 47.3215 65.0608 47.4015 64.9708 47.4015C64.8808 47.4015 64.8008 47.3215 64.8008 47.2315C64.8008 47.1415 64.8808 47.0615 64.9708 47.0615C65.0608 47.0615 65.1408 47.1415 65.1408 47.2315Z" fill="#DDDDDD"/>
<path d="M65.1408 47.8311C65.1408 47.9211 65.0608 48.0011 64.9708 48.0011C64.8808 48.0011 64.8008 47.9211 64.8008 47.8311C64.8008 47.7411 64.8808 47.6611 64.9708 47.6611C65.0608 47.6611 65.1408 47.7311 65.1408 47.8311Z" fill="#DDDDDD"/>
<path d="M66.3322 43.6915C66.3322 43.7815 66.2522 43.8615 66.1622 43.8615C66.0722 43.8615 65.9922 43.7815 65.9922 43.6915C65.9922 43.6015 66.0722 43.5215 66.1622 43.5215C66.2522 43.5215 66.3322 43.6015 66.3322 43.6915Z" fill="#DDDDDD"/>
<path d="M66.9103 43.6915C66.9103 43.7815 66.8303 43.8615 66.7403 43.8615C66.6503 43.8615 66.5703 43.7815 66.5703 43.6915C66.5703 43.6015 66.6503 43.5215 66.7403 43.5215C66.8403 43.5215 66.9103 43.6015 66.9103 43.6915Z" fill="#DDDDDD"/>
<path d="M67.5197 43.6915C67.5197 43.7815 67.4397 43.8615 67.3497 43.8615C67.2597 43.8615 67.1797 43.7815 67.1797 43.6915C67.1797 43.6015 67.2597 43.5215 67.3497 43.5215C67.4497 43.5215 67.5197 43.6015 67.5197 43.6915Z" fill="#DDDDDD"/>
<path d="M67.5197 44.2618C67.5197 44.3518 67.4397 44.4318 67.3497 44.4318C67.2597 44.4318 67.1797 44.3518 67.1797 44.2618C67.1797 44.1718 67.2597 44.0918 67.3497 44.0918C67.4497 44.0918 67.5197 44.1618 67.5197 44.2618Z" fill="#DDDDDD"/>
<path d="M67.3497 44.6816C67.4397 44.6816 67.5197 44.7616 67.5197 44.8516C67.5197 44.9416 67.4397 45.0216 67.3497 45.0216C67.2597 45.0216 67.1797 44.9416 67.1797 44.8516C67.1797 44.7616 67.2597 44.6816 67.3497 44.6816Z" fill="#DDDDDD"/>
<path d="M67.3497 45.2812C67.4397 45.2812 67.5197 45.3612 67.5197 45.4512C67.5197 45.5412 67.4397 45.6213 67.3497 45.6213C67.2597 45.6213 67.1797 45.5412 67.1797 45.4512C67.1797 45.3612 67.2597 45.2812 67.3497 45.2812Z" fill="#DDDDDD"/>
<path d="M67.3497 45.8711C67.4397 45.8711 67.5197 45.9511 67.5197 46.0411C67.5197 46.1311 67.4397 46.2111 67.3497 46.2111C67.2597 46.2111 67.1797 46.1311 67.1797 46.0411C67.1797 45.9511 67.2597 45.8711 67.3497 45.8711Z" fill="#DDDDDD"/>
<path d="M67.3497 46.4609C67.4397 46.4609 67.5197 46.5409 67.5197 46.6309C67.5197 46.7209 67.4397 46.8009 67.3497 46.8009C67.2597 46.8009 67.1797 46.7209 67.1797 46.6309C67.1797 46.5409 67.2597 46.4609 67.3497 46.4609Z" fill="#DDDDDD"/>
<path d="M67.3497 47.0713C67.4397 47.0713 67.5197 47.1513 67.5197 47.2413C67.5197 47.3313 67.4397 47.4113 67.3497 47.4113C67.2597 47.4113 67.1797 47.3313 67.1797 47.2413C67.1797 47.1513 67.2597 47.0713 67.3497 47.0713Z" fill="#DDDDDD"/>
<path d="M67.3497 47.6611C67.4397 47.6611 67.5197 47.7411 67.5197 47.8311C67.5197 47.9211 67.4397 48.0011 67.3497 48.0011C67.2597 48.0011 67.1797 47.9211 67.1797 47.8311C67.1797 47.7311 67.2597 47.6611 67.3497 47.6611Z" fill="#DDDDDD"/>
<path d="M65.7619 44.2618C65.7619 44.3518 65.6819 44.4318 65.5919 44.4318C65.5019 44.4318 65.4219 44.3518 65.4219 44.2618C65.4219 44.1718 65.5019 44.0918 65.5919 44.0918C65.6919 44.0918 65.7619 44.1618 65.7619 44.2618Z" fill="#DDDDDD"/>
<path d="M66.3322 44.2618C66.3322 44.3518 66.2522 44.4318 66.1622 44.4318C66.0722 44.4318 65.9922 44.3518 65.9922 44.2618C65.9922 44.1718 66.0722 44.0918 66.1622 44.0918C66.2522 44.0918 66.3322 44.1618 66.3322 44.2618Z" fill="#DDDDDD"/>
<path d="M66.9103 44.2618C66.9103 44.3518 66.8303 44.4318 66.7403 44.4318C66.6503 44.4318 66.5703 44.3518 66.5703 44.2618C66.5703 44.1718 66.6503 44.0918 66.7403 44.0918C66.8403 44.0918 66.9103 44.1618 66.9103 44.2618Z" fill="#DDDDDD"/>
<path d="M65.7619 44.8809C65.7619 44.9709 65.6819 45.0509 65.5919 45.0509C65.5019 45.0509 65.4219 44.9709 65.4219 44.8809C65.4219 44.7909 65.5019 44.7109 65.5919 44.7109C65.6919 44.7109 65.7619 44.7809 65.7619 44.8809Z" fill="#DDDDDD"/>
<path d="M66.3322 44.8809C66.3322 44.9709 66.2522 45.0509 66.1622 45.0509C66.0722 45.0509 65.9922 44.9709 65.9922 44.8809C65.9922 44.7909 66.0722 44.7109 66.1622 44.7109C66.2522 44.7109 66.3322 44.7809 66.3322 44.8809Z" fill="#DDDDDD"/>
<path d="M66.9103 44.8809C66.9103 44.9709 66.8303 45.0509 66.7403 45.0509C66.6503 45.0509 66.5703 44.9709 66.5703 44.8809C66.5703 44.7909 66.6503 44.7109 66.7403 44.7109C66.8403 44.7109 66.9103 44.7809 66.9103 44.8809Z" fill="#DDDDDD"/>
<path d="M65.7619 45.461C65.7619 45.551 65.6819 45.631 65.5919 45.631C65.5019 45.631 65.4219 45.551 65.4219 45.461C65.4219 45.371 65.5019 45.291 65.5919 45.291C65.6919 45.291 65.7619 45.371 65.7619 45.461Z" fill="#DDDDDD"/>
<path d="M66.3322 45.461C66.3322 45.551 66.2522 45.631 66.1622 45.631C66.0722 45.631 65.9922 45.551 65.9922 45.461C65.9922 45.371 66.0722 45.291 66.1622 45.291C66.2522 45.291 66.3322 45.371 66.3322 45.461Z" fill="#DDDDDD"/>
<path d="M66.9103 45.461C66.9103 45.551 66.8303 45.631 66.7403 45.631C66.6503 45.631 66.5703 45.551 66.5703 45.461C66.5703 45.371 66.6503 45.291 66.7403 45.291C66.8403 45.291 66.9103 45.371 66.9103 45.461Z" fill="#DDDDDD"/>
<path d="M65.7619 46.0616C65.7619 46.1516 65.6819 46.2316 65.5919 46.2316C65.5019 46.2316 65.4219 46.1516 65.4219 46.0616C65.4219 45.9716 65.5019 45.8916 65.5919 45.8916C65.6919 45.8916 65.7619 45.9716 65.7619 46.0616Z" fill="#DDDDDD"/>
<path d="M66.3322 46.0616C66.3322 46.1516 66.2522 46.2316 66.1622 46.2316C66.0722 46.2316 65.9922 46.1516 65.9922 46.0616C65.9922 45.9716 66.0722 45.8916 66.1622 45.8916C66.2522 45.8916 66.3322 45.9716 66.3322 46.0616Z" fill="#DDDDDD"/>
<path d="M66.9103 46.0616C66.9103 46.1516 66.8303 46.2316 66.7403 46.2316C66.6503 46.2316 66.5703 46.1516 66.5703 46.0616C66.5703 45.9716 66.6503 45.8916 66.7403 45.8916C66.8403 45.8916 66.9103 45.9716 66.9103 46.0616Z" fill="#DDDDDD"/>
<path d="M65.7619 46.6309C65.7619 46.7209 65.6819 46.8009 65.5919 46.8009C65.5019 46.8009 65.4219 46.7209 65.4219 46.6309C65.4219 46.5409 65.5019 46.4609 65.5919 46.4609C65.6919 46.4609 65.7619 46.5309 65.7619 46.6309Z" fill="#DDDDDD"/>
<path d="M66.3322 46.6309C66.3322 46.7209 66.2522 46.8009 66.1622 46.8009C66.0722 46.8009 65.9922 46.7209 65.9922 46.6309C65.9922 46.5409 66.0722 46.4609 66.1622 46.4609C66.2522 46.4609 66.3322 46.5309 66.3322 46.6309Z" fill="#DDDDDD"/>
<path d="M66.9103 46.6309C66.9103 46.7209 66.8303 46.8009 66.7403 46.8009C66.6503 46.8009 66.5703 46.7209 66.5703 46.6309C66.5703 46.5409 66.6503 46.4609 66.7403 46.4609C66.8403 46.4609 66.9103 46.5309 66.9103 46.6309Z" fill="#DDDDDD"/>
<path d="M65.7619 47.2315C65.7619 47.3215 65.6819 47.4015 65.5919 47.4015C65.5019 47.4015 65.4219 47.3215 65.4219 47.2315C65.4219 47.1415 65.5019 47.0615 65.5919 47.0615C65.6919 47.0615 65.7619 47.1315 65.7619 47.2315Z" fill="#DDDDDD"/>
<path d="M66.3322 47.2315C66.3322 47.3215 66.2522 47.4015 66.1622 47.4015C66.0722 47.4015 65.9922 47.3215 65.9922 47.2315C65.9922 47.1415 66.0722 47.0615 66.1622 47.0615C66.2522 47.0615 66.3322 47.1315 66.3322 47.2315Z" fill="#DDDDDD"/>
<path d="M66.9103 47.2315C66.9103 47.3215 66.8303 47.4015 66.7403 47.4015C66.6503 47.4015 66.5703 47.3215 66.5703 47.2315C66.5703 47.1415 66.6503 47.0615 66.7403 47.0615C66.8403 47.0615 66.9103 47.1315 66.9103 47.2315Z" fill="#DDDDDD"/>
<path d="M65.7619 47.8311C65.7619 47.9211 65.6819 48.0011 65.5919 48.0011C65.5019 48.0011 65.4219 47.9211 65.4219 47.8311C65.4219 47.7411 65.5019 47.6611 65.5919 47.6611C65.6919 47.6611 65.7619 47.7311 65.7619 47.8311Z" fill="#DDDDDD"/>
<path d="M66.3322 47.8311C66.3322 47.9211 66.2522 48.0011 66.1622 48.0011C66.0722 48.0011 65.9922 47.9211 65.9922 47.8311C65.9922 47.7411 66.0722 47.6611 66.1622 47.6611C66.2522 47.6611 66.3322 47.7311 66.3322 47.8311Z" fill="#DDDDDD"/>
<path d="M66.9103 47.8311C66.9103 47.9211 66.8303 48.0011 66.7403 48.0011C66.6503 48.0011 66.5703 47.9211 66.5703 47.8311C66.5703 47.7411 66.6503 47.6611 66.7403 47.6611C66.8403 47.6611 66.9103 47.7311 66.9103 47.8311Z" fill="#DDDDDD"/>
<path d="M65.7619 48.4112C65.7619 48.5012 65.6819 48.5812 65.5919 48.5812C65.5019 48.5812 65.4219 48.5012 65.4219 48.4112C65.4219 48.3212 65.5019 48.2412 65.5919 48.2412C65.6919 48.2412 65.7619 48.3212 65.7619 48.4112Z" fill="#DDDDDD"/>
<path d="M66.3322 48.4112C66.3322 48.5012 66.2522 48.5812 66.1622 48.5812C66.0722 48.5812 65.9922 48.5012 65.9922 48.4112C65.9922 48.3212 66.0722 48.2412 66.1622 48.2412C66.2522 48.2412 66.3322 48.3212 66.3322 48.4112Z" fill="#DDDDDD"/>
<path d="M66.9103 48.4112C66.9103 48.5012 66.8303 48.5812 66.7403 48.5812C66.6503 48.5812 66.5703 48.5012 66.5703 48.4112C66.5703 48.3212 66.6503 48.2412 66.7403 48.2412C66.8403 48.2412 66.9103 48.3212 66.9103 48.4112Z" fill="#DDDDDD"/>
<path opacity="0.8" d="M67.472 58.6921C67.472 59.4221 66.882 60.0121 66.152 60.0121C65.422 60.0121 64.832 59.4221 64.832 58.6921C64.832 57.9621 65.422 57.3721 66.152 57.3721C66.882 57.3721 67.472 57.9621 67.472 58.6921Z" fill="#DDDDDD"/>
<path opacity="0.5" d="M67.3819 58.6021C67.3819 59.2821 66.8319 59.8321 66.1519 59.8321C65.4719 59.8321 64.9219 59.2821 64.9219 58.6021C64.9219 57.9221 65.4719 57.3721 66.1519 57.3721C66.8319 57.3721 67.3819 57.9221 67.3819 58.6021Z" fill="#DDDDDD"/>
<path opacity="0.5" d="M8.47203 165.702C8.47203 166.432 7.88203 167.022 7.15203 167.022C6.42203 167.022 5.83203 166.432 5.83203 165.702C5.83203 164.972 6.42203 164.382 7.15203 164.382C7.88203 164.382 8.47203 164.972 8.47203 165.702Z" fill="#DDDDDD"/>
<path opacity="0.5" d="M8.38188 165.612C8.38188 166.292 7.83188 166.842 7.15188 166.842C6.47188 166.842 5.92188 166.292 5.92188 165.612C5.92188 164.932 6.47188 164.382 7.15188 164.382C7.83188 164.382 8.38188 164.932 8.38188 165.612Z" fill="#DDDDDD"/>
<path d="M72.8705 160.252H7.25047C6.27047 160.252 5.48047 159.462 5.48047 158.482V71.3921C5.48047 70.4121 6.27047 69.6221 7.25047 69.6221H72.8705C73.8505 69.6221 74.6405 70.4121 74.6405 71.3921V158.472C74.6405 159.462 73.8505 160.252 72.8705 160.252Z" stroke="#DDDDDD" stroke-miterlimit="10"/>
<path d="M69.6602 9.35156V16.6216C69.6602 17.1016 71.0102 17.5016 72.6802 17.5016C74.3502 17.5016 75.7002 17.1116 75.7002 16.6216V9.35156" stroke="#DDDDDD" stroke-miterlimit="10"/>
<path d="M69.6602 8.67188V15.9419C69.6602 16.4219 71.0102 16.8219 72.6802 16.8219C74.3502 16.8219 75.7002 16.4319 75.7002 15.9419V8.67188" stroke="#DDDDDD" stroke-miterlimit="10"/>
<path d="M75.7119 9.07141C75.7119 9.55141 74.3619 9.95141 72.6919 9.95141C71.0219 9.95141 69.6719 9.56141 69.6719 9.07141C69.6719 8.59141 71.0219 8.19141 72.6919 8.19141C74.3619 8.19141 75.7119 8.58141 75.7119 9.07141Z" stroke="#DDDDDD" stroke-miterlimit="10"/>
<path d="M69.6602 1.80176V9.07176C69.6602 9.55176 71.0102 9.95176 72.6802 9.95176C74.3502 9.95176 75.7002 9.56176 75.7002 9.07176V1.80176" stroke="#DDDDDD" stroke-miterlimit="10"/>
<path d="M75.7119 1.80187C75.7119 2.28187 74.3619 2.68187 72.6919 2.68187C71.0219 2.68187 69.6719 2.29188 69.6719 1.80187C69.6719 1.32188 71.0219 0.921875 72.6919 0.921875C74.3619 0.921875 75.7119 1.31187 75.7119 1.80187Z" stroke="#DDDDDD" stroke-miterlimit="10"/>
<path d="M8.67188 260.822V262.942C8.71187 263.442 10.4819 263.852 12.6519 263.852C14.8219 263.852 16.5919 263.452 16.6319 262.942V260.822" stroke="#DDDDDD" stroke-miterlimit="10"/>
<path d="M15.7219 260.242C16.2919 260.402 16.6319 260.602 16.6319 260.832C16.6319 261.342 14.8519 261.752 12.6519 261.752C10.4519 261.752 8.67188 261.342 8.67188 260.832C8.67188 260.622 8.98187 260.422 9.49187 260.272" stroke="#DDDDDD" stroke-miterlimit="10"/>
<path d="M9.54297 260.532V258.572H15.693V260.532" stroke="#DDDDDD" stroke-miterlimit="10"/>
<path d="M15.6908 260.542C15.6908 260.762 14.3108 260.942 12.6208 260.942C10.9208 260.942 9.55078 260.762 9.55078 260.542" stroke="#DDDDDD" stroke-miterlimit="10"/>
<path d="M63.8203 260.771V262.891C63.8603 263.391 65.6303 263.801 67.8003 263.801C69.9703 263.801 71.7403 263.401 71.7803 262.891V260.771" stroke="#DDDDDD" stroke-miterlimit="10"/>
<path d="M70.8703 260.191C71.4403 260.351 71.7803 260.551 71.7803 260.781C71.7803 261.291 70.0003 261.701 67.8003 261.701C65.6003 261.701 63.8203 261.291 63.8203 260.781C63.8203 260.571 64.1303 260.371 64.6403 260.221" stroke="#DDDDDD" stroke-miterlimit="10"/>
<path d="M64.6914 260.481V258.521H70.8414V260.481" stroke="#DDDDDD" stroke-miterlimit="10"/>
<path d="M70.8392 260.491C70.8392 260.711 69.4592 260.891 67.7692 260.891C66.0692 260.891 64.6992 260.711 64.6992 260.491" stroke="#DDDDDD" stroke-miterlimit="10"/>
</g>
<defs>
<clipPath id="clip0_115_5948">
<rect width="79.14" height="263.93" fill="white" transform="translate(0.511719 0.421875)"/>
</clipPath>
</defs>
</svg>
