<svg width="166" height="214" viewBox="0 0 166 214" fill="none" xmlns="http://www.w3.org/2000/svg">
<g clip-path="url(#clip0_115_7633)">
<path d="M13.832 188.999V200.182C13.832 200.182 34.4386 188.991 55.7518 169.324C59.3844 165.967 63.0418 162.369 66.6162 158.539" stroke="#DDDDDD" stroke-miterlimit="10"/>
<path d="M0.53125 185.202V193.129C0.53125 193.129 3.9643 197.674 13.8229 200.183V184.039" stroke="#DDDDDD" stroke-miterlimit="10"/>
<path d="M13.832 188.999V200.183C13.832 200.183 50.2656 180.408 76.3418 147.223" stroke="#DDDDDD" stroke-miterlimit="10"/>
<path d="M89.7305 104.757V60.1719" stroke="#DDDDDD" stroke-miterlimit="10"/>
<path d="M13.832 190.744C13.832 190.744 51.1218 171.476 76.0841 142.329" stroke="#DDDDDD" stroke-miterlimit="10"/>
<path d="M0.53125 103.968V186.482C0.53125 186.482 8.22028 191.924 13.8229 190.753V107.732" stroke="#DDDDDD" stroke-miterlimit="10"/>
<path d="M31.0796 79.681C20.2484 86.4776 9.30922 94.6367 0.53125 103.959C0.53125 103.959 3.57361 108.296 14.6043 107.715C14.6043 107.715 67.2554 89.8841 89.7324 60.1638C89.7324 60.1638 86.8313 58.1364 76.8231 56.8984C76.8231 56.8984 70.1565 59.3329 60.3561 63.8861C56.1749 65.8303 51.4202 68.1568 46.3828 70.8405" stroke="#DDDDDD" stroke-miterlimit="10"/>
<path d="M66.1233 141.972L65.2255 82.4893C61.7426 84.8323 57.337 87.5659 53.8125 89.6015L55.3087 151.286L55.7493 169.316C59.3819 165.959 63.0393 162.361 66.6137 158.531L66.1233 141.972Z" stroke="#DDDDDD" stroke-miterlimit="10"/>
<path d="M1.59375 114.278V127.813C1.59375 127.813 3.77162 129.841 10.9287 131.004V117.087C10.9287 117.078 6.26536 116.671 1.59375 114.278Z" stroke="#DDDDDD" stroke-miterlimit="10"/>
<path d="M2.00106 127.623V114.478C1.86806 114.412 1.72675 114.345 1.59375 114.271V127.805C1.59375 127.805 3.77162 129.833 10.9287 130.996V130.747C4.0958 129.575 2.00106 127.623 2.00106 127.623Z" stroke="#DDDDDD" stroke-miterlimit="10"/>
<path d="M2.91016 120.036V126.924L8.32157 128.951L8.3382 126.874L5.71146 125.728L8.66238 122.329L6.89183 120.144L4.45628 123.684L4.48953 120.036H2.91016Z" fill="#DDDDDD"/>
<path d="M13.8561 110.673C13.8561 110.673 4.8953 111.404 0.963498 107.923C0.822186 107.823 0.680874 107.723 0.53125 107.607V109.576C1.97762 110.789 5.76811 113.008 13.8561 112.584C13.8561 112.584 33.5401 105.887 53.9222 93.9725L53.8807 92.0947C33.4985 104.009 13.8561 110.673 13.8561 110.673Z" stroke="#DDDDDD" stroke-miterlimit="10"/>
<path opacity="0.57" d="M46.4166 52.2871L57.522 55.353C59.1097 55.7934 60.2069 57.2391 60.2069 58.8843V85.9624L46.375 82.1404" fill="#DDDDDD"/>
<path d="M32.293 1.67021L36.0751 0.556838C36.79 0.349119 37.5548 0.374045 38.253 0.623308L43.8806 2.66726C45.277 3.21564 46.1914 4.56165 46.1914 6.06553V88.3636L43.2405 89.718" stroke="#DDDDDD" stroke-miterlimit="10"/>
<path d="M43.2415 48.2324V89.7097L30.9141 83.0461V50.7832" stroke="#DDDDDD" stroke-miterlimit="10"/>
<path d="M31.0469 2.48478C31.8947 1.62067 33.1832 1.22185 34.4633 1.62898L40.8888 3.65631C42.2853 4.09668 43.233 5.39284 43.233 6.86349V48.0499C43.233 50.3182 41.0218 51.9384 38.8606 51.2571" stroke="#DDDDDD" stroke-miterlimit="10"/>
<path d="M40.9893 51.2236L37.4648 52.1791" stroke="#DDDDDD" stroke-miterlimit="10"/>
<path d="M35.3868 52.1954L28.9613 50.1681C27.5648 49.7277 26.6172 48.4315 26.6172 46.9609V5.77444C26.6172 3.50615 28.8283 1.88595 30.9895 2.56726L37.4151 4.5946C38.8116 5.03496 39.7592 6.33113 39.7592 7.80177V48.9882C39.7675 51.2648 37.5564 52.8767 35.3868 52.1954Z" stroke="#DDDDDD" stroke-miterlimit="10"/>
<path d="M28.4531 14.4658V36.7L37.0815 39.9072V17.4902L28.4531 14.4658Z" stroke="#DDDDDD" stroke-miterlimit="10"/>
<path d="M89.5 202.11V213.294C89.5 213.294 110.107 202.102 131.42 182.435C135.052 179.079 138.71 175.481 142.284 171.651C150.904 162.42 159.067 151.834 165.401 140.077V134.71" stroke="#DDDDDD" stroke-miterlimit="10"/>
<path d="M76.207 198.314V206.24C76.207 206.24 79.6401 210.785 89.4987 213.294V197.15" stroke="#DDDDDD" stroke-miterlimit="10"/>
<path d="M89.5 202.11V213.294C89.5 213.294 141.037 185.31 165.401 140.077V134.71" stroke="#DDDDDD" stroke-miterlimit="10"/>
<path d="M89.5 203.864C89.5 203.864 144.13 175.639 165.401 135.824V73.292" stroke="#DDDDDD" stroke-miterlimit="10"/>
<path d="M76.207 117.087V199.601C76.207 199.601 83.8961 205.043 89.4987 203.872V120.851" stroke="#DDDDDD" stroke-miterlimit="10"/>
<path d="M106.647 92.8666C95.8494 99.6466 84.9601 107.789 76.207 117.078C76.207 117.078 79.2494 121.415 90.28 120.834C90.28 120.834 142.931 103.003 165.408 73.2829C165.408 73.2829 162.507 71.2556 152.499 70.0176C152.499 70.0176 138.908 74.9862 122.025 83.9763" stroke="#DDDDDD" stroke-miterlimit="10"/>
<path d="M141.795 155.091L140.897 95.6084C137.414 97.9515 133.009 100.685 129.484 102.721L130.981 164.405L131.421 182.435C135.054 179.078 138.711 175.48 142.286 171.65L141.795 155.091Z" stroke="#DDDDDD" stroke-miterlimit="10"/>
<path d="M77.2734 127.39V140.925C77.2734 140.925 79.4513 142.952 86.6083 144.115V130.198C86.6 130.198 81.9367 129.791 77.2734 127.39Z" stroke="#DDDDDD" stroke-miterlimit="10"/>
<path d="M77.6807 140.742V127.597C77.5477 127.531 77.4064 127.464 77.2734 127.39V140.925C77.2734 140.925 79.4513 142.952 86.6083 144.115V143.866C79.7755 142.694 77.6807 140.742 77.6807 140.742Z" stroke="#DDDDDD" stroke-miterlimit="10"/>
<path d="M78.5859 133.147V140.044L83.989 142.063L84.014 139.986L81.3872 138.847L84.3298 135.449L82.5593 133.255L80.1237 136.795L80.157 133.147H78.5859Z" fill="#DDDDDD"/>
<path d="M89.5319 123.783C89.5319 123.783 80.5711 124.515 76.6393 121.033C76.498 120.934 76.3567 120.834 76.207 120.718V122.687C77.6534 123.9 81.4439 126.118 89.5319 125.694C89.5319 125.694 109.216 118.998 129.598 107.083L129.556 105.205C109.166 117.128 89.5319 123.783 89.5319 123.783Z" stroke="#DDDDDD" stroke-miterlimit="10"/>
<path d="M107.961 14.7815L111.743 13.6682C112.458 13.4604 113.223 13.4854 113.921 13.7346L119.549 15.7786C120.945 16.327 121.859 17.673 121.859 19.1769V101.475L118.908 102.829" stroke="#DDDDDD" stroke-miterlimit="10"/>
<path d="M118.917 61.3516V102.829L106.59 96.1569V63.894" stroke="#DDDDDD" stroke-miterlimit="10"/>
<path d="M106.59 15.7539C107.429 14.79 108.793 14.3248 110.139 14.7568L116.565 16.7841C117.961 17.2245 118.909 18.5207 118.909 19.9913V61.1778C118.909 63.446 116.698 65.0663 114.537 64.3849" stroke="#DDDDDD" stroke-miterlimit="10"/>
<path d="M116.666 64.3428L113.133 65.2983" stroke="#DDDDDD" stroke-miterlimit="10"/>
<path d="M111.063 65.3155L104.637 63.2882C103.241 62.8478 102.293 61.5516 102.293 60.081V18.8946C102.293 16.6263 104.504 15.0061 106.665 15.6874L113.091 17.7147C114.487 18.1551 115.435 19.4512 115.435 20.9219V62.1083C115.435 64.3766 113.232 65.9968 111.063 65.3155Z" stroke="#DDDDDD" stroke-miterlimit="10"/>
<path d="M104.129 27.585V49.8109L112.749 53.0263V30.601L104.129 27.585Z" stroke="#DDDDDD" stroke-miterlimit="10"/>
<path opacity="0.57" d="M106.592 65.9883L91.9034 62.4239C90.8062 62.158 89.7422 62.9889 89.7422 64.1189V104.757C89.7422 104.757 97.8884 98.3426 106.592 92.7176V65.9883Z" fill="#DDDDDD"/>
<path opacity="0.57" d="M133.198 68.4722L121.859 65.3398V95.2015L135.883 99.0733V72.0035C135.891 70.35 134.785 68.9126 133.198 68.4722Z" fill="#DDDDDD"/>
<path opacity="0.57" d="M76.2061 116.771L85.5244 108.121V63.0632C85.5244 61.9249 84.7264 60.9528 83.6125 60.7201L64.8014 56.8649C63.3218 56.5574 61.9336 57.6957 61.9336 59.2079V137.534C61.9336 138.673 62.7316 139.645 63.8455 139.878L76.2061 142.412V116.771Z" fill="#DDDDDD"/>
</g>
<defs>
<clipPath id="clip0_115_7633">
<rect width="166" height="214" fill="white"/>
</clipPath>
</defs>
</svg>
