<svg width="174" height="145" viewBox="0 0 174 145" fill="none" xmlns="http://www.w3.org/2000/svg">
<g clip-path="url(#clip0_115_7594)">
<path d="M141.668 133.939C141.668 133.939 139.04 130.323 134.59 127.287" stroke="#DDDDDD" stroke-miterlimit="10"/>
<path d="M146.723 123.896V129.98L141.719 133.597V127.162" stroke="#DDDDDD" stroke-miterlimit="10"/>
<path d="M18.5464 88.6885L3.75043 106.929C-2.76615 114.967 0.41621 127.011 10.0557 130.785L28.8396 138.144C51.9943 147.211 77.7833 146.809 100.641 137.035C110.842 132.673 121.016 128.37 127.777 125.631C127.981 125.546 128.186 125.466 128.391 125.387" stroke="#DDDDDD" stroke-miterlimit="10"/>
<path d="M165.726 83.9899C165.171 63.2153 160.067 44.7307 152.356 32.6671C151.207 30.8127 149.886 29.0243 148.407 27.3085C148.289 27.1699 148.17 27.0313 148.051 26.8927C148.011 26.8465 147.965 26.8003 147.926 26.7541C147.701 26.4968 147.47 26.246 147.239 26.0018C147.179 25.9358 147.12 25.8764 147.061 25.8104C146.909 25.6521 146.763 25.4937 146.612 25.3419C141.812 20.399 135.645 16.2018 128.508 13.0342" stroke="#DDDDDD" stroke-miterlimit="10"/>
<path d="M72.3681 10.0908C64.6763 12.4798 57.7966 15.9774 52.1185 20.3C37.4612 30.4365 25.2995 51.9172 20.5458 78.3145C20.1892 78.2353 19.8129 78.4531 19.7403 78.8424C19.0668 82.4588 16.9541 95.4661 17.9642 111.225C17.9774 111.436 18.0831 111.628 18.2613 111.747C18.4066 111.846 18.6113 111.978 18.8688 112.143C25.1741 116.168 64.9734 139.088 128.39 120.596" stroke="#DDDDDD" stroke-miterlimit="10"/>
<path d="M128.429 100.692C117.475 102.778 104.013 104.276 87.8633 104.335C87.8633 104.335 107.519 105.866 128.574 102.388" stroke="#DDDDDD" stroke-miterlimit="10"/>
<path d="M54.5938 69.2931C57.7101 46.3143 76.1242 22.768 96.6379 15.3108C98.8035 14.5255 101.022 13.8589 103.293 13.3376C107.433 12.3807 111.738 11.8725 116.161 11.8725C120.301 11.8725 124.335 12.3213 128.23 13.1594C128.323 13.1792 128.409 13.1924 128.501 13.2122C128.184 12.1497 127.042 10.2227 125.999 9.14703C123.932 7.01545 120.578 4.95647 116.412 3.30664" stroke="#DDDDDD" stroke-miterlimit="10" stroke-linejoin="round"/>
<path d="M54.5961 69.2929L36.7695 66.4024L45.4187 38.2168L51.0902 39.0747L54.5961 69.2929Z" stroke="#DDDDDD" stroke-miterlimit="10"/>
<path d="M117.128 3.57041C116.897 3.46482 116.666 3.35263 116.428 3.24704C93.3064 -7.22606 60.1028 11.8987 45.3398 38.3554L51.0905 39.0747C65.3848 15.271 94.9702 -2.69233 117.128 3.57041Z" stroke="#DDDDDD" stroke-miterlimit="10"/>
<path d="M17.7344 105.82C17.774 107.596 17.8466 109.417 17.9655 111.285C17.9787 111.496 18.0843 111.687 18.2626 111.806C18.4078 111.905 18.6125 112.037 18.87 112.202C19.6821 112.723 21.0554 113.555 22.9701 114.578" stroke="#DDDDDD" stroke-miterlimit="10"/>
<path d="M141.042 127.36H129.514C128.959 127.36 128.504 126.911 128.504 126.35V100.422C128.504 99.8675 128.953 99.4121 129.514 99.4121H141.042C141.596 99.4121 142.052 99.8609 142.052 100.422V126.35C142.052 126.911 141.596 127.36 141.042 127.36Z" stroke="#DDDDDD" stroke-miterlimit="10"/>
<path d="M141.458 99.5038L171.796 84.1737C172.655 83.7447 173.671 84.3716 173.671 85.3285V105.338C173.671 105.773 173.454 106.182 173.09 106.42L141.273 127.353" stroke="#DDDDDD" stroke-miterlimit="10"/>
<path d="M172.834 83.9365H159.979L129.166 99.4515L129.047 99.6165" stroke="#DDDDDD" stroke-miterlimit="10" stroke-linejoin="round"/>
<path d="M137.934 108.017C137.934 109.858 136.442 111.35 134.6 111.35C132.758 111.35 131.266 109.858 131.266 108.017C131.266 106.176 132.758 104.685 134.6 104.685C136.442 104.685 137.934 106.176 137.934 108.017Z" stroke="#DDDDDD" stroke-miterlimit="10"/>
<path d="M134.758 106.71V106.308C134.758 106.196 134.665 106.097 134.547 106.097C134.434 106.097 134.335 106.189 134.335 106.308V106.71C133.622 106.816 133.074 107.423 133.074 108.162C133.074 108.974 133.734 109.634 134.547 109.634C135.359 109.634 136.019 108.974 136.019 108.162C136.026 107.423 135.471 106.816 134.758 106.71ZM134.553 109.218C133.972 109.218 133.497 108.743 133.497 108.162C133.497 107.654 133.86 107.225 134.342 107.126V107.714C134.342 107.826 134.434 107.925 134.553 107.925C134.665 107.925 134.764 107.832 134.764 107.714V107.126C135.246 107.225 135.61 107.648 135.61 108.162C135.61 108.743 135.134 109.218 134.553 109.218Z" fill="#DDDDDD"/>
<path d="M169.988 98.1315L147.916 111.799C147.447 112.089 146.84 111.753 146.84 111.198V101.167C146.84 100.903 146.985 100.666 147.216 100.54L169.288 88.8991C169.757 88.6483 170.325 88.9915 170.325 89.526V97.531C170.325 97.7752 170.193 98.0061 169.988 98.1315Z" stroke="#DDDDDD" stroke-miterlimit="10"/>
<path opacity="0.1" d="M154.312 107.859L161.331 103.51L165.048 91.1562L158.261 94.7397L154.312 107.859Z" stroke="#DDDDDD" stroke-miterlimit="10"/>
<path d="M162.141 109.673L160.365 110.564L160.332 110.492L161.217 108.842L161.032 108.479L160.121 108.941L160.293 109.284L159.89 109.489L159.771 109.258C159.732 109.132 159.692 109.132 159.758 109.013C159.791 108.954 159.877 108.914 159.969 108.868L161.045 108.327C161.138 108.281 161.244 108.255 161.29 108.241C161.395 108.215 161.461 108.367 161.481 108.393L161.58 108.591C161.6 108.631 161.587 108.69 161.541 108.776L160.775 110.208L162.069 109.555L162.141 109.673Z" fill="#DDDDDD"/>
<path d="M164.603 108.433L164.326 108.571L162.569 108.057L163.13 109.172L162.754 109.363L161.988 107.846L162.285 107.694L164.009 108.202L163.454 107.106L163.83 106.915L164.603 108.433Z" fill="#DDDDDD"/>
<path d="M166.339 106.018C166.406 106.143 166.835 106.994 166.835 106.994C166.92 107.159 166.874 107.285 166.584 107.43L165.541 107.958C165.29 108.083 165.131 108.096 165.078 107.991C165.072 107.978 165.065 107.958 165.052 107.931C165.045 107.905 165.032 107.885 165.032 107.872L165.468 107.654L165.541 107.799L166.458 107.337L166.313 107.047L165.587 107.41C165.389 107.509 165.217 107.621 165.065 107.648C164.913 107.667 164.821 107.588 164.781 107.522L164.458 106.882C164.412 106.79 164.425 106.684 164.557 106.579C164.656 106.499 164.953 106.348 164.953 106.348L165.884 105.879C166.201 105.727 166.28 105.899 166.339 106.018ZM166.247 106.922L165.831 106.097C165.481 106.262 165.277 106.361 165.217 106.394C164.801 106.605 164.775 106.711 164.854 106.889L165.026 107.225C165.158 107.476 165.316 107.397 165.64 107.225L166.247 106.922Z" fill="#DDDDDD"/>
<path d="M158.136 111.759C157.535 112.096 157.033 111.871 156.617 111.759C156.617 111.766 156.624 111.766 156.624 111.772C156.934 112.386 157.766 112.59 158.433 112.254C159.1 111.917 159.351 111.165 159.047 110.551C159.047 110.545 159.04 110.545 159.04 110.538C158.862 110.908 158.796 111.389 158.136 111.759Z" fill="#DDDDDD"/>
<path d="M158.365 112.426C158.015 112.65 157.613 112.71 157.362 112.677C157.084 112.644 156.847 112.545 156.682 112.36C156.517 112.175 156.385 111.964 156.239 111.674C156.239 111.674 155.434 110.077 155.414 110.037L156.081 109.978L156.754 111.383C156.754 111.383 156.992 111.858 156.999 111.872C157.408 112.683 158.273 112.287 158.372 112.235C158.834 112.01 158.603 112.274 158.365 112.426Z" fill="#DDDDDD"/>
<path d="M157.975 109.106L158.352 109.819L158.609 110.307C158.609 110.307 158.9 110.967 158.9 110.974C158.966 111.145 158.979 111.231 158.972 111.396C158.926 111.845 158.602 112.135 158.16 112.459C158.114 112.492 157.988 112.597 157.883 112.63C158.035 112.597 158.2 112.538 158.358 112.465C158.371 112.465 158.385 112.452 158.418 112.439C158.754 112.267 159.111 111.964 159.263 111.733C159.408 111.508 159.514 111.29 159.487 111.066C159.454 110.835 159.335 110.518 159.131 110.116C159.131 110.116 158.358 108.585 158.345 108.552L157.975 109.106Z" fill="#DDDDDD"/>
<path d="M20.574 78.2939L23.4064 81.3296L19.6562 79.3102" stroke="#DDDDDD" stroke-miterlimit="10" stroke-linejoin="round"/>
</g>
<defs>
<clipPath id="clip0_115_7594">
<rect width="174" height="145" fill="white"/>
</clipPath>
</defs>
</svg>
