<svg width="194" height="161" viewBox="0 0 194 161" fill="none" xmlns="http://www.w3.org/2000/svg">
<g clip-path="url(#clip0_115_6049)">
<path d="M190.933 160.687H3.06578C1.54522 160.687 0.3125 159.454 0.3125 157.933V3.06797C0.3125 1.54674 1.54522 0.313477 3.06578 0.313477H190.927C192.448 0.313477 193.681 1.54674 193.681 3.06797V157.933C193.687 159.454 192.454 160.687 190.933 160.687Z" stroke="#DDDDDD" stroke-miterlimit="10"/>
<path d="M153.489 66.6025H144.234V75.4545H153.489V66.6025Z" stroke="#DDDDDD" stroke-miterlimit="10"/>
<path d="M144.234 71.0344V66.6084H153.489V71.0344" stroke="#DDDDDD" stroke-miterlimit="10"/>
<path d="M145.868 70.2523C145.255 68.9126 144.204 66.5901 144.235 66.6026V75.4545L145.906 71.9864" stroke="#DDDDDD" stroke-miterlimit="10" stroke-linejoin="round"/>
<path d="M151.877 70.1709C152.491 68.8124 153.517 66.5901 153.492 66.6026V75.4545L151.871 72.0865" stroke="#DDDDDD" stroke-miterlimit="10" stroke-linejoin="round"/>
<path d="M151.875 70.1709H145.855V72.099H151.875V70.1709Z" stroke="#DDDDDD" stroke-miterlimit="10"/>
<path d="M146.768 70.8721C146.768 70.9472 146.706 71.0098 146.624 71.0098C146.549 71.0098 146.48 70.9472 146.48 70.8721C146.48 70.797 146.543 70.7344 146.624 70.7344C146.706 70.7406 146.768 70.797 146.768 70.8721Z" fill="#DDDDDD"/>
<path d="M146.632 71.6046C146.712 71.6046 146.776 71.5429 146.776 71.4668C146.776 71.3908 146.712 71.3291 146.632 71.3291C146.553 71.3291 146.488 71.3908 146.488 71.4668C146.488 71.5429 146.553 71.6046 146.632 71.6046Z" fill="#DDDDDD"/>
<path d="M147.081 71.167C147.081 71.2421 147.018 71.3047 146.937 71.3047C146.862 71.3047 146.793 71.2421 146.793 71.167C146.793 71.0919 146.856 71.0293 146.937 71.0293C147.018 71.0356 147.081 71.0982 147.081 71.167Z" fill="#DDDDDD"/>
<path d="M147.081 70.6094C147.081 70.6845 147.018 70.7471 146.937 70.7471C146.862 70.7471 146.793 70.6845 146.793 70.6094C146.793 70.5343 146.856 70.4717 146.937 70.4717C147.018 70.4779 147.081 70.5343 147.081 70.6094Z" fill="#DDDDDD"/>
<path d="M147.081 71.7178C147.081 71.7929 147.018 71.8555 146.937 71.8555C146.862 71.8555 146.793 71.7929 146.793 71.7178C146.793 71.6427 146.856 71.5801 146.937 71.5801C147.018 71.5863 147.081 71.6427 147.081 71.7178Z" fill="#DDDDDD"/>
<path d="M150.73 70.8721C150.73 70.9472 150.793 71.0098 150.874 71.0098C150.949 71.0098 151.018 70.9472 151.018 70.8721C151.018 70.797 150.956 70.7344 150.874 70.7344C150.793 70.7406 150.73 70.797 150.73 70.8721Z" fill="#DDDDDD"/>
<path d="M150.874 71.6046C150.954 71.6046 151.018 71.5429 151.018 71.4668C151.018 71.3908 150.954 71.3291 150.874 71.3291C150.795 71.3291 150.73 71.3908 150.73 71.4668C150.73 71.5429 150.795 71.6046 150.874 71.6046Z" fill="#DDDDDD"/>
<path d="M150.562 71.3047C150.641 71.3047 150.706 71.2431 150.706 71.167C150.706 71.091 150.641 71.0293 150.562 71.0293C150.482 71.0293 150.418 71.091 150.418 71.167C150.418 71.2431 150.482 71.3047 150.562 71.3047Z" fill="#DDDDDD"/>
<path d="M150.562 70.7471C150.641 70.7471 150.706 70.6855 150.706 70.6094C150.706 70.5333 150.641 70.4717 150.562 70.4717C150.482 70.4717 150.418 70.5333 150.418 70.6094C150.418 70.6855 150.482 70.7471 150.562 70.7471Z" fill="#DDDDDD"/>
<path d="M150.418 71.7178C150.418 71.7929 150.481 71.8555 150.562 71.8555C150.643 71.8555 150.706 71.7929 150.706 71.7178C150.706 71.6427 150.643 71.5801 150.562 71.5801C150.481 71.5801 150.418 71.6427 150.418 71.7178Z" fill="#DDDDDD"/>
<path d="M169.871 61.9893H156.73V75.1357H169.871V61.9893Z" stroke="#DDDDDD" stroke-miterlimit="10"/>
<path d="M168.019 68.7878H158.576L156.73 61.9893H169.871L168.019 68.7878Z" stroke="#DDDDDD" stroke-miterlimit="10"/>
<path d="M156.731 61.9894V75.1358L158.577 68.788C158.577 68.788 156.693 61.9519 156.731 61.9894Z" stroke="#DDDDDD" stroke-miterlimit="10" stroke-linejoin="round"/>
<path d="M169.858 61.9894V75.1358L168.012 68.788C168.005 68.788 169.889 61.9519 169.858 61.9894Z" stroke="#DDDDDD" stroke-miterlimit="10" stroke-linejoin="round"/>
<path d="M160.725 69.3262H165.8C166.344 69.3262 166.82 69.6893 166.964 70.2151L167.664 72.7818C167.871 73.5456 167.295 74.303 166.501 74.303H160.03C159.236 74.303 158.66 73.5456 158.867 72.7818L159.567 70.2151C159.705 69.6893 160.181 69.3262 160.725 69.3262Z" stroke="#DDDDDD" stroke-miterlimit="10"/>
<path d="M161.318 69.9395H164.978C165.373 69.9395 165.717 70.2024 165.817 70.578L166.318 72.431C166.468 72.9819 166.055 73.5266 165.479 73.5266H160.811C160.235 73.5266 159.822 72.9819 159.972 72.431L160.473 70.578C160.579 70.2024 160.924 69.9395 161.318 69.9395Z" stroke="#DDDDDD" stroke-miterlimit="10"/>
<path d="M153.233 61.6325C153.089 61.6325 152.977 61.5198 152.977 61.3758C152.977 61.2318 153.089 61.1191 153.233 61.1191C153.377 61.1191 153.49 61.2318 153.49 61.3758C153.49 61.5135 153.371 61.6325 153.233 61.6325Z" fill="#DDDDDD"/>
<path d="M153.233 62.4899C153.089 62.4899 152.977 62.3772 152.977 62.2332C152.977 62.0892 153.089 61.9766 153.233 61.9766C153.377 61.9766 153.49 62.0892 153.49 62.2332C153.49 62.371 153.371 62.4899 153.233 62.4899Z" fill="#DDDDDD"/>
<path d="M153.233 63.3786C153.089 63.3786 152.977 63.2659 152.977 63.1219C152.977 62.9779 153.089 62.8652 153.233 62.8652C153.377 62.8652 153.49 62.9779 153.49 63.1219C153.49 63.2659 153.371 63.3786 153.233 63.3786Z" fill="#DDDDDD"/>
<path d="M152.358 61.6325C152.214 61.6325 152.102 61.5198 152.102 61.3758C152.102 61.2318 152.214 61.1191 152.358 61.1191C152.502 61.1191 152.615 61.2318 152.615 61.3758C152.615 61.5135 152.502 61.6325 152.358 61.6325Z" fill="#DDDDDD"/>
<path d="M152.358 60.6803C152.214 60.6803 152.102 60.5676 152.102 60.4237C152.102 60.2797 152.214 60.167 152.358 60.167C152.502 60.167 152.615 60.2797 152.615 60.4237C152.615 60.5676 152.502 60.6803 152.358 60.6803Z" fill="#DDDDDD"/>
<path d="M151.499 60.6803C151.355 60.6803 151.242 60.5676 151.242 60.4237C151.242 60.2797 151.355 60.167 151.499 60.167C151.643 60.167 151.755 60.2797 151.755 60.4237C151.755 60.5676 151.643 60.6803 151.499 60.6803Z" fill="#DDDDDD"/>
<path d="M150.612 60.6803C150.468 60.6803 150.355 60.5676 150.355 60.4237C150.355 60.2797 150.468 60.167 150.612 60.167C150.756 60.167 150.869 60.2797 150.869 60.4237C150.869 60.5676 150.756 60.6803 150.612 60.6803Z" fill="#DDDDDD"/>
<path d="M150.612 59.7917C150.754 59.7917 150.869 59.6767 150.869 59.535C150.869 59.3932 150.754 59.2783 150.612 59.2783C150.47 59.2783 150.355 59.3932 150.355 59.535C150.355 59.6767 150.47 59.7917 150.612 59.7917Z" fill="#DDDDDD"/>
<path d="M149.71 59.7917C149.851 59.7917 149.966 59.6767 149.966 59.535C149.966 59.3932 149.851 59.2783 149.71 59.2783C149.568 59.2783 149.453 59.3932 149.453 59.535C149.453 59.6767 149.568 59.7917 149.71 59.7917Z" fill="#DDDDDD"/>
<path d="M148.796 59.7917C148.937 59.7917 149.052 59.6767 149.052 59.535C149.052 59.3932 148.937 59.2783 148.796 59.2783C148.654 59.2783 148.539 59.3932 148.539 59.535C148.539 59.6767 148.654 59.7917 148.796 59.7917Z" fill="#DDDDDD"/>
<path d="M147.882 59.7917C147.738 59.7917 147.625 59.679 147.625 59.535C147.625 59.391 147.738 59.2783 147.882 59.2783C148.025 59.2783 148.138 59.391 148.138 59.535C148.138 59.679 148.019 59.7917 147.882 59.7917Z" fill="#DDDDDD"/>
<path d="M146.999 59.7917C146.855 59.7917 146.742 59.679 146.742 59.535C146.742 59.391 146.855 59.2783 146.999 59.2783C147.143 59.2783 147.255 59.391 147.255 59.535C147.255 59.679 147.143 59.7917 146.999 59.7917Z" fill="#DDDDDD"/>
<path d="M150.612 65.1813C150.754 65.1813 150.869 65.0664 150.869 64.9246C150.869 64.7829 150.754 64.668 150.612 64.668C150.47 64.668 150.355 64.7829 150.355 64.9246C150.355 65.0664 150.47 65.1813 150.612 65.1813Z" fill="#DDDDDD"/>
<path d="M149.71 65.1813C149.851 65.1813 149.966 65.0664 149.966 64.9246C149.966 64.7829 149.851 64.668 149.71 64.668C149.568 64.668 149.453 64.7829 149.453 64.9246C149.453 65.0664 149.568 65.1813 149.71 65.1813Z" fill="#DDDDDD"/>
<path d="M148.796 65.1813C148.937 65.1813 149.052 65.0664 149.052 64.9246C149.052 64.7829 148.937 64.668 148.796 64.668C148.654 64.668 148.539 64.7829 148.539 64.9246C148.539 65.0664 148.654 65.1813 148.796 65.1813Z" fill="#DDDDDD"/>
<path d="M147.882 65.1813C147.738 65.1813 147.625 65.0686 147.625 64.9246C147.625 64.7807 147.738 64.668 147.882 64.668C148.025 64.668 148.138 64.7807 148.138 64.9246C148.138 65.0686 148.019 65.1813 147.882 65.1813Z" fill="#DDDDDD"/>
<path d="M146.999 65.1813C146.855 65.1813 146.742 65.0686 146.742 64.9246C146.742 64.7807 146.855 64.668 146.999 64.668C147.143 64.668 147.255 64.7807 147.255 64.9246C147.255 65.0686 147.143 65.1813 146.999 65.1813Z" fill="#DDDDDD"/>
<path d="M149.698 60.6803C149.554 60.6803 149.441 60.5676 149.441 60.4237C149.441 60.2797 149.554 60.167 149.698 60.167C149.842 60.167 149.955 60.2797 149.955 60.4237C149.955 60.5676 149.842 60.6803 149.698 60.6803Z" fill="#DDDDDD"/>
<path d="M148.807 60.6803C148.663 60.6803 148.551 60.5676 148.551 60.4237C148.551 60.2797 148.663 60.167 148.807 60.167C148.951 60.167 149.064 60.2797 149.064 60.4237C149.064 60.5676 148.945 60.6803 148.807 60.6803Z" fill="#DDDDDD"/>
<path d="M147.893 60.6803C147.749 60.6803 147.637 60.5676 147.637 60.4237C147.637 60.2797 147.749 60.167 147.893 60.167C148.037 60.167 148.15 60.2797 148.15 60.4237C148.15 60.5676 148.031 60.6803 147.893 60.6803Z" fill="#DDDDDD"/>
<path d="M146.987 60.6803C146.843 60.6803 146.73 60.5676 146.73 60.4237C146.73 60.2797 146.843 60.167 146.987 60.167C147.131 60.167 147.244 60.2797 147.244 60.4237C147.25 60.5676 147.131 60.6803 146.987 60.6803Z" fill="#DDDDDD"/>
<path d="M146.085 60.6803C145.941 60.6803 145.828 60.5676 145.828 60.4237C145.828 60.2797 145.941 60.167 146.085 60.167C146.229 60.167 146.341 60.2797 146.341 60.4237C146.341 60.5676 146.229 60.6803 146.085 60.6803Z" fill="#DDDDDD"/>
<path d="M152.358 62.4899C152.214 62.4899 152.102 62.3772 152.102 62.2332C152.102 62.0892 152.214 61.9766 152.358 61.9766C152.502 61.9766 152.615 62.0892 152.615 62.2332C152.615 62.371 152.502 62.4899 152.358 62.4899Z" fill="#DDDDDD"/>
<path d="M152.358 63.3786C152.5 63.3786 152.615 63.2637 152.615 63.1219C152.615 62.9802 152.5 62.8652 152.358 62.8652C152.216 62.8652 152.102 62.9802 152.102 63.1219C152.102 63.2637 152.216 63.3786 152.358 63.3786Z" fill="#DDDDDD"/>
<path d="M152.358 64.3053C152.5 64.3053 152.615 64.1904 152.615 64.0487C152.615 63.9069 152.5 63.792 152.358 63.792C152.216 63.792 152.102 63.9069 152.102 64.0487C152.102 64.1904 152.216 64.3053 152.358 64.3053Z" fill="#DDDDDD"/>
<path d="M151.499 64.3053C151.355 64.3053 151.242 64.1926 151.242 64.0487C151.242 63.9047 151.355 63.792 151.499 63.792C151.643 63.792 151.755 63.9047 151.755 64.0487C151.755 64.1926 151.643 64.3053 151.499 64.3053Z" fill="#DDDDDD"/>
<path d="M150.853 64.0487C150.853 64.1926 150.74 64.3053 150.596 64.3053C150.452 64.3053 150.34 64.1926 150.34 64.0487C150.34 63.9047 150.452 63.792 150.596 63.792C150.74 63.792 150.853 63.9047 150.853 64.0487Z" fill="#DDDDDD"/>
<path d="M149.943 64.0487C149.943 64.1926 149.83 64.3053 149.686 64.3053C149.542 64.3053 149.43 64.1926 149.43 64.0487C149.43 63.9047 149.542 63.792 149.686 63.792C149.83 63.792 149.943 63.9047 149.943 64.0487Z" fill="#DDDDDD"/>
<path d="M148.796 64.3053C148.937 64.3053 149.052 64.1904 149.052 64.0487C149.052 63.9069 148.937 63.792 148.796 63.792C148.654 63.792 148.539 63.9069 148.539 64.0487C148.539 64.1904 148.654 64.3053 148.796 64.3053Z" fill="#DDDDDD"/>
<path d="M148.165 64.0487C148.165 64.1926 148.053 64.3053 147.909 64.3053C147.765 64.3053 147.652 64.1926 147.652 64.0487C147.652 63.9047 147.765 63.792 147.909 63.792C148.047 63.792 148.165 63.9047 148.165 64.0487Z" fill="#DDDDDD"/>
<path d="M147.24 64.0487C147.24 64.1926 147.127 64.3053 146.983 64.3053C146.839 64.3053 146.727 64.1926 146.727 64.0487C146.727 63.9047 146.839 63.792 146.983 63.792C147.121 63.792 147.24 63.9047 147.24 64.0487Z" fill="#DDDDDD"/>
<path d="M146.085 64.3053C146.226 64.3053 146.341 64.1904 146.341 64.0487C146.341 63.9069 146.226 63.792 146.085 63.792C145.943 63.792 145.828 63.9069 145.828 64.0487C145.828 64.1904 145.943 64.3053 146.085 64.3053Z" fill="#DDDDDD"/>
<path d="M151.499 61.6325C151.355 61.6325 151.242 61.5198 151.242 61.3758C151.242 61.2318 151.355 61.1191 151.499 61.1191C151.643 61.1191 151.755 61.2318 151.755 61.3758C151.755 61.5135 151.643 61.6325 151.499 61.6325Z" fill="#DDDDDD"/>
<path d="M151.499 62.4899C151.355 62.4899 151.242 62.3772 151.242 62.2332C151.242 62.0892 151.355 61.9766 151.499 61.9766C151.643 61.9766 151.755 62.0892 151.755 62.2332C151.755 62.371 151.643 62.4899 151.499 62.4899Z" fill="#DDDDDD"/>
<path d="M151.499 63.3786C151.355 63.3786 151.242 63.2659 151.242 63.1219C151.242 62.9779 151.355 62.8652 151.499 62.8652C151.643 62.8652 151.755 62.9779 151.755 63.1219C151.755 63.2659 151.643 63.3786 151.499 63.3786Z" fill="#DDDDDD"/>
<path d="M150.561 61.6325C150.417 61.6325 150.305 61.5198 150.305 61.3758C150.305 61.2318 150.417 61.1191 150.561 61.1191C150.705 61.1191 150.818 61.2318 150.818 61.3758C150.818 61.5135 150.699 61.6325 150.561 61.6325Z" fill="#DDDDDD"/>
<path d="M150.561 62.4899C150.417 62.4899 150.305 62.3772 150.305 62.2332C150.305 62.0892 150.417 61.9766 150.561 61.9766C150.705 61.9766 150.818 62.0892 150.818 62.2332C150.818 62.371 150.699 62.4899 150.561 62.4899Z" fill="#DDDDDD"/>
<path d="M150.561 63.3786C150.703 63.3786 150.818 63.2637 150.818 63.1219C150.818 62.9802 150.703 62.8652 150.561 62.8652C150.42 62.8652 150.305 62.9802 150.305 63.1219C150.305 63.2637 150.42 63.3786 150.561 63.3786Z" fill="#DDDDDD"/>
<path d="M149.667 61.6325C149.523 61.6325 149.41 61.5198 149.41 61.3758C149.41 61.2318 149.523 61.1191 149.667 61.1191C149.811 61.1191 149.923 61.2318 149.923 61.3758C149.923 61.5135 149.811 61.6325 149.667 61.6325Z" fill="#DDDDDD"/>
<path d="M149.667 62.4899C149.523 62.4899 149.41 62.3772 149.41 62.2332C149.41 62.0892 149.523 61.9766 149.667 61.9766C149.811 61.9766 149.923 62.0892 149.923 62.2332C149.923 62.371 149.811 62.4899 149.667 62.4899Z" fill="#DDDDDD"/>
<path d="M149.667 63.3786C149.523 63.3786 149.41 63.2659 149.41 63.1219C149.41 62.9779 149.523 62.8652 149.667 62.8652C149.811 62.8652 149.923 62.9779 149.923 63.1219C149.923 63.2659 149.811 63.3786 149.667 63.3786Z" fill="#DDDDDD"/>
<path d="M148.757 61.6325C148.613 61.6325 148.5 61.5198 148.5 61.3758C148.5 61.2318 148.613 61.1191 148.757 61.1191C148.9 61.1191 149.013 61.2318 149.013 61.3758C149.013 61.5135 148.9 61.6325 148.757 61.6325Z" fill="#DDDDDD"/>
<path d="M148.757 62.4899C148.613 62.4899 148.5 62.3772 148.5 62.2332C148.5 62.0892 148.613 61.9766 148.757 61.9766C148.9 61.9766 149.013 62.0892 149.013 62.2332C149.013 62.371 148.9 62.4899 148.757 62.4899Z" fill="#DDDDDD"/>
<path d="M148.757 63.3786C148.613 63.3786 148.5 63.2659 148.5 63.1219C148.5 62.9779 148.613 62.8652 148.757 62.8652C148.9 62.8652 149.013 62.9779 149.013 63.1219C149.013 63.2659 148.9 63.3786 148.757 63.3786Z" fill="#DDDDDD"/>
<path d="M147.901 61.6325C147.757 61.6325 147.645 61.5198 147.645 61.3758C147.645 61.2318 147.757 61.1191 147.901 61.1191C148.045 61.1191 148.158 61.2318 148.158 61.3758C148.164 61.5135 148.045 61.6325 147.901 61.6325Z" fill="#DDDDDD"/>
<path d="M147.901 62.4899C147.757 62.4899 147.645 62.3772 147.645 62.2332C147.645 62.0892 147.757 61.9766 147.901 61.9766C148.045 61.9766 148.158 62.0892 148.158 62.2332C148.164 62.371 148.045 62.4899 147.901 62.4899Z" fill="#DDDDDD"/>
<path d="M147.901 63.3786C147.757 63.3786 147.645 63.2659 147.645 63.1219C147.645 62.9779 147.757 62.8652 147.901 62.8652C148.045 62.8652 148.158 62.9779 148.158 63.1219C148.158 63.2659 148.045 63.3786 147.901 63.3786Z" fill="#DDDDDD"/>
<path d="M146.995 61.6325C146.851 61.6325 146.738 61.5198 146.738 61.3758C146.738 61.2318 146.851 61.1191 146.995 61.1191C147.139 61.1191 147.251 61.2318 147.251 61.3758C147.251 61.5135 147.139 61.6325 146.995 61.6325Z" fill="#DDDDDD"/>
<path d="M146.995 62.4899C146.851 62.4899 146.738 62.3772 146.738 62.2332C146.738 62.0892 146.851 61.9766 146.995 61.9766C147.139 61.9766 147.251 62.0892 147.251 62.2332C147.251 62.371 147.139 62.4899 146.995 62.4899Z" fill="#DDDDDD"/>
<path d="M146.995 63.3786C147.137 63.3786 147.251 63.2637 147.251 63.1219C147.251 62.9802 147.137 62.8652 146.995 62.8652C146.853 62.8652 146.738 62.9802 146.738 63.1219C146.738 63.2637 146.853 63.3786 146.995 63.3786Z" fill="#DDDDDD"/>
<path d="M146.085 61.6325C145.941 61.6325 145.828 61.5198 145.828 61.3758C145.828 61.2318 145.941 61.1191 146.085 61.1191C146.229 61.1191 146.341 61.2318 146.341 61.3758C146.341 61.5135 146.229 61.6325 146.085 61.6325Z" fill="#DDDDDD"/>
<path d="M146.085 62.4899C145.941 62.4899 145.828 62.3772 145.828 62.2332C145.828 62.0892 145.941 61.9766 146.085 61.9766C146.229 61.9766 146.341 62.0892 146.341 62.2332C146.341 62.371 146.229 62.4899 146.085 62.4899Z" fill="#DDDDDD"/>
<path d="M146.085 63.3786C146.226 63.3786 146.341 63.2637 146.341 63.1219C146.341 62.9802 146.226 62.8652 146.085 62.8652C145.943 62.8652 145.828 62.9802 145.828 63.1219C145.828 63.2637 145.943 63.3786 146.085 63.3786Z" fill="#DDDDDD"/>
<path d="M145.198 61.6325C145.054 61.6325 144.941 61.5198 144.941 61.3758C144.941 61.2318 145.054 61.1191 145.198 61.1191C145.342 61.1191 145.454 61.2318 145.454 61.3758C145.454 61.5135 145.342 61.6325 145.198 61.6325Z" fill="#DDDDDD"/>
<path d="M145.198 62.4899C145.054 62.4899 144.941 62.3772 144.941 62.2332C144.941 62.0892 145.054 61.9766 145.198 61.9766C145.342 61.9766 145.454 62.0892 145.454 62.2332C145.454 62.371 145.342 62.4899 145.198 62.4899Z" fill="#DDDDDD"/>
<path d="M145.198 63.3786C145.054 63.3786 144.941 63.2659 144.941 63.1219C144.941 62.9779 145.054 62.8652 145.198 62.8652C145.342 62.8652 145.454 62.9779 145.454 63.1219C145.454 63.2659 145.342 63.3786 145.198 63.3786Z" fill="#DDDDDD"/>
<path d="M144.303 16.709H169.151C169.42 16.709 169.646 16.9281 169.646 17.2035V50.583C169.646 50.8522 169.427 51.0775 169.151 51.0775H144.303C144.034 51.0775 143.809 50.8584 143.809 50.583V17.2035C143.815 16.9281 144.034 16.709 144.303 16.709Z" stroke="#DDDDDD" stroke-miterlimit="10"/>
<path d="M189.524 51.0775H171.233C171.027 51.0775 170.852 50.9085 170.852 50.6956V17.0909C170.852 16.878 171.021 16.709 171.233 16.709H189.524C189.73 16.709 189.906 16.878 189.906 17.0909V50.6956C189.906 50.9085 189.737 51.0775 189.524 51.0775Z" stroke="#DDDDDD" stroke-miterlimit="10"/>
<path d="M189.574 18.4121H171.184V49.156H189.574V18.4121Z" stroke="#DDDDDD" stroke-miterlimit="10"/>
<path d="M187.512 21.8857H173.258V46.8765H187.512V21.8857Z" stroke="#DDDDDD" stroke-miterlimit="10"/>
<path d="M179.144 20.8783C179.406 20.8783 179.619 20.6653 179.619 20.4025C179.619 20.1398 179.406 19.9268 179.144 19.9268C178.881 19.9268 178.668 20.1398 178.668 20.4025C178.668 20.6653 178.881 20.8783 179.144 20.8783Z" fill="#DDDDDD"/>
<path d="M181.64 20.8783C181.902 20.8783 182.115 20.6653 182.115 20.4025C182.115 20.1398 181.902 19.9268 181.64 19.9268C181.377 19.9268 181.164 20.1398 181.164 20.4025C181.164 20.6653 181.377 20.8783 181.64 20.8783Z" fill="#DDDDDD"/>
<path d="M15.8572 29.9802H11.7085C11.3706 29.9802 11.1016 29.7111 11.1016 29.373V9.03986C11.1016 8.70181 11.3706 8.43262 11.7085 8.43262H15.8572C16.1951 8.43262 16.4642 8.70181 16.4642 9.03986V29.373C16.4579 29.7048 16.1889 29.9802 15.8572 29.9802Z" stroke="#DDDDDD" stroke-miterlimit="10"/>
<path d="M21.6815 29.9802H17.5328C17.1949 29.9802 16.9258 29.7111 16.9258 29.373V9.03986C16.9258 8.70181 17.1949 8.43262 17.5328 8.43262H21.6815C22.0194 8.43262 22.2884 8.70181 22.2884 9.03986V29.373C22.2822 29.7048 22.0131 29.9802 21.6815 29.9802Z" stroke="#DDDDDD" stroke-miterlimit="10"/>
<path d="M20.2864 28.7345H18.9161C18.7096 28.7345 18.5469 28.5654 18.5469 28.3651V21.7356C18.5469 21.529 18.7158 21.3662 18.9161 21.3662H20.2864C20.4929 21.3662 20.6556 21.5352 20.6556 21.7356V28.3651C20.6619 28.5654 20.4929 28.7345 20.2864 28.7345Z" stroke="#DDDDDD" stroke-miterlimit="10"/>
<path d="M14.4622 28.7345H13.0918C12.8854 28.7345 12.7227 28.5654 12.7227 28.3651V21.7356C12.7227 21.529 12.8916 21.3662 13.0918 21.3662H14.4622C14.6687 21.3662 14.8314 21.5352 14.8314 21.7356V28.3651C14.8377 28.5654 14.6687 28.7345 14.4622 28.7345Z" stroke="#DDDDDD" stroke-miterlimit="10"/>
<path d="M27.5096 29.9802H23.3609C23.023 29.9802 22.7539 29.7111 22.7539 29.373V9.03986C22.7539 8.70181 23.023 8.43262 23.3609 8.43262H27.5096C27.8475 8.43262 28.1166 8.70181 28.1166 9.03986V29.373C28.1103 29.7048 27.8412 29.9802 27.5096 29.9802Z" stroke="#DDDDDD" stroke-miterlimit="10"/>
<path d="M26.1146 28.7345H24.7442C24.5377 28.7345 24.375 28.5654 24.375 28.3651V21.7356C24.375 21.529 24.544 21.3662 24.7442 21.3662H26.1146C26.3211 21.3662 26.4838 21.5352 26.4838 21.7356V28.3651C26.49 28.5654 26.3211 28.7345 26.1146 28.7345Z" stroke="#DDDDDD" stroke-miterlimit="10"/>
<path d="M33.3338 29.9802H29.1851C28.8472 29.9802 28.5781 29.7111 28.5781 29.373V9.03986C28.5781 8.70181 28.8472 8.43262 29.1851 8.43262H33.3338C33.6717 8.43262 33.9408 8.70181 33.9408 9.03986V29.373C33.9345 29.7048 33.6654 29.9802 33.3338 29.9802Z" stroke="#DDDDDD" stroke-miterlimit="10"/>
<path d="M31.9388 28.7345H30.5684C30.3619 28.7345 30.1992 28.5654 30.1992 28.3651V21.7356C30.1992 21.529 30.3682 21.3662 30.5684 21.3662H31.9388C32.1453 21.3662 32.308 21.5352 32.308 21.7356V28.3651C32.3142 28.5654 32.1453 28.7345 31.9388 28.7345Z" stroke="#DDDDDD" stroke-miterlimit="10"/>
<path d="M39.1619 29.9802H35.0132C34.6753 29.9802 34.4062 29.7111 34.4062 29.373V9.03986C34.4062 8.70181 34.6753 8.43262 35.0132 8.43262H39.1619C39.4998 8.43262 39.7689 8.70181 39.7689 9.03986V29.373C39.7626 29.7048 39.4936 29.9802 39.1619 29.9802Z" stroke="#DDDDDD" stroke-miterlimit="10"/>
<path d="M37.7669 28.7345H36.3965C36.19 28.7345 36.0273 28.5654 36.0273 28.3651V21.7356C36.0273 21.529 36.1963 21.3662 36.3965 21.3662H37.7669C37.9734 21.3662 38.1361 21.5352 38.1361 21.7356V28.3651C38.1424 28.5654 37.9734 28.7345 37.7669 28.7345Z" stroke="#DDDDDD" stroke-miterlimit="10"/>
<path d="M44.9861 29.9802H40.8374C40.4995 29.9802 40.2305 29.7111 40.2305 29.373V9.03986C40.2305 8.70181 40.4995 8.43262 40.8374 8.43262H44.9861C45.324 8.43262 45.5931 8.70181 45.5931 9.03986V29.373C45.5931 29.7048 45.3178 29.9802 44.9861 29.9802Z" stroke="#DDDDDD" stroke-miterlimit="10"/>
<path d="M43.595 28.7345H42.2247C42.0182 28.7345 41.8555 28.5654 41.8555 28.3651V21.7356C41.8555 21.529 42.0244 21.3662 42.2247 21.3662H43.595C43.8015 21.3662 43.9642 21.5352 43.9642 21.7356V28.3651C43.9642 28.5654 43.7953 28.7345 43.595 28.7345Z" stroke="#DDDDDD" stroke-miterlimit="10"/>
<path d="M50.8104 29.9802H46.6617C46.3238 29.9802 46.0547 29.7111 46.0547 29.373V9.03986C46.0547 8.70181 46.3238 8.43262 46.6617 8.43262H50.8104C51.1483 8.43262 51.4173 8.70181 51.4173 9.03986V29.373C51.4173 29.7048 51.142 29.9802 50.8104 29.9802Z" stroke="#DDDDDD" stroke-miterlimit="10"/>
<path d="M49.4193 28.7345H48.0489C47.8424 28.7345 47.6797 28.5654 47.6797 28.3651V21.7356C47.6797 21.529 47.8486 21.3662 48.0489 21.3662H49.4193C49.6258 21.3662 49.7885 21.5352 49.7885 21.7356V28.3651C49.7885 28.5654 49.6195 28.7345 49.4193 28.7345Z" stroke="#DDDDDD" stroke-miterlimit="10"/>
<path d="M56.6385 29.9802H52.4898C52.1519 29.9802 51.8828 29.7111 51.8828 29.373V9.03986C51.8828 8.70181 52.1519 8.43262 52.4898 8.43262H56.6385C56.9764 8.43262 57.2455 8.70181 57.2455 9.03986V29.373C57.2455 29.7048 56.9701 29.9802 56.6385 29.9802Z" stroke="#DDDDDD" stroke-miterlimit="10"/>
<path d="M55.2474 28.7345H53.877C53.6705 28.7345 53.5078 28.5654 53.5078 28.3651V21.7356C53.5078 21.529 53.6768 21.3662 53.877 21.3662H55.2474C55.4539 21.3662 55.6166 21.5352 55.6166 21.7356V28.3651C55.6166 28.5654 55.4476 28.7345 55.2474 28.7345Z" stroke="#DDDDDD" stroke-miterlimit="10"/>
<path d="M62.4627 29.9802H58.314C57.9761 29.9802 57.707 29.7111 57.707 29.373V9.03986C57.707 8.70181 57.9761 8.43262 58.314 8.43262H62.4627C62.8006 8.43262 63.0697 8.70181 63.0697 9.03986V29.373C63.0697 29.7048 62.7943 29.9802 62.4627 29.9802Z" stroke="#DDDDDD" stroke-miterlimit="10"/>
<path d="M61.0716 28.7345H59.7012C59.4947 28.7345 59.332 28.5654 59.332 28.3651V21.7356C59.332 21.529 59.501 21.3662 59.7012 21.3662H61.0716C61.2781 21.3662 61.4408 21.5352 61.4408 21.7356V28.3651C61.4408 28.5654 61.2718 28.7345 61.0716 28.7345Z" stroke="#DDDDDD" stroke-miterlimit="10"/>
<path d="M68.2869 29.9802H64.1382C63.8003 29.9802 63.5312 29.7111 63.5312 29.373V9.03986C63.5312 8.70181 63.8003 8.43262 64.1382 8.43262H68.2869C68.6248 8.43262 68.8939 8.70181 68.8939 9.03986V29.373C68.8939 29.7048 68.6186 29.9802 68.2869 29.9802Z" stroke="#DDDDDD" stroke-miterlimit="10"/>
<path d="M66.8958 28.7345H65.5254C65.3189 28.7345 65.1562 28.5654 65.1562 28.3651V21.7356C65.1562 21.529 65.3252 21.3662 65.5254 21.3662H66.8958C67.1023 21.3662 67.265 21.5352 67.265 21.7356V28.3651C67.265 28.5654 67.0961 28.7345 66.8958 28.7345Z" stroke="#DDDDDD" stroke-miterlimit="10"/>
<path d="M68.7077 31.7769H11.2893C11.1829 31.7769 11.1016 31.6956 11.1016 31.5891V30.888C11.1016 30.7816 11.1829 30.7002 11.2893 30.7002H68.7077C68.8141 30.7002 68.8955 30.7816 68.8955 30.888V31.5891C68.8955 31.6956 68.8079 31.7769 68.7077 31.7769Z" fill="#DDDDDD"/>
<path d="M15.8572 54.2517H11.7085C11.3706 54.2517 11.1016 53.9825 11.1016 53.6445V33.3113C11.1016 32.9733 11.3706 32.7041 11.7085 32.7041H15.8572C16.1951 32.7041 16.4642 32.9733 16.4642 33.3113V53.6445C16.4579 53.9825 16.1889 54.2517 15.8572 54.2517Z" stroke="#DDDDDD" stroke-miterlimit="10"/>
<path d="M14.4622 53.006H13.0918C12.8854 53.006 12.7227 52.8369 12.7227 52.6366V46.007C12.7227 45.8005 12.8916 45.6377 13.0918 45.6377H14.4622C14.6687 45.6377 14.8314 45.8067 14.8314 46.007V52.6366C14.8377 52.8432 14.6687 53.006 14.4622 53.006Z" stroke="#DDDDDD" stroke-miterlimit="10"/>
<path d="M21.6815 54.2517H17.5328C17.1949 54.2517 16.9258 53.9825 16.9258 53.6445V33.3113C16.9258 32.9733 17.1949 32.7041 17.5328 32.7041H21.6815C22.0194 32.7041 22.2884 32.9733 22.2884 33.3113V53.6445C22.2822 53.9825 22.0131 54.2517 21.6815 54.2517Z" stroke="#DDDDDD" stroke-miterlimit="10"/>
<path d="M20.2864 53.006H18.9161C18.7096 53.006 18.5469 52.8369 18.5469 52.6366V46.007C18.5469 45.8005 18.7158 45.6377 18.9161 45.6377H20.2864C20.4929 45.6377 20.6556 45.8067 20.6556 46.007V52.6366C20.6619 52.8432 20.4929 53.006 20.2864 53.006Z" stroke="#DDDDDD" stroke-miterlimit="10"/>
<path d="M27.5096 54.2517H23.3609C23.023 54.2517 22.7539 53.9825 22.7539 53.6445V33.3113C22.7539 32.9733 23.023 32.7041 23.3609 32.7041H27.5096C27.8475 32.7041 28.1166 32.9733 28.1166 33.3113V53.6445C28.1103 53.9825 27.8412 54.2517 27.5096 54.2517Z" stroke="#DDDDDD" stroke-miterlimit="10"/>
<path d="M26.1146 53.006H24.7442C24.5377 53.006 24.375 52.8369 24.375 52.6366V46.007C24.375 45.8005 24.544 45.6377 24.7442 45.6377H26.1146C26.3211 45.6377 26.4838 45.8067 26.4838 46.007V52.6366C26.49 52.8432 26.3211 53.006 26.1146 53.006Z" stroke="#DDDDDD" stroke-miterlimit="10"/>
<path d="M33.3338 54.2517H29.1851C28.8472 54.2517 28.5781 53.9825 28.5781 53.6445V33.3113C28.5781 32.9733 28.8472 32.7041 29.1851 32.7041H33.3338C33.6717 32.7041 33.9408 32.9733 33.9408 33.3113V53.6445C33.9345 53.9825 33.6654 54.2517 33.3338 54.2517Z" stroke="#DDDDDD" stroke-miterlimit="10"/>
<path d="M31.9388 53.006H30.5684C30.3619 53.006 30.1992 52.8369 30.1992 52.6366V46.007C30.1992 45.8005 30.3682 45.6377 30.5684 45.6377H31.9388C32.1453 45.6377 32.308 45.8067 32.308 46.007V52.6366C32.3142 52.8432 32.1453 53.006 31.9388 53.006Z" stroke="#DDDDDD" stroke-miterlimit="10"/>
<path d="M39.1619 54.2517H35.0132C34.6753 54.2517 34.4062 53.9825 34.4062 53.6445V33.3113C34.4062 32.9733 34.6753 32.7041 35.0132 32.7041H39.1619C39.4998 32.7041 39.7689 32.9733 39.7689 33.3113V53.6445C39.7626 53.9825 39.4936 54.2517 39.1619 54.2517Z" stroke="#DDDDDD" stroke-miterlimit="10"/>
<path d="M37.7669 53.006H36.3965C36.19 53.006 36.0273 52.8369 36.0273 52.6366V46.007C36.0273 45.8005 36.1963 45.6377 36.3965 45.6377H37.7669C37.9734 45.6377 38.1361 45.8067 38.1361 46.007V52.6366C38.1424 52.8432 37.9734 53.006 37.7669 53.006Z" stroke="#DDDDDD" stroke-miterlimit="10"/>
<path d="M44.9861 54.2517H40.8374C40.4995 54.2517 40.2305 53.9825 40.2305 53.6445V33.3113C40.2305 32.9733 40.4995 32.7041 40.8374 32.7041H44.9861C45.324 32.7041 45.5931 32.9733 45.5931 33.3113V53.6445C45.5931 53.9825 45.3178 54.2517 44.9861 54.2517Z" stroke="#DDDDDD" stroke-miterlimit="10"/>
<path d="M43.595 53.006H42.2247C42.0182 53.006 41.8555 52.8369 41.8555 52.6366V46.007C41.8555 45.8005 42.0244 45.6377 42.2247 45.6377H43.595C43.8015 45.6377 43.9642 45.8067 43.9642 46.007V52.6366C43.9642 52.8432 43.7953 53.006 43.595 53.006Z" stroke="#DDDDDD" stroke-miterlimit="10"/>
<path d="M50.8104 54.2517H46.6617C46.3238 54.2517 46.0547 53.9825 46.0547 53.6445V33.3113C46.0547 32.9733 46.3238 32.7041 46.6617 32.7041H50.8104C51.1483 32.7041 51.4173 32.9733 51.4173 33.3113V53.6445C51.4173 53.9825 51.142 54.2517 50.8104 54.2517Z" stroke="#DDDDDD" stroke-miterlimit="10"/>
<path d="M49.4193 53.006H48.0489C47.8424 53.006 47.6797 52.8369 47.6797 52.6366V46.007C47.6797 45.8005 47.8486 45.6377 48.0489 45.6377H49.4193C49.6258 45.6377 49.7885 45.8067 49.7885 46.007V52.6366C49.7885 52.8432 49.6195 53.006 49.4193 53.006Z" stroke="#DDDDDD" stroke-miterlimit="10"/>
<path d="M56.6385 54.2517H52.4898C52.1519 54.2517 51.8828 53.9825 51.8828 53.6445V33.3113C51.8828 32.9733 52.1519 32.7041 52.4898 32.7041H56.6385C56.9764 32.7041 57.2455 32.9733 57.2455 33.3113V53.6445C57.2455 53.9825 56.9701 54.2517 56.6385 54.2517Z" stroke="#DDDDDD" stroke-miterlimit="10"/>
<path d="M55.2474 53.006H53.877C53.6705 53.006 53.5078 52.8369 53.5078 52.6366V46.007C53.5078 45.8005 53.6768 45.6377 53.877 45.6377H55.2474C55.4539 45.6377 55.6166 45.8067 55.6166 46.007V52.6366C55.6166 52.8432 55.4476 53.006 55.2474 53.006Z" stroke="#DDDDDD" stroke-miterlimit="10"/>
<path d="M62.4627 54.2517H58.314C57.9761 54.2517 57.707 53.9825 57.707 53.6445V33.3113C57.707 32.9733 57.9761 32.7041 58.314 32.7041H62.4627C62.8006 32.7041 63.0697 32.9733 63.0697 33.3113V53.6445C63.0697 53.9825 62.7943 54.2517 62.4627 54.2517Z" stroke="#DDDDDD" stroke-miterlimit="10"/>
<path d="M61.0716 53.006H59.7012C59.4947 53.006 59.332 52.8369 59.332 52.6366V46.007C59.332 45.8005 59.501 45.6377 59.7012 45.6377H61.0716C61.2781 45.6377 61.4408 45.8067 61.4408 46.007V52.6366C61.4408 52.8432 61.2718 53.006 61.0716 53.006Z" stroke="#DDDDDD" stroke-miterlimit="10"/>
<path d="M68.2869 54.2517H64.1382C63.8003 54.2517 63.5312 53.9825 63.5312 53.6445V33.3113C63.5312 32.9733 63.8003 32.7041 64.1382 32.7041H68.2869C68.6248 32.7041 68.8939 32.9733 68.8939 33.3113V53.6445C68.8939 53.9825 68.6186 54.2517 68.2869 54.2517Z" stroke="#DDDDDD" stroke-miterlimit="10"/>
<path d="M66.8958 53.006H65.5254C65.3189 53.006 65.1562 52.8369 65.1562 52.6366V46.007C65.1562 45.8005 65.3252 45.6377 65.5254 45.6377H66.8958C67.1023 45.6377 67.265 45.8067 67.265 46.007V52.6366C67.265 52.8432 67.0961 53.006 66.8958 53.006Z" stroke="#DDDDDD" stroke-miterlimit="10"/>
<path d="M68.7077 56.0484H11.2893C11.1829 56.0484 11.1016 55.9671 11.1016 55.8606V55.1595C11.1016 55.0531 11.1829 54.9717 11.2893 54.9717H68.7077C68.8141 54.9717 68.8955 55.0531 68.8955 55.1595V55.8606C68.8955 55.9671 68.8079 56.0484 68.7077 56.0484Z" fill="#DDDDDD"/>
<path d="M15.8572 78.5222H11.7085C11.3706 78.5222 11.1016 78.2531 11.1016 77.915V57.5819C11.1016 57.2438 11.3706 56.9746 11.7085 56.9746H15.8572C16.1951 56.9746 16.4642 57.2438 16.4642 57.5819V77.915C16.4579 78.2531 16.1889 78.5222 15.8572 78.5222Z" stroke="#DDDDDD" stroke-miterlimit="10"/>
<path d="M14.4622 77.2765H13.0918C12.8854 77.2765 12.7227 77.1074 12.7227 76.9071V70.2776C12.7227 70.071 12.8916 69.9082 13.0918 69.9082H14.4622C14.6687 69.9082 14.8314 70.0772 14.8314 70.2776V76.9071C14.8377 77.1137 14.6687 77.2765 14.4622 77.2765Z" stroke="#DDDDDD" stroke-miterlimit="10"/>
<path d="M21.6815 78.5222H17.5328C17.1949 78.5222 16.9258 78.2531 16.9258 77.915V57.5819C16.9258 57.2438 17.1949 56.9746 17.5328 56.9746H21.6815C22.0194 56.9746 22.2884 57.2438 22.2884 57.5819V77.915C22.2822 78.2531 22.0131 78.5222 21.6815 78.5222Z" stroke="#DDDDDD" stroke-miterlimit="10"/>
<path d="M20.2864 77.2765H18.9161C18.7096 77.2765 18.5469 77.1074 18.5469 76.9071V70.2776C18.5469 70.071 18.7158 69.9082 18.9161 69.9082H20.2864C20.4929 69.9082 20.6556 70.0772 20.6556 70.2776V76.9071C20.6619 77.1137 20.4929 77.2765 20.2864 77.2765Z" stroke="#DDDDDD" stroke-miterlimit="10"/>
<path d="M27.5096 78.5222H23.3609C23.023 78.5222 22.7539 78.2531 22.7539 77.915V57.5819C22.7539 57.2438 23.023 56.9746 23.3609 56.9746H27.5096C27.8475 56.9746 28.1166 57.2438 28.1166 57.5819V77.915C28.1103 78.2531 27.8412 78.5222 27.5096 78.5222Z" stroke="#DDDDDD" stroke-miterlimit="10"/>
<path d="M26.1146 77.2765H24.7442C24.5377 77.2765 24.375 77.1074 24.375 76.9071V70.2776C24.375 70.071 24.544 69.9082 24.7442 69.9082H26.1146C26.3211 69.9082 26.4838 70.0772 26.4838 70.2776V76.9071C26.49 77.1137 26.3211 77.2765 26.1146 77.2765Z" stroke="#DDDDDD" stroke-miterlimit="10"/>
<path d="M33.3338 78.5222H29.1851C28.8472 78.5222 28.5781 78.2531 28.5781 77.915V57.5819C28.5781 57.2438 28.8472 56.9746 29.1851 56.9746H33.3338C33.6717 56.9746 33.9408 57.2438 33.9408 57.5819V77.915C33.9345 78.2531 33.6654 78.5222 33.3338 78.5222Z" stroke="#DDDDDD" stroke-miterlimit="10"/>
<path d="M31.9388 77.2765H30.5684C30.3619 77.2765 30.1992 77.1074 30.1992 76.9071V70.2776C30.1992 70.071 30.3682 69.9082 30.5684 69.9082H31.9388C32.1453 69.9082 32.308 70.0772 32.308 70.2776V76.9071C32.3142 77.1137 32.1453 77.2765 31.9388 77.2765Z" stroke="#DDDDDD" stroke-miterlimit="10"/>
<path d="M39.1619 78.5222H35.0132C34.6753 78.5222 34.4062 78.2531 34.4062 77.915V57.5819C34.4062 57.2438 34.6753 56.9746 35.0132 56.9746H39.1619C39.4998 56.9746 39.7689 57.2438 39.7689 57.5819V77.915C39.7626 78.2531 39.4936 78.5222 39.1619 78.5222Z" stroke="#DDDDDD" stroke-miterlimit="10"/>
<path d="M37.7669 77.2765H36.3965C36.19 77.2765 36.0273 77.1074 36.0273 76.9071V70.2776C36.0273 70.071 36.1963 69.9082 36.3965 69.9082H37.7669C37.9734 69.9082 38.1361 70.0772 38.1361 70.2776V76.9071C38.1424 77.1137 37.9734 77.2765 37.7669 77.2765Z" stroke="#DDDDDD" stroke-miterlimit="10"/>
<path d="M44.9861 78.5222H40.8374C40.4995 78.5222 40.2305 78.2531 40.2305 77.915V57.5819C40.2305 57.2438 40.4995 56.9746 40.8374 56.9746H44.9861C45.324 56.9746 45.5931 57.2438 45.5931 57.5819V77.915C45.5931 78.2531 45.3178 78.5222 44.9861 78.5222Z" stroke="#DDDDDD" stroke-miterlimit="10"/>
<path d="M43.595 77.2765H42.2247C42.0182 77.2765 41.8555 77.1074 41.8555 76.9071V70.2776C41.8555 70.071 42.0244 69.9082 42.2247 69.9082H43.595C43.8015 69.9082 43.9642 70.0772 43.9642 70.2776V76.9071C43.9642 77.1137 43.7953 77.2765 43.595 77.2765Z" stroke="#DDDDDD" stroke-miterlimit="10"/>
<path d="M50.8104 78.5222H46.6617C46.3238 78.5222 46.0547 78.2531 46.0547 77.915V57.5819C46.0547 57.2438 46.3238 56.9746 46.6617 56.9746H50.8104C51.1483 56.9746 51.4173 57.2438 51.4173 57.5819V77.915C51.4173 78.2531 51.142 78.5222 50.8104 78.5222Z" stroke="#DDDDDD" stroke-miterlimit="10"/>
<path d="M49.4193 77.2765H48.0489C47.8424 77.2765 47.6797 77.1074 47.6797 76.9071V70.2776C47.6797 70.071 47.8486 69.9082 48.0489 69.9082H49.4193C49.6258 69.9082 49.7885 70.0772 49.7885 70.2776V76.9071C49.7885 77.1137 49.6195 77.2765 49.4193 77.2765Z" stroke="#DDDDDD" stroke-miterlimit="10"/>
<path d="M56.6385 78.5222H52.4898C52.1519 78.5222 51.8828 78.2531 51.8828 77.915V57.5819C51.8828 57.2438 52.1519 56.9746 52.4898 56.9746H56.6385C56.9764 56.9746 57.2455 57.2438 57.2455 57.5819V77.915C57.2455 78.2531 56.9701 78.5222 56.6385 78.5222Z" stroke="#DDDDDD" stroke-miterlimit="10"/>
<path d="M55.2474 77.2765H53.877C53.6705 77.2765 53.5078 77.1074 53.5078 76.9071V70.2776C53.5078 70.071 53.6768 69.9082 53.877 69.9082H55.2474C55.4539 69.9082 55.6166 70.0772 55.6166 70.2776V76.9071C55.6166 77.1137 55.4476 77.2765 55.2474 77.2765Z" stroke="#DDDDDD" stroke-miterlimit="10"/>
<path d="M62.4627 78.5222H58.314C57.9761 78.5222 57.707 78.2531 57.707 77.915V57.5819C57.707 57.2438 57.9761 56.9746 58.314 56.9746H62.4627C62.8006 56.9746 63.0697 57.2438 63.0697 57.5819V77.915C63.0697 78.2531 62.7943 78.5222 62.4627 78.5222Z" stroke="#DDDDDD" stroke-miterlimit="10"/>
<path d="M61.0716 77.2765H59.7012C59.4947 77.2765 59.332 77.1074 59.332 76.9071V70.2776C59.332 70.071 59.501 69.9082 59.7012 69.9082H61.0716C61.2781 69.9082 61.4408 70.0772 61.4408 70.2776V76.9071C61.4408 77.1137 61.2718 77.2765 61.0716 77.2765Z" stroke="#DDDDDD" stroke-miterlimit="10"/>
<path d="M68.2869 78.5222H64.1382C63.8003 78.5222 63.5312 78.2531 63.5312 77.915V57.5819C63.5312 57.2438 63.8003 56.9746 64.1382 56.9746H68.2869C68.6248 56.9746 68.8939 57.2438 68.8939 57.5819V77.915C68.8939 78.2531 68.6186 78.5222 68.2869 78.5222Z" stroke="#DDDDDD" stroke-miterlimit="10"/>
<path d="M66.8958 77.2765H65.5254C65.3189 77.2765 65.1562 77.1074 65.1562 76.9071V70.2776C65.1562 70.071 65.3252 69.9082 65.5254 69.9082H66.8958C67.1023 69.9082 67.265 70.0772 67.265 70.2776V76.9071C67.265 77.1137 67.0961 77.2765 66.8958 77.2765Z" stroke="#DDDDDD" stroke-miterlimit="10"/>
<path d="M68.7077 80.3189H11.2893C11.1829 80.3189 11.1016 80.2376 11.1016 80.1311V79.43C11.1016 79.3236 11.1829 79.2422 11.2893 79.2422H68.7077C68.8141 79.2422 68.8955 79.3236 68.8955 79.43V80.1311C68.8955 80.2376 68.8079 80.3189 68.7077 80.3189Z" fill="#DDDDDD"/>
<path d="M15.8572 102.8H11.7085C11.3706 102.8 11.1016 102.53 11.1016 102.192V81.8592C11.1016 81.5211 11.3706 81.252 11.7085 81.252H15.8572C16.1951 81.252 16.4642 81.5211 16.4642 81.8592V102.192C16.4579 102.524 16.1889 102.8 15.8572 102.8Z" stroke="#DDDDDD" stroke-miterlimit="10"/>
<path d="M14.4622 101.554H13.0918C12.8854 101.554 12.7227 101.385 12.7227 101.184V94.5549C12.7227 94.3483 12.8916 94.1855 13.0918 94.1855H14.4622C14.6687 94.1855 14.8314 94.3546 14.8314 94.5549V101.184C14.8377 101.385 14.6687 101.554 14.4622 101.554Z" stroke="#DDDDDD" stroke-miterlimit="10"/>
<path d="M21.6815 102.8H17.5328C17.1949 102.8 16.9258 102.53 16.9258 102.192V81.8592C16.9258 81.5211 17.1949 81.252 17.5328 81.252H21.6815C22.0194 81.252 22.2884 81.5211 22.2884 81.8592V102.192C22.2822 102.524 22.0131 102.8 21.6815 102.8Z" stroke="#DDDDDD" stroke-miterlimit="10"/>
<path d="M20.2864 101.554H18.9161C18.7096 101.554 18.5469 101.385 18.5469 101.184V94.5549C18.5469 94.3483 18.7158 94.1855 18.9161 94.1855H20.2864C20.4929 94.1855 20.6556 94.3546 20.6556 94.5549V101.184C20.6619 101.385 20.4929 101.554 20.2864 101.554Z" stroke="#DDDDDD" stroke-miterlimit="10"/>
<path d="M27.5096 102.8H23.3609C23.023 102.8 22.7539 102.53 22.7539 102.192V81.8592C22.7539 81.5211 23.023 81.252 23.3609 81.252H27.5096C27.8475 81.252 28.1166 81.5211 28.1166 81.8592V102.192C28.1103 102.524 27.8412 102.8 27.5096 102.8Z" stroke="#DDDDDD" stroke-miterlimit="10"/>
<path d="M26.1146 101.554H24.7442C24.5377 101.554 24.375 101.385 24.375 101.184V94.5549C24.375 94.3483 24.544 94.1855 24.7442 94.1855H26.1146C26.3211 94.1855 26.4838 94.3546 26.4838 94.5549V101.184C26.49 101.385 26.3211 101.554 26.1146 101.554Z" stroke="#DDDDDD" stroke-miterlimit="10"/>
<path d="M33.3338 102.8H29.1851C28.8472 102.8 28.5781 102.53 28.5781 102.192V81.8592C28.5781 81.5211 28.8472 81.252 29.1851 81.252H33.3338C33.6717 81.252 33.9408 81.5211 33.9408 81.8592V102.192C33.9345 102.524 33.6654 102.8 33.3338 102.8Z" stroke="#DDDDDD" stroke-miterlimit="10"/>
<path d="M31.9388 101.554H30.5684C30.3619 101.554 30.1992 101.385 30.1992 101.184V94.5549C30.1992 94.3483 30.3682 94.1855 30.5684 94.1855H31.9388C32.1453 94.1855 32.308 94.3546 32.308 94.5549V101.184C32.3142 101.385 32.1453 101.554 31.9388 101.554Z" stroke="#DDDDDD" stroke-miterlimit="10"/>
<path d="M39.1619 102.8H35.0132C34.6753 102.8 34.4062 102.53 34.4062 102.192V81.8592C34.4062 81.5211 34.6753 81.252 35.0132 81.252H39.1619C39.4998 81.252 39.7689 81.5211 39.7689 81.8592V102.192C39.7626 102.524 39.4936 102.8 39.1619 102.8Z" stroke="#DDDDDD" stroke-miterlimit="10"/>
<path d="M37.7669 101.554H36.3965C36.19 101.554 36.0273 101.385 36.0273 101.184V94.5549C36.0273 94.3483 36.1963 94.1855 36.3965 94.1855H37.7669C37.9734 94.1855 38.1361 94.3546 38.1361 94.5549V101.184C38.1424 101.385 37.9734 101.554 37.7669 101.554Z" stroke="#DDDDDD" stroke-miterlimit="10"/>
<path d="M44.9861 102.8H40.8374C40.4995 102.8 40.2305 102.53 40.2305 102.192V81.8592C40.2305 81.5211 40.4995 81.252 40.8374 81.252H44.9861C45.324 81.252 45.5931 81.5211 45.5931 81.8592V102.192C45.5931 102.524 45.3178 102.8 44.9861 102.8Z" stroke="#DDDDDD" stroke-miterlimit="10"/>
<path d="M43.595 101.554H42.2247C42.0182 101.554 41.8555 101.385 41.8555 101.184V94.5549C41.8555 94.3483 42.0244 94.1855 42.2247 94.1855H43.595C43.8015 94.1855 43.9642 94.3546 43.9642 94.5549V101.184C43.9642 101.385 43.7953 101.554 43.595 101.554Z" stroke="#DDDDDD" stroke-miterlimit="10"/>
<path d="M50.8104 102.8H46.6617C46.3238 102.8 46.0547 102.53 46.0547 102.192V81.8592C46.0547 81.5211 46.3238 81.252 46.6617 81.252H50.8104C51.1483 81.252 51.4173 81.5211 51.4173 81.8592V102.192C51.4173 102.524 51.142 102.8 50.8104 102.8Z" stroke="#DDDDDD" stroke-miterlimit="10"/>
<path d="M49.4193 101.554H48.0489C47.8424 101.554 47.6797 101.385 47.6797 101.184V94.5549C47.6797 94.3483 47.8486 94.1855 48.0489 94.1855H49.4193C49.6258 94.1855 49.7885 94.3546 49.7885 94.5549V101.184C49.7885 101.385 49.6195 101.554 49.4193 101.554Z" stroke="#DDDDDD" stroke-miterlimit="10"/>
<path d="M56.6385 102.8H52.4898C52.1519 102.8 51.8828 102.53 51.8828 102.192V81.8592C51.8828 81.5211 52.1519 81.252 52.4898 81.252H56.6385C56.9764 81.252 57.2455 81.5211 57.2455 81.8592V102.192C57.2455 102.524 56.9701 102.8 56.6385 102.8Z" stroke="#DDDDDD" stroke-miterlimit="10"/>
<path d="M55.2474 101.554H53.877C53.6705 101.554 53.5078 101.385 53.5078 101.184V94.5549C53.5078 94.3483 53.6768 94.1855 53.877 94.1855H55.2474C55.4539 94.1855 55.6166 94.3546 55.6166 94.5549V101.184C55.6166 101.385 55.4476 101.554 55.2474 101.554Z" stroke="#DDDDDD" stroke-miterlimit="10"/>
<path d="M62.4627 102.8H58.314C57.9761 102.8 57.707 102.53 57.707 102.192V81.8592C57.707 81.5211 57.9761 81.252 58.314 81.252H62.4627C62.8006 81.252 63.0697 81.5211 63.0697 81.8592V102.192C63.0697 102.524 62.7943 102.8 62.4627 102.8Z" stroke="#DDDDDD" stroke-miterlimit="10"/>
<path d="M61.0716 101.554H59.7012C59.4947 101.554 59.332 101.385 59.332 101.184V94.5549C59.332 94.3483 59.501 94.1855 59.7012 94.1855H61.0716C61.2781 94.1855 61.4408 94.3546 61.4408 94.5549V101.184C61.4408 101.385 61.2718 101.554 61.0716 101.554Z" stroke="#DDDDDD" stroke-miterlimit="10"/>
<path d="M68.2869 102.8H64.1382C63.8003 102.8 63.5312 102.53 63.5312 102.192V81.8592C63.5312 81.5211 63.8003 81.252 64.1382 81.252H68.2869C68.6248 81.252 68.8939 81.5211 68.8939 81.8592V102.192C68.8939 102.524 68.6186 102.8 68.2869 102.8Z" stroke="#DDDDDD" stroke-miterlimit="10"/>
<path d="M66.8958 101.554H65.5254C65.3189 101.554 65.1562 101.385 65.1562 101.184V94.5549C65.1562 94.3483 65.3252 94.1855 65.5254 94.1855H66.8958C67.1023 94.1855 67.265 94.3546 67.265 94.5549V101.184C67.265 101.385 67.0961 101.554 66.8958 101.554Z" stroke="#DDDDDD" stroke-miterlimit="10"/>
<path d="M68.7077 104.596H11.2893C11.1829 104.596 11.1016 104.515 11.1016 104.408V103.707C11.1016 103.601 11.1829 103.52 11.2893 103.52H68.7077C68.8141 103.52 68.8955 103.601 68.8955 103.707V104.408C68.8955 104.509 68.8079 104.596 68.7077 104.596Z" fill="#DDDDDD"/>
<path d="M15.8572 127.07H11.7085C11.3706 127.07 11.1016 126.801 11.1016 126.463V106.13C11.1016 105.792 11.3706 105.522 11.7085 105.522H15.8572C16.1951 105.522 16.4642 105.792 16.4642 106.13V126.463C16.4579 126.795 16.1889 127.07 15.8572 127.07Z" stroke="#DDDDDD" stroke-miterlimit="10"/>
<path d="M14.4622 125.824H13.0918C12.8854 125.824 12.7227 125.655 12.7227 125.455V118.825C12.7227 118.619 12.8916 118.456 13.0918 118.456H14.4622C14.6687 118.456 14.8314 118.625 14.8314 118.825V125.455C14.8377 125.655 14.6687 125.824 14.4622 125.824Z" stroke="#DDDDDD" stroke-miterlimit="10"/>
<path d="M21.6815 127.07H17.5328C17.1949 127.07 16.9258 126.801 16.9258 126.463V106.13C16.9258 105.792 17.1949 105.522 17.5328 105.522H21.6815C22.0194 105.522 22.2884 105.792 22.2884 106.13V126.463C22.2822 126.795 22.0131 127.07 21.6815 127.07Z" stroke="#DDDDDD" stroke-miterlimit="10"/>
<path d="M20.2864 125.824H18.9161C18.7096 125.824 18.5469 125.655 18.5469 125.455V118.825C18.5469 118.619 18.7158 118.456 18.9161 118.456H20.2864C20.4929 118.456 20.6556 118.625 20.6556 118.825V125.455C20.6619 125.655 20.4929 125.824 20.2864 125.824Z" stroke="#DDDDDD" stroke-miterlimit="10"/>
<path d="M27.5096 127.07H23.3609C23.023 127.07 22.7539 126.801 22.7539 126.463V106.13C22.7539 105.792 23.023 105.522 23.3609 105.522H27.5096C27.8475 105.522 28.1166 105.792 28.1166 106.13V126.463C28.1103 126.795 27.8412 127.07 27.5096 127.07Z" stroke="#DDDDDD" stroke-miterlimit="10"/>
<path d="M26.1146 125.824H24.7442C24.5377 125.824 24.375 125.655 24.375 125.455V118.825C24.375 118.619 24.544 118.456 24.7442 118.456H26.1146C26.3211 118.456 26.4838 118.625 26.4838 118.825V125.455C26.49 125.655 26.3211 125.824 26.1146 125.824Z" stroke="#DDDDDD" stroke-miterlimit="10"/>
<path d="M33.3338 127.07H29.1851C28.8472 127.07 28.5781 126.801 28.5781 126.463V106.13C28.5781 105.792 28.8472 105.522 29.1851 105.522H33.3338C33.6717 105.522 33.9408 105.792 33.9408 106.13V126.463C33.9345 126.795 33.6654 127.07 33.3338 127.07Z" stroke="#DDDDDD" stroke-miterlimit="10"/>
<path d="M31.9388 125.824H30.5684C30.3619 125.824 30.1992 125.655 30.1992 125.455V118.825C30.1992 118.619 30.3682 118.456 30.5684 118.456H31.9388C32.1453 118.456 32.308 118.625 32.308 118.825V125.455C32.3142 125.655 32.1453 125.824 31.9388 125.824Z" stroke="#DDDDDD" stroke-miterlimit="10"/>
<path d="M39.1619 127.07H35.0132C34.6753 127.07 34.4062 126.801 34.4062 126.463V106.13C34.4062 105.792 34.6753 105.522 35.0132 105.522H39.1619C39.4998 105.522 39.7689 105.792 39.7689 106.13V126.463C39.7626 126.795 39.4936 127.07 39.1619 127.07Z" stroke="#DDDDDD" stroke-miterlimit="10"/>
<path d="M37.7669 125.824H36.3965C36.19 125.824 36.0273 125.655 36.0273 125.455V118.825C36.0273 118.619 36.1963 118.456 36.3965 118.456H37.7669C37.9734 118.456 38.1361 118.625 38.1361 118.825V125.455C38.1424 125.655 37.9734 125.824 37.7669 125.824Z" stroke="#DDDDDD" stroke-miterlimit="10"/>
<path d="M44.9861 127.07H40.8374C40.4995 127.07 40.2305 126.801 40.2305 126.463V106.13C40.2305 105.792 40.4995 105.522 40.8374 105.522H44.9861C45.324 105.522 45.5931 105.792 45.5931 106.13V126.463C45.5931 126.795 45.3178 127.07 44.9861 127.07Z" stroke="#DDDDDD" stroke-miterlimit="10"/>
<path d="M43.595 125.824H42.2247C42.0182 125.824 41.8555 125.655 41.8555 125.455V118.825C41.8555 118.619 42.0244 118.456 42.2247 118.456H43.595C43.8015 118.456 43.9642 118.625 43.9642 118.825V125.455C43.9642 125.655 43.7953 125.824 43.595 125.824Z" stroke="#DDDDDD" stroke-miterlimit="10"/>
<path d="M50.8104 127.07H46.6617C46.3238 127.07 46.0547 126.801 46.0547 126.463V106.13C46.0547 105.792 46.3238 105.522 46.6617 105.522H50.8104C51.1483 105.522 51.4173 105.792 51.4173 106.13V126.463C51.4173 126.795 51.142 127.07 50.8104 127.07Z" stroke="#DDDDDD" stroke-miterlimit="10"/>
<path d="M49.4193 125.824H48.0489C47.8424 125.824 47.6797 125.655 47.6797 125.455V118.825C47.6797 118.619 47.8486 118.456 48.0489 118.456H49.4193C49.6258 118.456 49.7885 118.625 49.7885 118.825V125.455C49.7885 125.655 49.6195 125.824 49.4193 125.824Z" stroke="#DDDDDD" stroke-miterlimit="10"/>
<path d="M56.6385 127.07H52.4898C52.1519 127.07 51.8828 126.801 51.8828 126.463V106.13C51.8828 105.792 52.1519 105.522 52.4898 105.522H56.6385C56.9764 105.522 57.2455 105.792 57.2455 106.13V126.463C57.2455 126.795 56.9701 127.07 56.6385 127.07Z" stroke="#DDDDDD" stroke-miterlimit="10"/>
<path d="M55.2474 125.824H53.877C53.6705 125.824 53.5078 125.655 53.5078 125.455V118.825C53.5078 118.619 53.6768 118.456 53.877 118.456H55.2474C55.4539 118.456 55.6166 118.625 55.6166 118.825V125.455C55.6166 125.655 55.4476 125.824 55.2474 125.824Z" stroke="#DDDDDD" stroke-miterlimit="10"/>
<path d="M62.4627 127.07H58.314C57.9761 127.07 57.707 126.801 57.707 126.463V106.13C57.707 105.792 57.9761 105.522 58.314 105.522H62.4627C62.8006 105.522 63.0697 105.792 63.0697 106.13V126.463C63.0697 126.795 62.7943 127.07 62.4627 127.07Z" stroke="#DDDDDD" stroke-miterlimit="10"/>
<path d="M61.0716 125.824H59.7012C59.4947 125.824 59.332 125.655 59.332 125.455V118.825C59.332 118.619 59.501 118.456 59.7012 118.456H61.0716C61.2781 118.456 61.4408 118.625 61.4408 118.825V125.455C61.4408 125.655 61.2718 125.824 61.0716 125.824Z" stroke="#DDDDDD" stroke-miterlimit="10"/>
<path d="M68.2869 127.07H64.1382C63.8003 127.07 63.5312 126.801 63.5312 126.463V106.13C63.5312 105.792 63.8003 105.522 64.1382 105.522H68.2869C68.6248 105.522 68.8939 105.792 68.8939 106.13V126.463C68.8939 126.795 68.6186 127.07 68.2869 127.07Z" stroke="#DDDDDD" stroke-miterlimit="10"/>
<path d="M66.8958 125.824H65.5254C65.3189 125.824 65.1562 125.655 65.1562 125.455V118.825C65.1562 118.619 65.3252 118.456 65.5254 118.456H66.8958C67.1023 118.456 67.265 118.625 67.265 118.825V125.455C67.265 125.655 67.0961 125.824 66.8958 125.824Z" stroke="#DDDDDD" stroke-miterlimit="10"/>
<path d="M68.7077 128.867H11.2893C11.1829 128.867 11.1016 128.785 11.1016 128.679V127.978C11.1016 127.871 11.1829 127.79 11.2893 127.79H68.7077C68.8141 127.79 68.8955 127.871 68.8955 127.978V128.679C68.8955 128.785 68.8079 128.867 68.7077 128.867Z" fill="#DDDDDD"/>
<path d="M15.8572 151.341H11.7085C11.3706 151.341 11.1016 151.071 11.1016 150.733V130.4C11.1016 130.062 11.3706 129.793 11.7085 129.793H15.8572C16.1951 129.793 16.4642 130.062 16.4642 130.4V150.733C16.4579 151.071 16.1889 151.341 15.8572 151.341Z" stroke="#DDDDDD" stroke-miterlimit="10"/>
<path d="M14.4622 150.095H13.0918C12.8854 150.095 12.7227 149.926 12.7227 149.725V143.096C12.7227 142.889 12.8916 142.727 13.0918 142.727H14.4622C14.6687 142.727 14.8314 142.896 14.8314 143.096V149.725C14.8377 149.932 14.6687 150.095 14.4622 150.095Z" stroke="#DDDDDD" stroke-miterlimit="10"/>
<path d="M21.6815 151.341H17.5328C17.1949 151.341 16.9258 151.071 16.9258 150.733V130.4C16.9258 130.062 17.1949 129.793 17.5328 129.793H21.6815C22.0194 129.793 22.2884 130.062 22.2884 130.4V150.733C22.2822 151.071 22.0131 151.341 21.6815 151.341Z" stroke="#DDDDDD" stroke-miterlimit="10"/>
<path d="M20.2864 150.095H18.9161C18.7096 150.095 18.5469 149.926 18.5469 149.725V143.096C18.5469 142.889 18.7158 142.727 18.9161 142.727H20.2864C20.4929 142.727 20.6556 142.896 20.6556 143.096V149.725C20.6619 149.932 20.4929 150.095 20.2864 150.095Z" stroke="#DDDDDD" stroke-miterlimit="10"/>
<path d="M27.5096 151.341H23.3609C23.023 151.341 22.7539 151.071 22.7539 150.733V130.4C22.7539 130.062 23.023 129.793 23.3609 129.793H27.5096C27.8475 129.793 28.1166 130.062 28.1166 130.4V150.733C28.1103 151.071 27.8412 151.341 27.5096 151.341Z" stroke="#DDDDDD" stroke-miterlimit="10"/>
<path d="M26.1146 150.095H24.7442C24.5377 150.095 24.375 149.926 24.375 149.725V143.096C24.375 142.889 24.544 142.727 24.7442 142.727H26.1146C26.3211 142.727 26.4838 142.896 26.4838 143.096V149.725C26.49 149.932 26.3211 150.095 26.1146 150.095Z" stroke="#DDDDDD" stroke-miterlimit="10"/>
<path d="M33.3338 151.341H29.1851C28.8472 151.341 28.5781 151.071 28.5781 150.733V130.4C28.5781 130.062 28.8472 129.793 29.1851 129.793H33.3338C33.6717 129.793 33.9408 130.062 33.9408 130.4V150.733C33.9345 151.071 33.6654 151.341 33.3338 151.341Z" stroke="#DDDDDD" stroke-miterlimit="10"/>
<path d="M31.9388 150.095H30.5684C30.3619 150.095 30.1992 149.926 30.1992 149.725V143.096C30.1992 142.889 30.3682 142.727 30.5684 142.727H31.9388C32.1453 142.727 32.308 142.896 32.308 143.096V149.725C32.3142 149.932 32.1453 150.095 31.9388 150.095Z" stroke="#DDDDDD" stroke-miterlimit="10"/>
<path d="M39.1619 151.341H35.0132C34.6753 151.341 34.4062 151.071 34.4062 150.733V130.4C34.4062 130.062 34.6753 129.793 35.0132 129.793H39.1619C39.4998 129.793 39.7689 130.062 39.7689 130.4V150.733C39.7626 151.071 39.4936 151.341 39.1619 151.341Z" stroke="#DDDDDD" stroke-miterlimit="10"/>
<path d="M37.7669 150.095H36.3965C36.19 150.095 36.0273 149.926 36.0273 149.725V143.096C36.0273 142.889 36.1963 142.727 36.3965 142.727H37.7669C37.9734 142.727 38.1361 142.896 38.1361 143.096V149.725C38.1424 149.932 37.9734 150.095 37.7669 150.095Z" stroke="#DDDDDD" stroke-miterlimit="10"/>
<path d="M44.9861 151.341H40.8374C40.4995 151.341 40.2305 151.071 40.2305 150.733V130.4C40.2305 130.062 40.4995 129.793 40.8374 129.793H44.9861C45.324 129.793 45.5931 130.062 45.5931 130.4V150.733C45.5931 151.071 45.3178 151.341 44.9861 151.341Z" stroke="#DDDDDD" stroke-miterlimit="10"/>
<path d="M43.595 150.095H42.2247C42.0182 150.095 41.8555 149.926 41.8555 149.725V143.096C41.8555 142.889 42.0244 142.727 42.2247 142.727H43.595C43.8015 142.727 43.9642 142.896 43.9642 143.096V149.725C43.9642 149.932 43.7953 150.095 43.595 150.095Z" stroke="#DDDDDD" stroke-miterlimit="10"/>
<path d="M50.8104 151.341H46.6617C46.3238 151.341 46.0547 151.071 46.0547 150.733V130.4C46.0547 130.062 46.3238 129.793 46.6617 129.793H50.8104C51.1483 129.793 51.4173 130.062 51.4173 130.4V150.733C51.4173 151.071 51.142 151.341 50.8104 151.341Z" stroke="#DDDDDD" stroke-miterlimit="10"/>
<path d="M49.4193 150.095H48.0489C47.8424 150.095 47.6797 149.926 47.6797 149.725V143.096C47.6797 142.889 47.8486 142.727 48.0489 142.727H49.4193C49.6258 142.727 49.7885 142.896 49.7885 143.096V149.725C49.7885 149.932 49.6195 150.095 49.4193 150.095Z" stroke="#DDDDDD" stroke-miterlimit="10"/>
<path d="M56.6385 151.341H52.4898C52.1519 151.341 51.8828 151.071 51.8828 150.733V130.4C51.8828 130.062 52.1519 129.793 52.4898 129.793H56.6385C56.9764 129.793 57.2455 130.062 57.2455 130.4V150.733C57.2455 151.071 56.9701 151.341 56.6385 151.341Z" stroke="#DDDDDD" stroke-miterlimit="10"/>
<path d="M55.2474 150.095H53.877C53.6705 150.095 53.5078 149.926 53.5078 149.725V143.096C53.5078 142.889 53.6768 142.727 53.877 142.727H55.2474C55.4539 142.727 55.6166 142.896 55.6166 143.096V149.725C55.6166 149.932 55.4476 150.095 55.2474 150.095Z" stroke="#DDDDDD" stroke-miterlimit="10"/>
<path d="M62.4627 151.341H58.314C57.9761 151.341 57.707 151.071 57.707 150.733V130.4C57.707 130.062 57.9761 129.793 58.314 129.793H62.4627C62.8006 129.793 63.0697 130.062 63.0697 130.4V150.733C63.0697 151.071 62.7943 151.341 62.4627 151.341Z" stroke="#DDDDDD" stroke-miterlimit="10"/>
<path d="M61.0716 150.095H59.7012C59.4947 150.095 59.332 149.926 59.332 149.725V143.096C59.332 142.889 59.501 142.727 59.7012 142.727H61.0716C61.2781 142.727 61.4408 142.896 61.4408 143.096V149.725C61.4408 149.932 61.2718 150.095 61.0716 150.095Z" stroke="#DDDDDD" stroke-miterlimit="10"/>
<path d="M68.2869 151.341H64.1382C63.8003 151.341 63.5312 151.071 63.5312 150.733V130.4C63.5312 130.062 63.8003 129.793 64.1382 129.793H68.2869C68.6248 129.793 68.8939 130.062 68.8939 130.4V150.733C68.8939 151.071 68.6186 151.341 68.2869 151.341Z" stroke="#DDDDDD" stroke-miterlimit="10"/>
<path d="M66.8958 150.095H65.5254C65.3189 150.095 65.1562 149.926 65.1562 149.725V143.096C65.1562 142.889 65.3252 142.727 65.5254 142.727H66.8958C67.1023 142.727 67.265 142.896 67.265 143.096V149.725C67.265 149.932 67.0961 150.095 66.8958 150.095Z" stroke="#DDDDDD" stroke-miterlimit="10"/>
<path d="M68.7077 153.137H11.2893C11.1829 153.137 11.1016 153.056 11.1016 152.95V152.248C11.1016 152.142 11.1829 152.061 11.2893 152.061H68.7077C68.8141 152.061 68.8955 152.142 68.8955 152.248V152.95C68.8955 153.056 68.8079 153.137 68.7077 153.137Z" fill="#DDDDDD"/>
<path d="M81.8104 29.9802H77.6617C77.3238 29.9802 77.0547 29.7111 77.0547 29.373V9.03986C77.0547 8.70181 77.3238 8.43262 77.6617 8.43262H81.8104C82.1483 8.43262 82.4173 8.70181 82.4173 9.03986V29.373C82.4173 29.7048 82.142 29.9802 81.8104 29.9802Z" stroke="#DDDDDD" stroke-miterlimit="10"/>
<path d="M80.4193 28.7345H79.0489C78.8424 28.7345 78.6797 28.5654 78.6797 28.3651V21.7356C78.6797 21.529 78.8486 21.3662 79.0489 21.3662H80.4193C80.6258 21.3662 80.7885 21.5352 80.7885 21.7356V28.3651C80.7885 28.5654 80.6195 28.7345 80.4193 28.7345Z" stroke="#DDDDDD" stroke-miterlimit="10"/>
<path d="M87.6346 29.9802H83.4859C83.148 29.9802 82.8789 29.7111 82.8789 29.373V9.03986C82.8789 8.70181 83.148 8.43262 83.4859 8.43262H87.6346C87.9725 8.43262 88.2416 8.70181 88.2416 9.03986V29.373C88.2416 29.7048 87.9662 29.9802 87.6346 29.9802Z" stroke="#DDDDDD" stroke-miterlimit="10"/>
<path d="M86.2435 28.7345H84.8731C84.6666 28.7345 84.5039 28.5654 84.5039 28.3651V21.7356C84.5039 21.529 84.6729 21.3662 84.8731 21.3662H86.2435C86.45 21.3662 86.6127 21.5352 86.6127 21.7356V28.3651C86.6127 28.5654 86.45 28.7345 86.2435 28.7345Z" stroke="#DDDDDD" stroke-miterlimit="10"/>
<path d="M93.4627 29.9802H89.314C88.9761 29.9802 88.707 29.7111 88.707 29.373V9.03986C88.707 8.70181 88.9761 8.43262 89.314 8.43262H93.4627C93.8006 8.43262 94.0697 8.70181 94.0697 9.03986V29.373C94.0697 29.7048 93.7944 29.9802 93.4627 29.9802Z" stroke="#DDDDDD" stroke-miterlimit="10"/>
<path d="M92.0716 28.7345H90.7012C90.4947 28.7345 90.332 28.5654 90.332 28.3651V21.7356C90.332 21.529 90.501 21.3662 90.7012 21.3662H92.0716C92.2781 21.3662 92.4408 21.5352 92.4408 21.7356V28.3651C92.4408 28.5654 92.2781 28.7345 92.0716 28.7345Z" stroke="#DDDDDD" stroke-miterlimit="10"/>
<path d="M99.2869 29.9802H95.1382C94.8003 29.9802 94.5312 29.7111 94.5312 29.373V9.03986C94.5312 8.70181 94.8003 8.43262 95.1382 8.43262H99.2869C99.6248 8.43262 99.8939 8.70181 99.8939 9.03986V29.373C99.8939 29.7048 99.6186 29.9802 99.2869 29.9802Z" stroke="#DDDDDD" stroke-miterlimit="10"/>
<path d="M97.8958 28.7345H96.5254C96.3189 28.7345 96.1562 28.5654 96.1562 28.3651V21.7356C96.1562 21.529 96.3252 21.3662 96.5254 21.3662H97.8958C98.1023 21.3662 98.265 21.5352 98.265 21.7356V28.3651C98.265 28.5654 98.1023 28.7345 97.8958 28.7345Z" stroke="#DDDDDD" stroke-miterlimit="10"/>
<path d="M105.115 29.9802H100.966C100.628 29.9802 100.359 29.7111 100.359 29.373V9.03986C100.359 8.70181 100.628 8.43262 100.966 8.43262H105.115C105.453 8.43262 105.722 8.70181 105.722 9.03986V29.373C105.722 29.7048 105.447 29.9802 105.115 29.9802Z" stroke="#DDDDDD" stroke-miterlimit="10"/>
<path d="M103.724 28.7345H102.354C102.147 28.7345 101.984 28.5654 101.984 28.3651V21.7356C101.984 21.529 102.153 21.3662 102.354 21.3662H103.724C103.93 21.3662 104.093 21.5352 104.093 21.7356V28.3651C104.093 28.5654 103.93 28.7345 103.724 28.7345Z" stroke="#DDDDDD" stroke-miterlimit="10"/>
<path d="M110.939 29.9802H106.791C106.453 29.9802 106.184 29.7111 106.184 29.373V9.03986C106.184 8.70181 106.453 8.43262 106.791 8.43262H110.939C111.277 8.43262 111.546 8.70181 111.546 9.03986V29.373C111.546 29.7048 111.271 29.9802 110.939 29.9802Z" stroke="#DDDDDD" stroke-miterlimit="10"/>
<path d="M109.548 28.7345H108.178C107.971 28.7345 107.809 28.5654 107.809 28.3651V21.7356C107.809 21.529 107.978 21.3662 108.178 21.3662H109.548C109.755 21.3662 109.917 21.5352 109.917 21.7356V28.3651C109.917 28.5654 109.755 28.7345 109.548 28.7345Z" stroke="#DDDDDD" stroke-miterlimit="10"/>
<path d="M116.763 29.9802H112.615C112.277 29.9802 112.008 29.7111 112.008 29.373V9.03986C112.008 8.70181 112.277 8.43262 112.615 8.43262H116.763C117.101 8.43262 117.37 8.70181 117.37 9.03986V29.373C117.37 29.7048 117.095 29.9802 116.763 29.9802Z" stroke="#DDDDDD" stroke-miterlimit="10"/>
<path d="M115.372 28.7345H114.002C113.796 28.7345 113.633 28.5654 113.633 28.3651V21.7356C113.633 21.529 113.802 21.3662 114.002 21.3662H115.372C115.579 21.3662 115.742 21.5352 115.742 21.7356V28.3651C115.742 28.5654 115.579 28.7345 115.372 28.7345Z" stroke="#DDDDDD" stroke-miterlimit="10"/>
<path d="M122.592 29.9802H118.443C118.105 29.9802 117.836 29.7111 117.836 29.373V9.03986C117.836 8.70181 118.105 8.43262 118.443 8.43262H122.592C122.93 8.43262 123.199 8.70181 123.199 9.03986V29.373C123.199 29.7048 122.923 29.9802 122.592 29.9802Z" stroke="#DDDDDD" stroke-miterlimit="10"/>
<path d="M121.201 28.7345H119.83C119.624 28.7345 119.461 28.5654 119.461 28.3651V21.7356C119.461 21.529 119.63 21.3662 119.83 21.3662H121.201C121.407 21.3662 121.57 21.5352 121.57 21.7356V28.3651C121.57 28.5654 121.407 28.7345 121.201 28.7345Z" stroke="#DDDDDD" stroke-miterlimit="10"/>
<path d="M128.416 29.9802H124.267C123.929 29.9802 123.66 29.7111 123.66 29.373V9.03986C123.66 8.70181 123.929 8.43262 124.267 8.43262H128.416C128.754 8.43262 129.023 8.70181 129.023 9.03986V29.373C129.023 29.7048 128.747 29.9802 128.416 29.9802Z" stroke="#DDDDDD" stroke-miterlimit="10"/>
<path d="M127.025 28.7345H125.654C125.448 28.7345 125.285 28.5654 125.285 28.3651V21.7356C125.285 21.529 125.454 21.3662 125.654 21.3662H127.025C127.231 21.3662 127.394 21.5352 127.394 21.7356V28.3651C127.394 28.5654 127.231 28.7345 127.025 28.7345Z" stroke="#DDDDDD" stroke-miterlimit="10"/>
<path d="M134.24 29.9802H130.091C129.753 29.9802 129.484 29.7111 129.484 29.373V9.03986C129.484 8.70181 129.753 8.43262 130.091 8.43262H134.24C134.578 8.43262 134.847 8.70181 134.847 9.03986V29.373C134.847 29.7048 134.572 29.9802 134.24 29.9802Z" stroke="#DDDDDD" stroke-miterlimit="10"/>
<path d="M132.849 28.7345H131.479C131.272 28.7345 131.109 28.5654 131.109 28.3651V21.7356C131.109 21.529 131.278 21.3662 131.479 21.3662H132.849C133.055 21.3662 133.218 21.5352 133.218 21.7356V28.3651C133.218 28.5654 133.055 28.7345 132.849 28.7345Z" stroke="#DDDDDD" stroke-miterlimit="10"/>
<path d="M134.661 31.7769H77.2424C77.136 31.7769 77.0547 31.6956 77.0547 31.5891V30.888C77.0547 30.7816 77.136 30.7002 77.2424 30.7002H134.661C134.767 30.7002 134.849 30.7816 134.849 30.888V31.5891C134.849 31.6956 134.761 31.7769 134.661 31.7769Z" fill="#DDDDDD"/>
<path d="M81.8104 54.2517H77.6617C77.3238 54.2517 77.0547 53.9825 77.0547 53.6445V33.3113C77.0547 32.9733 77.3238 32.7041 77.6617 32.7041H81.8104C82.1483 32.7041 82.4173 32.9733 82.4173 33.3113V53.6445C82.4173 53.9825 82.142 54.2517 81.8104 54.2517Z" stroke="#DDDDDD" stroke-miterlimit="10"/>
<path d="M80.4193 53.006H79.0489C78.8424 53.006 78.6797 52.8369 78.6797 52.6366V46.007C78.6797 45.8005 78.8486 45.6377 79.0489 45.6377H80.4193C80.6258 45.6377 80.7885 45.8067 80.7885 46.007V52.6366C80.7885 52.8432 80.6195 53.006 80.4193 53.006Z" stroke="#DDDDDD" stroke-miterlimit="10"/>
<path d="M87.6346 54.2517H83.4859C83.148 54.2517 82.8789 53.9825 82.8789 53.6445V33.3113C82.8789 32.9733 83.148 32.7041 83.4859 32.7041H87.6346C87.9725 32.7041 88.2416 32.9733 88.2416 33.3113V53.6445C88.2416 53.9825 87.9662 54.2517 87.6346 54.2517Z" stroke="#DDDDDD" stroke-miterlimit="10"/>
<path d="M86.2435 53.006H84.8731C84.6666 53.006 84.5039 52.8369 84.5039 52.6366V46.007C84.5039 45.8005 84.6729 45.6377 84.8731 45.6377H86.2435C86.45 45.6377 86.6127 45.8067 86.6127 46.007V52.6366C86.6127 52.8432 86.45 53.006 86.2435 53.006Z" stroke="#DDDDDD" stroke-miterlimit="10"/>
<path d="M93.4627 54.2517H89.314C88.9761 54.2517 88.707 53.9825 88.707 53.6445V33.3113C88.707 32.9733 88.9761 32.7041 89.314 32.7041H93.4627C93.8006 32.7041 94.0697 32.9733 94.0697 33.3113V53.6445C94.0697 53.9825 93.7944 54.2517 93.4627 54.2517Z" stroke="#DDDDDD" stroke-miterlimit="10"/>
<path d="M92.0716 53.006H90.7012C90.4947 53.006 90.332 52.8369 90.332 52.6366V46.007C90.332 45.8005 90.501 45.6377 90.7012 45.6377H92.0716C92.2781 45.6377 92.4408 45.8067 92.4408 46.007V52.6366C92.4408 52.8432 92.2781 53.006 92.0716 53.006Z" stroke="#DDDDDD" stroke-miterlimit="10"/>
<path d="M99.2869 54.2517H95.1382C94.8003 54.2517 94.5312 53.9825 94.5312 53.6445V33.3113C94.5312 32.9733 94.8003 32.7041 95.1382 32.7041H99.2869C99.6248 32.7041 99.8939 32.9733 99.8939 33.3113V53.6445C99.8939 53.9825 99.6186 54.2517 99.2869 54.2517Z" stroke="#DDDDDD" stroke-miterlimit="10"/>
<path d="M97.8958 53.006H96.5254C96.3189 53.006 96.1562 52.8369 96.1562 52.6366V46.007C96.1562 45.8005 96.3252 45.6377 96.5254 45.6377H97.8958C98.1023 45.6377 98.265 45.8067 98.265 46.007V52.6366C98.265 52.8432 98.1023 53.006 97.8958 53.006Z" stroke="#DDDDDD" stroke-miterlimit="10"/>
<path d="M105.115 54.2517H100.966C100.628 54.2517 100.359 53.9825 100.359 53.6445V33.3113C100.359 32.9733 100.628 32.7041 100.966 32.7041H105.115C105.453 32.7041 105.722 32.9733 105.722 33.3113V53.6445C105.722 53.9825 105.447 54.2517 105.115 54.2517Z" stroke="#DDDDDD" stroke-miterlimit="10"/>
<path d="M103.724 53.006H102.354C102.147 53.006 101.984 52.8369 101.984 52.6366V46.007C101.984 45.8005 102.153 45.6377 102.354 45.6377H103.724C103.93 45.6377 104.093 45.8067 104.093 46.007V52.6366C104.093 52.8432 103.93 53.006 103.724 53.006Z" stroke="#DDDDDD" stroke-miterlimit="10"/>
<path d="M110.939 54.2517H106.791C106.453 54.2517 106.184 53.9825 106.184 53.6445V33.3113C106.184 32.9733 106.453 32.7041 106.791 32.7041H110.939C111.277 32.7041 111.546 32.9733 111.546 33.3113V53.6445C111.546 53.9825 111.271 54.2517 110.939 54.2517Z" stroke="#DDDDDD" stroke-miterlimit="10"/>
<path d="M109.548 53.006H108.178C107.971 53.006 107.809 52.8369 107.809 52.6366V46.007C107.809 45.8005 107.978 45.6377 108.178 45.6377H109.548C109.755 45.6377 109.917 45.8067 109.917 46.007V52.6366C109.917 52.8432 109.755 53.006 109.548 53.006Z" stroke="#DDDDDD" stroke-miterlimit="10"/>
<path d="M116.763 54.2517H112.615C112.277 54.2517 112.008 53.9825 112.008 53.6445V33.3113C112.008 32.9733 112.277 32.7041 112.615 32.7041H116.763C117.101 32.7041 117.37 32.9733 117.37 33.3113V53.6445C117.37 53.9825 117.095 54.2517 116.763 54.2517Z" stroke="#DDDDDD" stroke-miterlimit="10"/>
<path d="M115.372 53.006H114.002C113.796 53.006 113.633 52.8369 113.633 52.6366V46.007C113.633 45.8005 113.802 45.6377 114.002 45.6377H115.372C115.579 45.6377 115.742 45.8067 115.742 46.007V52.6366C115.742 52.8432 115.579 53.006 115.372 53.006Z" stroke="#DDDDDD" stroke-miterlimit="10"/>
<path d="M122.592 54.2517H118.443C118.105 54.2517 117.836 53.9825 117.836 53.6445V33.3113C117.836 32.9733 118.105 32.7041 118.443 32.7041H122.592C122.93 32.7041 123.199 32.9733 123.199 33.3113V53.6445C123.199 53.9825 122.923 54.2517 122.592 54.2517Z" stroke="#DDDDDD" stroke-miterlimit="10"/>
<path d="M121.201 53.006H119.83C119.624 53.006 119.461 52.8369 119.461 52.6366V46.007C119.461 45.8005 119.63 45.6377 119.83 45.6377H121.201C121.407 45.6377 121.57 45.8067 121.57 46.007V52.6366C121.57 52.8432 121.407 53.006 121.201 53.006Z" stroke="#DDDDDD" stroke-miterlimit="10"/>
<path d="M128.416 54.2517H124.267C123.929 54.2517 123.66 53.9825 123.66 53.6445V33.3113C123.66 32.9733 123.929 32.7041 124.267 32.7041H128.416C128.754 32.7041 129.023 32.9733 129.023 33.3113V53.6445C129.023 53.9825 128.747 54.2517 128.416 54.2517Z" stroke="#DDDDDD" stroke-miterlimit="10"/>
<path d="M127.025 53.006H125.654C125.448 53.006 125.285 52.8369 125.285 52.6366V46.007C125.285 45.8005 125.454 45.6377 125.654 45.6377H127.025C127.231 45.6377 127.394 45.8067 127.394 46.007V52.6366C127.394 52.8432 127.231 53.006 127.025 53.006Z" stroke="#DDDDDD" stroke-miterlimit="10"/>
<path d="M134.24 54.2517H130.091C129.753 54.2517 129.484 53.9825 129.484 53.6445V33.3113C129.484 32.9733 129.753 32.7041 130.091 32.7041H134.24C134.578 32.7041 134.847 32.9733 134.847 33.3113V53.6445C134.847 53.9825 134.572 54.2517 134.24 54.2517Z" stroke="#DDDDDD" stroke-miterlimit="10"/>
<path d="M132.849 53.006H131.479C131.272 53.006 131.109 52.8369 131.109 52.6366V46.007C131.109 45.8005 131.278 45.6377 131.479 45.6377H132.849C133.055 45.6377 133.218 45.8067 133.218 46.007V52.6366C133.218 52.8432 133.055 53.006 132.849 53.006Z" stroke="#DDDDDD" stroke-miterlimit="10"/>
<path d="M134.661 56.0484H77.2424C77.136 56.0484 77.0547 55.9671 77.0547 55.8606V55.1595C77.0547 55.0531 77.136 54.9717 77.2424 54.9717H134.661C134.767 54.9717 134.849 55.0531 134.849 55.1595V55.8606C134.849 55.9671 134.761 56.0484 134.661 56.0484Z" fill="#DDDDDD"/>
<path d="M81.8104 78.5222H77.6617C77.3238 78.5222 77.0547 78.2531 77.0547 77.915V57.5819C77.0547 57.2438 77.3238 56.9746 77.6617 56.9746H81.8104C82.1483 56.9746 82.4173 57.2438 82.4173 57.5819V77.915C82.4173 78.2531 82.142 78.5222 81.8104 78.5222Z" stroke="#DDDDDD" stroke-miterlimit="10"/>
<path d="M80.4193 77.2765H79.0489C78.8424 77.2765 78.6797 77.1074 78.6797 76.9071V70.2776C78.6797 70.071 78.8486 69.9082 79.0489 69.9082H80.4193C80.6258 69.9082 80.7885 70.0772 80.7885 70.2776V76.9071C80.7885 77.1137 80.6195 77.2765 80.4193 77.2765Z" stroke="#DDDDDD" stroke-miterlimit="10"/>
<path d="M87.6346 78.5222H83.4859C83.148 78.5222 82.8789 78.2531 82.8789 77.915V57.5819C82.8789 57.2438 83.148 56.9746 83.4859 56.9746H87.6346C87.9725 56.9746 88.2416 57.2438 88.2416 57.5819V77.915C88.2416 78.2531 87.9662 78.5222 87.6346 78.5222Z" stroke="#DDDDDD" stroke-miterlimit="10"/>
<path d="M86.2435 77.2765H84.8731C84.6666 77.2765 84.5039 77.1074 84.5039 76.9071V70.2776C84.5039 70.071 84.6729 69.9082 84.8731 69.9082H86.2435C86.45 69.9082 86.6127 70.0772 86.6127 70.2776V76.9071C86.6127 77.1137 86.45 77.2765 86.2435 77.2765Z" stroke="#DDDDDD" stroke-miterlimit="10"/>
<path d="M93.4627 78.5222H89.314C88.9761 78.5222 88.707 78.2531 88.707 77.915V57.5819C88.707 57.2438 88.9761 56.9746 89.314 56.9746H93.4627C93.8006 56.9746 94.0697 57.2438 94.0697 57.5819V77.915C94.0697 78.2531 93.7944 78.5222 93.4627 78.5222Z" stroke="#DDDDDD" stroke-miterlimit="10"/>
<path d="M92.0716 77.2765H90.7012C90.4947 77.2765 90.332 77.1074 90.332 76.9071V70.2776C90.332 70.071 90.501 69.9082 90.7012 69.9082H92.0716C92.2781 69.9082 92.4408 70.0772 92.4408 70.2776V76.9071C92.4408 77.1137 92.2781 77.2765 92.0716 77.2765Z" stroke="#DDDDDD" stroke-miterlimit="10"/>
<path d="M99.2869 78.5222H95.1382C94.8003 78.5222 94.5312 78.2531 94.5312 77.915V57.5819C94.5312 57.2438 94.8003 56.9746 95.1382 56.9746H99.2869C99.6248 56.9746 99.8939 57.2438 99.8939 57.5819V77.915C99.8939 78.2531 99.6186 78.5222 99.2869 78.5222Z" stroke="#DDDDDD" stroke-miterlimit="10"/>
<path d="M97.8958 77.2765H96.5254C96.3189 77.2765 96.1562 77.1074 96.1562 76.9071V70.2776C96.1562 70.071 96.3252 69.9082 96.5254 69.9082H97.8958C98.1023 69.9082 98.265 70.0772 98.265 70.2776V76.9071C98.265 77.1137 98.1023 77.2765 97.8958 77.2765Z" stroke="#DDDDDD" stroke-miterlimit="10"/>
<path d="M105.115 78.5222H100.966C100.628 78.5222 100.359 78.2531 100.359 77.915V57.5819C100.359 57.2438 100.628 56.9746 100.966 56.9746H105.115C105.453 56.9746 105.722 57.2438 105.722 57.5819V77.915C105.722 78.2531 105.447 78.5222 105.115 78.5222Z" stroke="#DDDDDD" stroke-miterlimit="10"/>
<path d="M103.724 77.2765H102.354C102.147 77.2765 101.984 77.1074 101.984 76.9071V70.2776C101.984 70.071 102.153 69.9082 102.354 69.9082H103.724C103.93 69.9082 104.093 70.0772 104.093 70.2776V76.9071C104.093 77.1137 103.93 77.2765 103.724 77.2765Z" stroke="#DDDDDD" stroke-miterlimit="10"/>
<path d="M110.939 78.5222H106.791C106.453 78.5222 106.184 78.2531 106.184 77.915V57.5819C106.184 57.2438 106.453 56.9746 106.791 56.9746H110.939C111.277 56.9746 111.546 57.2438 111.546 57.5819V77.915C111.546 78.2531 111.271 78.5222 110.939 78.5222Z" stroke="#DDDDDD" stroke-miterlimit="10"/>
<path d="M109.548 77.2765H108.178C107.971 77.2765 107.809 77.1074 107.809 76.9071V70.2776C107.809 70.071 107.978 69.9082 108.178 69.9082H109.548C109.755 69.9082 109.917 70.0772 109.917 70.2776V76.9071C109.917 77.1137 109.755 77.2765 109.548 77.2765Z" stroke="#DDDDDD" stroke-miterlimit="10"/>
<path d="M116.763 78.5222H112.615C112.277 78.5222 112.008 78.2531 112.008 77.915V57.5819C112.008 57.2438 112.277 56.9746 112.615 56.9746H116.763C117.101 56.9746 117.37 57.2438 117.37 57.5819V77.915C117.37 78.2531 117.095 78.5222 116.763 78.5222Z" stroke="#DDDDDD" stroke-miterlimit="10"/>
<path d="M115.372 77.2765H114.002C113.796 77.2765 113.633 77.1074 113.633 76.9071V70.2776C113.633 70.071 113.802 69.9082 114.002 69.9082H115.372C115.579 69.9082 115.742 70.0772 115.742 70.2776V76.9071C115.742 77.1137 115.579 77.2765 115.372 77.2765Z" stroke="#DDDDDD" stroke-miterlimit="10"/>
<path d="M122.592 78.5222H118.443C118.105 78.5222 117.836 78.2531 117.836 77.915V57.5819C117.836 57.2438 118.105 56.9746 118.443 56.9746H122.592C122.93 56.9746 123.199 57.2438 123.199 57.5819V77.915C123.199 78.2531 122.923 78.5222 122.592 78.5222Z" stroke="#DDDDDD" stroke-miterlimit="10"/>
<path d="M121.201 77.2765H119.83C119.624 77.2765 119.461 77.1074 119.461 76.9071V70.2776C119.461 70.071 119.63 69.9082 119.83 69.9082H121.201C121.407 69.9082 121.57 70.0772 121.57 70.2776V76.9071C121.57 77.1137 121.407 77.2765 121.201 77.2765Z" stroke="#DDDDDD" stroke-miterlimit="10"/>
<path d="M128.416 78.5222H124.267C123.929 78.5222 123.66 78.2531 123.66 77.915V57.5819C123.66 57.2438 123.929 56.9746 124.267 56.9746H128.416C128.754 56.9746 129.023 57.2438 129.023 57.5819V77.915C129.023 78.2531 128.747 78.5222 128.416 78.5222Z" stroke="#DDDDDD" stroke-miterlimit="10"/>
<path d="M127.025 77.2765H125.654C125.448 77.2765 125.285 77.1074 125.285 76.9071V70.2776C125.285 70.071 125.454 69.9082 125.654 69.9082H127.025C127.231 69.9082 127.394 70.0772 127.394 70.2776V76.9071C127.394 77.1137 127.231 77.2765 127.025 77.2765Z" stroke="#DDDDDD" stroke-miterlimit="10"/>
<path d="M134.24 78.5222H130.091C129.753 78.5222 129.484 78.2531 129.484 77.915V57.5819C129.484 57.2438 129.753 56.9746 130.091 56.9746H134.24C134.578 56.9746 134.847 57.2438 134.847 57.5819V77.915C134.847 78.2531 134.572 78.5222 134.24 78.5222Z" stroke="#DDDDDD" stroke-miterlimit="10"/>
<path d="M132.849 77.2765H131.479C131.272 77.2765 131.109 77.1074 131.109 76.9071V70.2776C131.109 70.071 131.278 69.9082 131.479 69.9082H132.849C133.055 69.9082 133.218 70.0772 133.218 70.2776V76.9071C133.218 77.1137 133.055 77.2765 132.849 77.2765Z" stroke="#DDDDDD" stroke-miterlimit="10"/>
<path d="M134.661 80.3189H77.2424C77.136 80.3189 77.0547 80.2376 77.0547 80.1311V79.43C77.0547 79.3236 77.136 79.2422 77.2424 79.2422H134.661C134.767 79.2422 134.849 79.3236 134.849 79.43V80.1311C134.849 80.2376 134.761 80.3189 134.661 80.3189Z" fill="#DDDDDD"/>
<path d="M81.8104 102.8H77.6617C77.3238 102.8 77.0547 102.53 77.0547 102.192V81.8592C77.0547 81.5211 77.3238 81.252 77.6617 81.252H81.8104C82.1483 81.252 82.4173 81.5211 82.4173 81.8592V102.192C82.4173 102.524 82.142 102.8 81.8104 102.8Z" stroke="#DDDDDD" stroke-miterlimit="10"/>
<path d="M80.4193 101.554H79.0489C78.8424 101.554 78.6797 101.385 78.6797 101.184V94.5549C78.6797 94.3483 78.8486 94.1855 79.0489 94.1855H80.4193C80.6258 94.1855 80.7885 94.3546 80.7885 94.5549V101.184C80.7885 101.385 80.6195 101.554 80.4193 101.554Z" stroke="#DDDDDD" stroke-miterlimit="10"/>
<path d="M87.6346 102.8H83.4859C83.148 102.8 82.8789 102.53 82.8789 102.192V81.8592C82.8789 81.5211 83.148 81.252 83.4859 81.252H87.6346C87.9725 81.252 88.2416 81.5211 88.2416 81.8592V102.192C88.2416 102.524 87.9662 102.8 87.6346 102.8Z" stroke="#DDDDDD" stroke-miterlimit="10"/>
<path d="M86.2435 101.554H84.8731C84.6666 101.554 84.5039 101.385 84.5039 101.184V94.5549C84.5039 94.3483 84.6729 94.1855 84.8731 94.1855H86.2435C86.45 94.1855 86.6127 94.3546 86.6127 94.5549V101.184C86.6127 101.385 86.45 101.554 86.2435 101.554Z" stroke="#DDDDDD" stroke-miterlimit="10"/>
<path d="M93.4627 102.8H89.314C88.9761 102.8 88.707 102.53 88.707 102.192V81.8592C88.707 81.5211 88.9761 81.252 89.314 81.252H93.4627C93.8006 81.252 94.0697 81.5211 94.0697 81.8592V102.192C94.0697 102.524 93.7944 102.8 93.4627 102.8Z" stroke="#DDDDDD" stroke-miterlimit="10"/>
<path d="M92.0716 101.554H90.7012C90.4947 101.554 90.332 101.385 90.332 101.184V94.5549C90.332 94.3483 90.501 94.1855 90.7012 94.1855H92.0716C92.2781 94.1855 92.4408 94.3546 92.4408 94.5549V101.184C92.4408 101.385 92.2781 101.554 92.0716 101.554Z" stroke="#DDDDDD" stroke-miterlimit="10"/>
<path d="M99.2869 102.8H95.1382C94.8003 102.8 94.5312 102.53 94.5312 102.192V81.8592C94.5312 81.5211 94.8003 81.252 95.1382 81.252H99.2869C99.6248 81.252 99.8939 81.5211 99.8939 81.8592V102.192C99.8939 102.524 99.6186 102.8 99.2869 102.8Z" stroke="#DDDDDD" stroke-miterlimit="10"/>
<path d="M97.8958 101.554H96.5254C96.3189 101.554 96.1562 101.385 96.1562 101.184V94.5549C96.1562 94.3483 96.3252 94.1855 96.5254 94.1855H97.8958C98.1023 94.1855 98.265 94.3546 98.265 94.5549V101.184C98.265 101.385 98.1023 101.554 97.8958 101.554Z" stroke="#DDDDDD" stroke-miterlimit="10"/>
<path d="M105.115 102.8H100.966C100.628 102.8 100.359 102.53 100.359 102.192V81.8592C100.359 81.5211 100.628 81.252 100.966 81.252H105.115C105.453 81.252 105.722 81.5211 105.722 81.8592V102.192C105.722 102.524 105.447 102.8 105.115 102.8Z" stroke="#DDDDDD" stroke-miterlimit="10"/>
<path d="M103.724 101.554H102.354C102.147 101.554 101.984 101.385 101.984 101.184V94.5549C101.984 94.3483 102.153 94.1855 102.354 94.1855H103.724C103.93 94.1855 104.093 94.3546 104.093 94.5549V101.184C104.093 101.385 103.93 101.554 103.724 101.554Z" stroke="#DDDDDD" stroke-miterlimit="10"/>
<path d="M110.939 102.8H106.791C106.453 102.8 106.184 102.53 106.184 102.192V81.8592C106.184 81.5211 106.453 81.252 106.791 81.252H110.939C111.277 81.252 111.546 81.5211 111.546 81.8592V102.192C111.546 102.524 111.271 102.8 110.939 102.8Z" stroke="#DDDDDD" stroke-miterlimit="10"/>
<path d="M109.548 101.554H108.178C107.971 101.554 107.809 101.385 107.809 101.184V94.5549C107.809 94.3483 107.978 94.1855 108.178 94.1855H109.548C109.755 94.1855 109.917 94.3546 109.917 94.5549V101.184C109.917 101.385 109.755 101.554 109.548 101.554Z" stroke="#DDDDDD" stroke-miterlimit="10"/>
<path d="M116.763 102.8H112.615C112.277 102.8 112.008 102.53 112.008 102.192V81.8592C112.008 81.5211 112.277 81.252 112.615 81.252H116.763C117.101 81.252 117.37 81.5211 117.37 81.8592V102.192C117.37 102.524 117.095 102.8 116.763 102.8Z" stroke="#DDDDDD" stroke-miterlimit="10"/>
<path d="M115.372 101.554H114.002C113.796 101.554 113.633 101.385 113.633 101.184V94.5549C113.633 94.3483 113.802 94.1855 114.002 94.1855H115.372C115.579 94.1855 115.742 94.3546 115.742 94.5549V101.184C115.742 101.385 115.579 101.554 115.372 101.554Z" stroke="#DDDDDD" stroke-miterlimit="10"/>
<path d="M122.592 102.8H118.443C118.105 102.8 117.836 102.53 117.836 102.192V81.8592C117.836 81.5211 118.105 81.252 118.443 81.252H122.592C122.93 81.252 123.199 81.5211 123.199 81.8592V102.192C123.199 102.524 122.923 102.8 122.592 102.8Z" stroke="#DDDDDD" stroke-miterlimit="10"/>
<path d="M121.201 101.554H119.83C119.624 101.554 119.461 101.385 119.461 101.184V94.5549C119.461 94.3483 119.63 94.1855 119.83 94.1855H121.201C121.407 94.1855 121.57 94.3546 121.57 94.5549V101.184C121.57 101.385 121.407 101.554 121.201 101.554Z" stroke="#DDDDDD" stroke-miterlimit="10"/>
<path d="M128.416 102.8H124.267C123.929 102.8 123.66 102.53 123.66 102.192V81.8592C123.66 81.5211 123.929 81.252 124.267 81.252H128.416C128.754 81.252 129.023 81.5211 129.023 81.8592V102.192C129.023 102.524 128.747 102.8 128.416 102.8Z" stroke="#DDDDDD" stroke-miterlimit="10"/>
<path d="M127.025 101.554H125.654C125.448 101.554 125.285 101.385 125.285 101.184V94.5549C125.285 94.3483 125.454 94.1855 125.654 94.1855H127.025C127.231 94.1855 127.394 94.3546 127.394 94.5549V101.184C127.394 101.385 127.231 101.554 127.025 101.554Z" stroke="#DDDDDD" stroke-miterlimit="10"/>
<path d="M134.24 102.8H130.091C129.753 102.8 129.484 102.53 129.484 102.192V81.8592C129.484 81.5211 129.753 81.252 130.091 81.252H134.24C134.578 81.252 134.847 81.5211 134.847 81.8592V102.192C134.847 102.524 134.572 102.8 134.24 102.8Z" stroke="#DDDDDD" stroke-miterlimit="10"/>
<path d="M132.849 101.554H131.479C131.272 101.554 131.109 101.385 131.109 101.184V94.5549C131.109 94.3483 131.278 94.1855 131.479 94.1855H132.849C133.055 94.1855 133.218 94.3546 133.218 94.5549V101.184C133.218 101.385 133.055 101.554 132.849 101.554Z" stroke="#DDDDDD" stroke-miterlimit="10"/>
<path d="M134.661 104.596H77.2424C77.136 104.596 77.0547 104.515 77.0547 104.408V103.707C77.0547 103.601 77.136 103.52 77.2424 103.52H134.661C134.767 103.52 134.849 103.601 134.849 103.707V104.408C134.849 104.509 134.761 104.596 134.661 104.596Z" fill="#DDDDDD"/>
<path d="M81.8104 127.07H77.6617C77.3238 127.07 77.0547 126.801 77.0547 126.463V106.13C77.0547 105.792 77.3238 105.522 77.6617 105.522H81.8104C82.1483 105.522 82.4173 105.792 82.4173 106.13V126.463C82.4173 126.795 82.142 127.07 81.8104 127.07Z" stroke="#DDDDDD" stroke-miterlimit="10"/>
<path d="M80.4193 125.824H79.0489C78.8424 125.824 78.6797 125.655 78.6797 125.455V118.825C78.6797 118.619 78.8486 118.456 79.0489 118.456H80.4193C80.6258 118.456 80.7885 118.625 80.7885 118.825V125.455C80.7885 125.655 80.6195 125.824 80.4193 125.824Z" stroke="#DDDDDD" stroke-miterlimit="10"/>
<path d="M87.6346 127.07H83.4859C83.148 127.07 82.8789 126.801 82.8789 126.463V106.13C82.8789 105.792 83.148 105.522 83.4859 105.522H87.6346C87.9725 105.522 88.2416 105.792 88.2416 106.13V126.463C88.2416 126.795 87.9662 127.07 87.6346 127.07Z" stroke="#DDDDDD" stroke-miterlimit="10"/>
<path d="M86.2435 125.824H84.8731C84.6666 125.824 84.5039 125.655 84.5039 125.455V118.825C84.5039 118.619 84.6729 118.456 84.8731 118.456H86.2435C86.45 118.456 86.6127 118.625 86.6127 118.825V125.455C86.6127 125.655 86.45 125.824 86.2435 125.824Z" stroke="#DDDDDD" stroke-miterlimit="10"/>
<path d="M93.4627 127.07H89.314C88.9761 127.07 88.707 126.801 88.707 126.463V106.13C88.707 105.792 88.9761 105.522 89.314 105.522H93.4627C93.8006 105.522 94.0697 105.792 94.0697 106.13V126.463C94.0697 126.795 93.7944 127.07 93.4627 127.07Z" stroke="#DDDDDD" stroke-miterlimit="10"/>
<path d="M92.0716 125.824H90.7012C90.4947 125.824 90.332 125.655 90.332 125.455V118.825C90.332 118.619 90.501 118.456 90.7012 118.456H92.0716C92.2781 118.456 92.4408 118.625 92.4408 118.825V125.455C92.4408 125.655 92.2781 125.824 92.0716 125.824Z" stroke="#DDDDDD" stroke-miterlimit="10"/>
<path d="M99.2869 127.07H95.1382C94.8003 127.07 94.5312 126.801 94.5312 126.463V106.13C94.5312 105.792 94.8003 105.522 95.1382 105.522H99.2869C99.6248 105.522 99.8939 105.792 99.8939 106.13V126.463C99.8939 126.795 99.6186 127.07 99.2869 127.07Z" stroke="#DDDDDD" stroke-miterlimit="10"/>
<path d="M97.8958 125.824H96.5254C96.3189 125.824 96.1562 125.655 96.1562 125.455V118.825C96.1562 118.619 96.3252 118.456 96.5254 118.456H97.8958C98.1023 118.456 98.265 118.625 98.265 118.825V125.455C98.265 125.655 98.1023 125.824 97.8958 125.824Z" stroke="#DDDDDD" stroke-miterlimit="10"/>
<path d="M105.115 127.07H100.966C100.628 127.07 100.359 126.801 100.359 126.463V106.13C100.359 105.792 100.628 105.522 100.966 105.522H105.115C105.453 105.522 105.722 105.792 105.722 106.13V126.463C105.722 126.795 105.447 127.07 105.115 127.07Z" stroke="#DDDDDD" stroke-miterlimit="10"/>
<path d="M103.724 125.824H102.354C102.147 125.824 101.984 125.655 101.984 125.455V118.825C101.984 118.619 102.153 118.456 102.354 118.456H103.724C103.93 118.456 104.093 118.625 104.093 118.825V125.455C104.093 125.655 103.93 125.824 103.724 125.824Z" stroke="#DDDDDD" stroke-miterlimit="10"/>
<path d="M110.939 127.07H106.791C106.453 127.07 106.184 126.801 106.184 126.463V106.13C106.184 105.792 106.453 105.522 106.791 105.522H110.939C111.277 105.522 111.546 105.792 111.546 106.13V126.463C111.546 126.795 111.271 127.07 110.939 127.07Z" stroke="#DDDDDD" stroke-miterlimit="10"/>
<path d="M109.548 125.824H108.178C107.971 125.824 107.809 125.655 107.809 125.455V118.825C107.809 118.619 107.978 118.456 108.178 118.456H109.548C109.755 118.456 109.917 118.625 109.917 118.825V125.455C109.917 125.655 109.755 125.824 109.548 125.824Z" stroke="#DDDDDD" stroke-miterlimit="10"/>
<path d="M116.763 127.07H112.615C112.277 127.07 112.008 126.801 112.008 126.463V106.13C112.008 105.792 112.277 105.522 112.615 105.522H116.763C117.101 105.522 117.37 105.792 117.37 106.13V126.463C117.37 126.795 117.095 127.07 116.763 127.07Z" stroke="#DDDDDD" stroke-miterlimit="10"/>
<path d="M115.372 125.824H114.002C113.796 125.824 113.633 125.655 113.633 125.455V118.825C113.633 118.619 113.802 118.456 114.002 118.456H115.372C115.579 118.456 115.742 118.625 115.742 118.825V125.455C115.742 125.655 115.579 125.824 115.372 125.824Z" stroke="#DDDDDD" stroke-miterlimit="10"/>
<path d="M122.592 127.07H118.443C118.105 127.07 117.836 126.801 117.836 126.463V106.13C117.836 105.792 118.105 105.522 118.443 105.522H122.592C122.93 105.522 123.199 105.792 123.199 106.13V126.463C123.199 126.795 122.923 127.07 122.592 127.07Z" stroke="#DDDDDD" stroke-miterlimit="10"/>
<path d="M121.201 125.824H119.83C119.624 125.824 119.461 125.655 119.461 125.455V118.825C119.461 118.619 119.63 118.456 119.83 118.456H121.201C121.407 118.456 121.57 118.625 121.57 118.825V125.455C121.57 125.655 121.407 125.824 121.201 125.824Z" stroke="#DDDDDD" stroke-miterlimit="10"/>
<path d="M128.416 127.07H124.267C123.929 127.07 123.66 126.801 123.66 126.463V106.13C123.66 105.792 123.929 105.522 124.267 105.522H128.416C128.754 105.522 129.023 105.792 129.023 106.13V126.463C129.023 126.795 128.747 127.07 128.416 127.07Z" stroke="#DDDDDD" stroke-miterlimit="10"/>
<path d="M127.025 125.824H125.654C125.448 125.824 125.285 125.655 125.285 125.455V118.825C125.285 118.619 125.454 118.456 125.654 118.456H127.025C127.231 118.456 127.394 118.625 127.394 118.825V125.455C127.394 125.655 127.231 125.824 127.025 125.824Z" stroke="#DDDDDD" stroke-miterlimit="10"/>
<path d="M134.24 127.07H130.091C129.753 127.07 129.484 126.801 129.484 126.463V106.13C129.484 105.792 129.753 105.522 130.091 105.522H134.24C134.578 105.522 134.847 105.792 134.847 106.13V126.463C134.847 126.795 134.572 127.07 134.24 127.07Z" stroke="#DDDDDD" stroke-miterlimit="10"/>
<path d="M132.849 125.824H131.479C131.272 125.824 131.109 125.655 131.109 125.455V118.825C131.109 118.619 131.278 118.456 131.479 118.456H132.849C133.055 118.456 133.218 118.625 133.218 118.825V125.455C133.218 125.655 133.055 125.824 132.849 125.824Z" stroke="#DDDDDD" stroke-miterlimit="10"/>
<path d="M134.661 128.867H77.2424C77.136 128.867 77.0547 128.785 77.0547 128.679V127.978C77.0547 127.871 77.136 127.79 77.2424 127.79H134.661C134.767 127.79 134.849 127.871 134.849 127.978V128.679C134.849 128.785 134.761 128.867 134.661 128.867Z" fill="#DDDDDD"/>
<path d="M81.8104 151.341H77.6617C77.3238 151.341 77.0547 151.071 77.0547 150.733V130.4C77.0547 130.062 77.3238 129.793 77.6617 129.793H81.8104C82.1483 129.793 82.4173 130.062 82.4173 130.4V150.733C82.4173 151.071 82.142 151.341 81.8104 151.341Z" stroke="#DDDDDD" stroke-miterlimit="10"/>
<path d="M80.4193 150.095H79.0489C78.8424 150.095 78.6797 149.926 78.6797 149.725V143.096C78.6797 142.889 78.8486 142.727 79.0489 142.727H80.4193C80.6258 142.727 80.7885 142.896 80.7885 143.096V149.725C80.7885 149.932 80.6195 150.095 80.4193 150.095Z" stroke="#DDDDDD" stroke-miterlimit="10"/>
<path d="M87.6346 151.341H83.4859C83.148 151.341 82.8789 151.071 82.8789 150.733V130.4C82.8789 130.062 83.148 129.793 83.4859 129.793H87.6346C87.9725 129.793 88.2416 130.062 88.2416 130.4V150.733C88.2416 151.071 87.9662 151.341 87.6346 151.341Z" stroke="#DDDDDD" stroke-miterlimit="10"/>
<path d="M86.2435 150.095H84.8731C84.6666 150.095 84.5039 149.926 84.5039 149.725V143.096C84.5039 142.889 84.6729 142.727 84.8731 142.727H86.2435C86.45 142.727 86.6127 142.896 86.6127 143.096V149.725C86.6127 149.932 86.45 150.095 86.2435 150.095Z" stroke="#DDDDDD" stroke-miterlimit="10"/>
<path d="M93.4627 151.341H89.314C88.9761 151.341 88.707 151.071 88.707 150.733V130.4C88.707 130.062 88.9761 129.793 89.314 129.793H93.4627C93.8006 129.793 94.0697 130.062 94.0697 130.4V150.733C94.0697 151.071 93.7944 151.341 93.4627 151.341Z" stroke="#DDDDDD" stroke-miterlimit="10"/>
<path d="M92.0716 150.095H90.7012C90.4947 150.095 90.332 149.926 90.332 149.725V143.096C90.332 142.889 90.501 142.727 90.7012 142.727H92.0716C92.2781 142.727 92.4408 142.896 92.4408 143.096V149.725C92.4408 149.932 92.2781 150.095 92.0716 150.095Z" stroke="#DDDDDD" stroke-miterlimit="10"/>
<path d="M99.2869 151.341H95.1382C94.8003 151.341 94.5312 151.071 94.5312 150.733V130.4C94.5312 130.062 94.8003 129.793 95.1382 129.793H99.2869C99.6248 129.793 99.8939 130.062 99.8939 130.4V150.733C99.8939 151.071 99.6186 151.341 99.2869 151.341Z" stroke="#DDDDDD" stroke-miterlimit="10"/>
<path d="M97.8958 150.095H96.5254C96.3189 150.095 96.1562 149.926 96.1562 149.725V143.096C96.1562 142.889 96.3252 142.727 96.5254 142.727H97.8958C98.1023 142.727 98.265 142.896 98.265 143.096V149.725C98.265 149.932 98.1023 150.095 97.8958 150.095Z" stroke="#DDDDDD" stroke-miterlimit="10"/>
<path d="M105.115 151.341H100.966C100.628 151.341 100.359 151.071 100.359 150.733V130.4C100.359 130.062 100.628 129.793 100.966 129.793H105.115C105.453 129.793 105.722 130.062 105.722 130.4V150.733C105.722 151.071 105.447 151.341 105.115 151.341Z" stroke="#DDDDDD" stroke-miterlimit="10"/>
<path d="M103.724 150.095H102.354C102.147 150.095 101.984 149.926 101.984 149.725V143.096C101.984 142.889 102.153 142.727 102.354 142.727H103.724C103.93 142.727 104.093 142.896 104.093 143.096V149.725C104.093 149.932 103.93 150.095 103.724 150.095Z" stroke="#DDDDDD" stroke-miterlimit="10"/>
<path d="M110.939 151.341H106.791C106.453 151.341 106.184 151.071 106.184 150.733V130.4C106.184 130.062 106.453 129.793 106.791 129.793H110.939C111.277 129.793 111.546 130.062 111.546 130.4V150.733C111.546 151.071 111.271 151.341 110.939 151.341Z" stroke="#DDDDDD" stroke-miterlimit="10"/>
<path d="M109.548 150.095H108.178C107.971 150.095 107.809 149.926 107.809 149.725V143.096C107.809 142.889 107.978 142.727 108.178 142.727H109.548C109.755 142.727 109.917 142.896 109.917 143.096V149.725C109.917 149.932 109.755 150.095 109.548 150.095Z" stroke="#DDDDDD" stroke-miterlimit="10"/>
<path d="M116.763 151.341H112.615C112.277 151.341 112.008 151.071 112.008 150.733V130.4C112.008 130.062 112.277 129.793 112.615 129.793H116.763C117.101 129.793 117.37 130.062 117.37 130.4V150.733C117.37 151.071 117.095 151.341 116.763 151.341Z" stroke="#DDDDDD" stroke-miterlimit="10"/>
<path d="M115.372 150.095H114.002C113.796 150.095 113.633 149.926 113.633 149.725V143.096C113.633 142.889 113.802 142.727 114.002 142.727H115.372C115.579 142.727 115.742 142.896 115.742 143.096V149.725C115.742 149.932 115.579 150.095 115.372 150.095Z" stroke="#DDDDDD" stroke-miterlimit="10"/>
<path d="M122.592 151.341H118.443C118.105 151.341 117.836 151.071 117.836 150.733V130.4C117.836 130.062 118.105 129.793 118.443 129.793H122.592C122.93 129.793 123.199 130.062 123.199 130.4V150.733C123.199 151.071 122.923 151.341 122.592 151.341Z" stroke="#DDDDDD" stroke-miterlimit="10"/>
<path d="M121.201 150.095H119.83C119.624 150.095 119.461 149.926 119.461 149.725V143.096C119.461 142.889 119.63 142.727 119.83 142.727H121.201C121.407 142.727 121.57 142.896 121.57 143.096V149.725C121.57 149.932 121.407 150.095 121.201 150.095Z" stroke="#DDDDDD" stroke-miterlimit="10"/>
<path d="M128.416 151.341H124.267C123.929 151.341 123.66 151.071 123.66 150.733V130.4C123.66 130.062 123.929 129.793 124.267 129.793H128.416C128.754 129.793 129.023 130.062 129.023 130.4V150.733C129.023 151.071 128.747 151.341 128.416 151.341Z" stroke="#DDDDDD" stroke-miterlimit="10"/>
<path d="M127.025 150.095H125.654C125.448 150.095 125.285 149.926 125.285 149.725V143.096C125.285 142.889 125.454 142.727 125.654 142.727H127.025C127.231 142.727 127.394 142.896 127.394 143.096V149.725C127.394 149.932 127.231 150.095 127.025 150.095Z" stroke="#DDDDDD" stroke-miterlimit="10"/>
<path d="M134.24 151.341H130.091C129.753 151.341 129.484 151.071 129.484 150.733V130.4C129.484 130.062 129.753 129.793 130.091 129.793H134.24C134.578 129.793 134.847 130.062 134.847 130.4V150.733C134.847 151.071 134.572 151.341 134.24 151.341Z" stroke="#DDDDDD" stroke-miterlimit="10"/>
<path d="M132.849 150.095H131.479C131.272 150.095 131.109 149.926 131.109 149.725V143.096C131.109 142.889 131.278 142.727 131.479 142.727H132.849C133.055 142.727 133.218 142.896 133.218 143.096V149.725C133.218 149.932 133.055 150.095 132.849 150.095Z" stroke="#DDDDDD" stroke-miterlimit="10"/>
<path d="M134.661 153.137H77.2424C77.136 153.137 77.0547 153.056 77.0547 152.95V152.248C77.0547 152.142 77.136 152.061 77.2424 152.061H134.661C134.767 152.061 134.849 152.142 134.849 152.248V152.95C134.849 153.056 134.761 153.137 134.661 153.137Z" fill="#DDDDDD"/>
<path d="M181.427 100.22C179.806 100.22 178.492 98.9057 178.492 97.2843V78.9419C178.492 77.3205 179.806 76.0059 181.427 76.0059C183.048 76.0059 184.362 77.3205 184.362 78.9419V97.278C184.368 98.9057 183.048 100.22 181.427 100.22Z" stroke="#DDDDDD" stroke-miterlimit="10"/>
<path d="M182.686 95.2623C182.686 95.9133 182.154 96.4455 181.503 96.4455C180.852 96.4455 180.32 95.9133 180.32 95.2623C180.32 94.6112 180.852 94.0791 181.503 94.0791C182.16 94.0791 182.686 94.605 182.686 95.2623Z" stroke="#DDDDDD" stroke-miterlimit="10"/>
<path d="M174.722 116.296H142.465V133.9H174.722V116.296Z" stroke="#DDDDDD" stroke-miterlimit="10"/>
</g>
<defs>
<clipPath id="clip0_115_6049">
<rect width="194" height="161" fill="white"/>
</clipPath>
</defs>
</svg>
